<svg width="2156" height="2156" viewBox="0 0 2156 2156" fill="none" xmlns="http://www.w3.org/2000/svg">
<path d="M215.6 1941C156.31 1941 105.572 1919.89 63.3864 1877.68C21.2007 1835.46 0.0718667 1784.65 0 1725.25V430.75C0 371.419 21.1288 320.646 63.3864 278.43C105.644 236.215 156.382 215.072 215.6 215H862.4L1078 430.75H1940.4C1999.69 430.75 2050.46 451.893 2092.72 494.18C2134.98 536.467 2156.07 587.241 2156 646.5V1725.25C2156 1784.58 2134.91 1835.39 2092.72 1877.68C2050.54 1919.96 1999.76 1941.07 1940.4 1941H215.6Z" fill="#193A76"/>
<path d="M1157.11 1806C1127.38 1806 1101.94 1795.42 1080.78 1774.27C1059.63 1753.12 1049.04 1727.66 1049 1697.89V941.111C1049 911.381 1059.59 885.938 1080.78 864.785C1101.97 843.631 1127.42 833.036 1157.11 833H1913.89C1943.62 833 1969.08 843.595 1990.27 864.785C2011.46 885.974 2022.04 911.417 2022 941.111V1697.89C2022 1727.62 2011.42 1753.08 1990.27 1774.27C1969.12 1795.46 1943.66 1806.04 1913.89 1806H1157.11ZM1211.17 1589.78H1859.83L1657.12 1319.5L1494.96 1535.72L1373.33 1373.56L1211.17 1589.78Z" fill="#3C80FF"/>
</svg>
