<svg width="2156" height="2156" viewBox="0 0 2156 2156" fill="none" xmlns="http://www.w3.org/2000/svg">
<path d="M215.6 1941C156.31 1941 105.572 1919.89 63.3864 1877.68C21.2007 1835.46 0.0718667 1784.65 0 1725.25V430.75C0 371.419 21.1288 320.646 63.3864 278.43C105.644 236.215 156.382 215.072 215.6 215H862.4L1078 430.75H1940.4C1999.69 430.75 2050.46 451.893 2092.72 494.18C2134.98 536.467 2156.07 587.241 2156 646.5V1725.25C2156 1784.58 2134.91 1835.39 2092.72 1877.68C2050.54 1919.96 1999.76 1941.07 1940.4 1941H215.6Z" fill="#711F1F"/>
<path d="M1982.94 1172.81C1966.77 1172.81 1952.89 1167.02 1941.3 1155.43C1929.71 1143.84 1923.92 1130.11 1923.92 1114.25C1923.92 1081.92 1912.48 1054.31 1889.6 1031.44C1866.72 1008.56 1839.12 997.125 1806.79 997.125H1748.22C1732.36 997.125 1718.63 1002.77 1707.04 1014.05C1695.45 1025.34 1689.66 1039.22 1689.66 1055.69V1641.31C1689.66 1657.17 1695.45 1670.9 1707.04 1682.49C1718.63 1694.08 1732.51 1699.88 1748.68 1699.88C1764.84 1699.88 1778.57 1705.52 1789.86 1716.8C1801.14 1728.09 1806.79 1741.81 1806.79 1757.98C1806.79 1774.15 1801.14 1788.02 1789.86 1799.61C1778.57 1811.2 1764.69 1817 1748.22 1817H1396.83C1380.97 1817 1367.24 1811.36 1355.65 1800.07C1344.06 1788.79 1338.26 1774.91 1338.26 1758.44C1338.26 1741.97 1344.06 1728.09 1355.65 1716.8C1367.24 1705.52 1381.12 1699.88 1397.29 1699.88C1413.45 1699.88 1427.18 1694.08 1438.46 1682.49C1449.75 1670.9 1455.39 1657.17 1455.39 1641.31V1055.69C1455.39 1039.22 1449.75 1025.34 1438.46 1014.05C1427.18 1002.77 1413.3 997.125 1396.83 997.125H1338.26C1305.93 997.125 1278.32 1008.56 1255.45 1031.44C1232.57 1054.31 1221.13 1081.92 1221.13 1114.25C1221.13 1130.11 1215.49 1143.84 1204.2 1155.43C1192.92 1167.02 1179.19 1172.81 1163.02 1172.81C1146.86 1172.81 1132.98 1167.02 1121.39 1155.43C1109.8 1143.84 1104 1130.11 1104 1114.25V938.562C1104 922.702 1109.8 908.976 1121.39 897.386C1132.98 885.795 1146.7 880 1162.57 880H1982.48C1998.34 880 2012.07 885.795 2023.66 897.386C2035.25 908.976 2041.05 922.702 2041.05 938.562V1114.25C2041.05 1130.72 2035.41 1144.6 2024.12 1155.88C2012.83 1167.17 1999.11 1172.81 1982.94 1172.81Z" fill="#FF4242"/>
</svg>
