<svg width="2156" height="2156" viewBox="0 0 2156 2156" fill="none" xmlns="http://www.w3.org/2000/svg">
<path d="M215.6 1941C156.31 1941 105.572 1919.89 63.3864 1877.68C21.2007 1835.46 0.0718667 1784.65 0 1725.25V430.75C0 371.419 21.1288 320.646 63.3864 278.43C105.644 236.215 156.382 215.072 215.6 215H862.4L1078 430.75H1940.4C1999.69 430.75 2050.46 451.893 2092.72 494.18C2134.98 536.467 2156.07 587.241 2156 646.5V1725.25C2156 1784.58 2134.91 1835.39 2092.72 1877.68C2050.54 1919.96 1999.76 1941.07 1940.4 1941H215.6Z" fill="#5D540E"/>
<path d="M915.413 1796C823.286 1796 749.985 1771.18 695.511 1721.53C641.837 1671.09 615 1603.43 615 1518.55H795.247C795.247 1555.39 806.062 1585.01 827.692 1607.43C849.322 1629.05 878.562 1639.86 915.413 1639.86C952.263 1639.86 981.503 1629.45 1003.13 1608.63C1024.76 1587.01 1035.58 1557.79 1035.58 1520.96V1074.16H837.305V906.011H1215.83V1520.96C1215.83 1605.83 1188.99 1673.09 1135.31 1722.74C1081.64 1771.58 1008.34 1796 915.413 1796Z" fill="#EFD81D"/>
<path d="M1671.98 1794.8C1610.3 1794.8 1556.62 1784.39 1510.96 1763.57C1465.3 1742.75 1430.05 1713.53 1405.22 1675.89C1380.38 1638.26 1367.97 1593.82 1367.97 1542.58H1548.21C1548.21 1572.2 1559.43 1595.82 1581.86 1613.44C1605.09 1630.25 1636.33 1638.66 1675.59 1638.66C1713.24 1638.66 1742.48 1630.25 1763.31 1613.44C1784.94 1596.62 1795.75 1573.4 1795.75 1543.78C1795.75 1518.15 1787.74 1496.13 1771.72 1477.72C1755.7 1459.3 1733.27 1446.89 1704.43 1440.48L1615.51 1420.07C1541 1402.45 1482.92 1370.02 1441.27 1322.78C1400.41 1274.74 1379.98 1216.29 1379.98 1147.42C1379.98 1096.18 1391.6 1051.74 1414.83 1014.11C1438.86 975.672 1472.51 946.046 1515.77 925.228C1559.03 904.409 1610.3 894 1669.58 894C1759.3 894 1830.2 916.42 1882.27 961.26C1935.14 1005.3 1961.58 1064.95 1961.58 1140.22H1781.33C1781.33 1112.19 1771.32 1090.17 1751.29 1074.16C1732.06 1058.15 1704.03 1050.14 1667.18 1050.14C1632.73 1050.14 1606.29 1058.15 1587.87 1074.16C1569.44 1089.37 1560.23 1111.39 1560.23 1140.22C1560.23 1165.84 1567.44 1187.86 1581.86 1206.28C1597.08 1223.89 1618.31 1235.9 1645.55 1242.31L1739.27 1263.93C1816.98 1281.54 1875.86 1313.57 1915.92 1360.01C1955.97 1405.65 1976 1464.11 1976 1535.37C1976 1586.61 1963.18 1631.85 1937.55 1671.09C1912.71 1710.32 1877.46 1740.75 1831.8 1762.37C1786.94 1783.99 1733.67 1794.8 1671.98 1794.8Z" fill="#EFD81D"/>
</svg>
