<svg width="2156" height="2156" viewBox="0 0 2156 2156" fill="none" xmlns="http://www.w3.org/2000/svg">
<path d="M215.6 1941C156.31 1941 105.572 1919.89 63.3864 1877.68C21.2007 1835.46 0.0718667 1784.65 0 1725.25V430.75C0 371.419 21.1288 320.646 63.3864 278.43C105.644 236.215 156.382 215.072 215.6 215H862.4L1078 430.75H1940.4C1999.69 430.75 2050.46 451.893 2092.72 494.18C2134.98 536.467 2156.07 587.241 2156 646.5V1725.25C2156 1784.58 2134.91 1835.39 2092.72 1877.68C2050.54 1919.96 1999.76 1941.07 1940.4 1941H215.6Z" fill="#7E5E21"/>
<path d="M1284.87 775C1227.28 775 1172.05 797.87 1131.33 838.579C1090.61 879.288 1067.73 934.5 1067.73 992.071V1074.99C1067.73 1101.87 1060.24 1128.22 1046.1 1151.09C1031.96 1173.95 1011.73 1192.42 987.681 1204.44L963 1216.74V1346.26L987.681 1358.56C1011.74 1370.58 1031.98 1389.07 1046.12 1411.95C1060.26 1434.82 1067.74 1461.19 1067.73 1488.08V1570.93C1067.73 1628.5 1090.61 1683.71 1131.33 1724.42C1172.05 1765.13 1227.28 1788 1284.87 1788H1429.62V1643.29H1284.87C1265.67 1643.29 1247.26 1635.66 1233.69 1622.09C1220.11 1608.52 1212.49 1590.12 1212.49 1570.93V1488.01C1212.49 1449.56 1204.83 1411.49 1189.96 1376.04C1175.08 1340.58 1153.29 1308.44 1125.85 1281.5C1153.29 1254.56 1175.08 1222.42 1189.96 1186.96C1204.83 1151.51 1212.49 1113.44 1212.49 1074.99V992.071C1212.49 972.881 1220.11 954.477 1233.69 940.907C1247.26 927.338 1265.67 919.714 1284.87 919.714H1429.62V775H1284.87ZM1719.13 1788C1776.72 1788 1831.95 1765.13 1872.67 1724.42C1913.39 1683.71 1936.27 1628.5 1936.27 1570.93V1488.01C1936.27 1461.13 1943.76 1434.78 1957.9 1411.91C1972.04 1389.05 1992.27 1370.58 2016.32 1358.56L2041 1346.26V1216.74L2016.32 1204.44C1992.26 1192.42 1972.02 1173.93 1957.88 1151.05C1943.74 1128.18 1936.26 1101.81 1936.27 1074.92V992.071C1936.27 934.5 1913.39 879.288 1872.67 838.579C1831.95 797.87 1776.72 775 1719.13 775H1574.38V919.714H1719.13C1738.33 919.714 1756.74 927.338 1770.31 940.907C1783.89 954.477 1791.51 972.881 1791.51 992.071V1074.99C1791.51 1113.44 1799.17 1151.51 1814.04 1186.96C1828.92 1222.42 1850.71 1254.56 1878.15 1281.5C1850.71 1308.44 1828.92 1340.58 1814.04 1376.04C1799.17 1411.49 1791.51 1449.56 1791.51 1488.01V1570.93C1791.51 1590.12 1783.89 1608.52 1770.31 1622.09C1756.74 1635.66 1738.33 1643.29 1719.13 1643.29H1574.38V1788H1719.13Z" fill="#FFAD3B"/>
</svg>
