<svg width="2156" height="2156" viewBox="0 0 2156 2156" fill="none" xmlns="http://www.w3.org/2000/svg">
<path d="M215.6 1941C156.31 1941 105.572 1919.89 63.3864 1877.68C21.2007 1835.46 0.0718667 1784.65 0 1725.25V430.75C0 371.419 21.1288 320.646 63.3864 278.43C105.644 236.215 156.382 215.072 215.6 215H862.4L1078 430.75H1940.4C1999.69 430.75 2050.46 451.893 2092.72 494.18C2134.98 536.467 2156.07 587.241 2156 646.5V1725.25C2156 1784.58 2134.91 1835.39 2092.72 1877.68C2050.54 1919.96 1999.76 1941.07 1940.4 1941H215.6Z" fill="#6D6D6D"/>
<path d="M1852.64 1083.8V819.8C1852.64 805.797 1847.08 792.367 1837.18 782.465C1827.28 772.563 1813.86 767 1799.86 767C1785.86 767 1772.43 772.563 1762.53 782.465C1752.63 792.367 1747.07 805.797 1747.07 819.8V1083.8H1535.93V819.8C1535.93 805.797 1530.37 792.367 1520.47 782.465C1510.57 772.563 1497.14 767 1483.14 767C1469.14 767 1455.72 772.563 1445.82 782.465C1435.92 792.367 1430.36 805.797 1430.36 819.8V1083.8H1272V1295C1272.01 1364.89 1291.86 1433.34 1329.24 1492.38C1366.62 1551.43 1419.99 1598.64 1483.14 1628.54V1823H1799.86V1628.54C1863.01 1598.64 1916.38 1551.43 1953.76 1492.38C1991.14 1433.34 2010.99 1364.89 2011 1295V1083.8H1852.64Z" fill="white"/>
</svg>
