<svg width="2156" height="2156" viewBox="0 0 2156 2156" fill="none" xmlns="http://www.w3.org/2000/svg">
<path d="M215.6 1941C156.31 1941 105.572 1919.89 63.3864 1877.68C21.2007 1835.46 0.0718667 1784.65 0 1725.25V430.75C0 371.419 21.1288 320.646 63.3864 278.43C105.644 236.215 156.382 215.072 215.6 215H862.4L1078 430.75H1940.4C1999.69 430.75 2050.46 451.893 2092.72 494.18C2134.98 536.467 2156.07 587.241 2156 646.5V1725.25C2156 1784.58 2134.91 1835.39 2092.72 1877.68C2050.54 1919.96 1999.76 1941.07 1940.4 1941H215.6Z" fill="#78531C"/>
<path d="M2008.2 1281.03C1974.03 1246.86 1918.62 1246.86 1884.44 1281.03H1705.32L1831.98 1154.38C1880.31 1154.38 1919.49 1115.2 1919.49 1066.87C1919.49 1018.53 1880.31 979.345 1831.98 979.345C1783.64 979.345 1744.46 1018.53 1744.46 1066.87L1617.81 1193.52V1014.4C1651.98 980.224 1651.98 924.813 1617.81 890.636C1583.62 856.455 1528.21 856.455 1494.04 890.636C1459.86 924.817 1459.86 980.228 1494.04 1014.4V1193.52L1367.38 1066.86C1367.38 1018.53 1328.2 979.349 1279.87 979.349C1231.53 979.349 1192.35 1018.53 1192.35 1066.86C1192.35 1115.2 1231.53 1154.38 1279.86 1154.38L1406.52 1281.03H1227.4C1193.22 1246.86 1137.81 1246.86 1103.63 1281.03C1069.46 1315.22 1069.46 1370.63 1103.63 1404.81C1137.81 1438.98 1193.22 1438.98 1227.4 1404.81H1406.52L1279.87 1531.46C1231.53 1531.46 1192.35 1570.64 1192.35 1618.97C1192.35 1667.31 1231.53 1706.49 1279.86 1706.49C1328.2 1706.49 1367.38 1667.31 1367.38 1618.97L1494.04 1492.32V1671.43C1459.86 1705.61 1459.86 1761.03 1494.04 1795.2C1528.22 1829.38 1583.63 1829.38 1617.81 1795.2C1651.98 1761.02 1651.98 1705.61 1617.81 1671.43V1492.32L1744.46 1618.97C1744.46 1667.31 1783.64 1706.48 1831.97 1706.48C1880.31 1706.48 1919.5 1667.31 1919.5 1618.97C1919.5 1570.64 1880.31 1531.46 1831.98 1531.46L1705.32 1404.8H1884.44C1918.62 1438.98 1974.03 1438.98 2008.2 1404.8C2042.39 1370.62 2042.39 1315.21 2008.2 1281.03Z" fill="#FFB13B"/>
</svg>
