<svg width="2156" height="2156" viewBox="0 0 2156 2156" fill="none" xmlns="http://www.w3.org/2000/svg">
<path d="M215.6 1941C156.31 1941 105.572 1919.89 63.3864 1877.68C21.2007 1835.46 0.0718667 1784.65 0 1725.25V430.75C0 371.419 21.1288 320.646 63.3864 278.43C105.644 236.215 156.382 215.072 215.6 215H862.4L1078 430.75H1940.4C1999.69 430.75 2050.46 451.893 2092.72 494.18C2134.98 536.467 2156.07 587.241 2156 646.5V1725.25C2156 1784.58 2134.91 1835.39 2092.72 1877.68C2050.54 1919.96 1999.76 1941.07 1940.4 1941H215.6Z" fill="#0E5D23"/>
<path d="M1417.5 617C1743.63 617 2008 881.365 2008 1207.5C2008 1533.63 1743.63 1798 1417.5 1798C1091.37 1798 827 1533.63 827 1207.5C827.002 881.367 1091.37 617.002 1417.5 617ZM1417.5 754.021C1167.04 754.023 964.023 957.042 964.021 1207.5C964.021 1457.95 1167.04 1660.98 1417.5 1660.98C1667.95 1660.98 1870.98 1457.95 1870.98 1207.5C1870.98 957.04 1667.95 754.021 1417.5 754.021ZM1486.03 1179.12L1671.01 1364.09L1574.12 1460.98L1349.01 1235.87V851.896H1486.03V1179.12Z" fill="#5EFF89"/>
</svg>
