<svg width="2156" height="2156" viewBox="0 0 2156 2156" fill="none" xmlns="http://www.w3.org/2000/svg">
<path d="M215.6 1941C156.31 1941 105.572 1919.89 63.3864 1877.68C21.2007 1835.46 0.0718667 1784.65 0 1725.25V430.75C0 371.419 21.1288 320.646 63.3864 278.43C105.644 236.215 156.382 215.072 215.6 215H862.4L1078 430.75H1940.4C1999.69 430.75 2050.46 451.893 2092.72 494.18C2134.98 536.467 2156.07 587.241 2156 646.5V1725.25C2156 1784.58 2134.91 1835.39 2092.72 1877.68C2050.54 1919.96 1999.76 1941.07 1940.4 1941H215.6Z" fill="#7B1C19"/>
<path d="M350 1748V1333H453.813V1471.33H592.229V1333H696.042V1748H592.229V1575.08H453.813V1748H350ZM886.365 1748V1436.75H765.25V1333H1111.29V1436.75H990.177V1748H886.365ZM1180.5 1748V1402.17C1180.5 1382.57 1187.14 1366.15 1200.43 1352.92C1213.72 1339.69 1230.15 1333.05 1249.71 1333H1561.15C1580.75 1333 1597.2 1339.64 1610.49 1352.92C1623.78 1366.2 1630.4 1382.62 1630.35 1402.17V1748H1526.54V1436.75H1457.33V1678.83H1353.52V1436.75H1284.31V1748H1180.5ZM1734.17 1748V1333H1837.98V1644.25H2011V1748H1734.17Z" fill="#FF3831"/>
</svg>
