<svg width="2156" height="2156" viewBox="0 0 2156 2156" fill="none" xmlns="http://www.w3.org/2000/svg">
<path d="M297.936 1565C236.755 1565 183.76 1552.08 138.951 1526.24C94.5727 1499.96 60.3197 1464 36.1918 1418.34C12.0639 1372.25 0 1319.27 0 1259.4H178.374C179.236 1302.04 190.007 1336.07 210.688 1361.48C231.8 1386.47 259.375 1398.96 293.412 1398.96C315.386 1398.96 334.99 1393.79 352.224 1383.45C369.458 1372.68 383.03 1357.18 392.94 1336.93C403.281 1316.26 408.451 1291.28 408.451 1261.99V602.337H597.812V1259.4C597.812 1324.01 584.886 1379.14 559.035 1424.8C533.614 1470.46 498.284 1505.35 453.044 1529.47C408.235 1553.16 356.533 1565 297.936 1565Z" fill="#F0DB4F"/>
<path d="M1101.91 1565C1051.5 1565 1003.46 1555.09 957.791 1535.28C912.552 1515.04 873.128 1487.69 839.522 1453.23C805.915 1418.34 782.002 1378.93 767.784 1334.99L944.219 1261.34C952.406 1285.46 964.254 1307.86 979.765 1328.53C995.707 1348.78 1014.02 1365.15 1034.7 1377.64C1055.38 1390.13 1077.57 1396.37 1101.27 1396.37C1123.24 1396.37 1143.06 1391.42 1160.72 1381.51C1178.39 1371.18 1192.39 1357.39 1202.73 1340.16C1213.07 1322.5 1218.24 1302.91 1218.24 1281.37C1218.24 1254.67 1210.49 1232.7 1194.98 1215.47C1179.9 1197.81 1159.86 1182.52 1134.87 1169.6C1110.31 1156.68 1082.95 1144.62 1052.79 1133.42C1022.64 1122.22 992.475 1109.73 962.315 1095.94C932.586 1082.16 905.227 1065.15 880.237 1044.9C855.248 1024.66 834.998 999.678 819.487 969.958C804.407 940.238 796.867 903.196 796.867 858.832C796.867 804.561 809.146 757.612 833.705 717.986C858.264 677.929 892.086 646.917 935.171 624.95C978.688 602.983 1028.67 592 1085.11 592C1134.23 592 1178.39 600.184 1217.6 616.551C1257.24 632.919 1290.84 655.316 1318.42 683.744C1345.99 711.741 1366.67 743.829 1380.46 780.01L1210.49 849.787C1203.59 830.835 1193.68 814.468 1180.76 800.685C1168.26 786.902 1153.62 776.349 1136.81 769.027C1120.44 761.274 1102.99 757.397 1084.46 757.397C1056.89 757.397 1032.76 766.012 1012.08 783.24C991.829 800.039 981.704 823.944 981.704 854.956C981.704 882.091 989.244 904.488 1004.32 922.148C1019.83 939.377 1040.08 954.237 1065.07 966.728C1090.06 978.788 1117.64 990.417 1147.8 1001.62C1177.96 1012.38 1207.9 1024.44 1237.63 1037.8C1267.79 1050.72 1295.37 1067.09 1320.36 1086.9C1345.35 1106.28 1365.38 1130.83 1380.46 1160.55C1395.97 1190.27 1403.73 1227.1 1403.73 1271.03C1403.73 1327.46 1390.37 1377.85 1363.66 1422.22C1336.94 1466.58 1300.75 1501.47 1255.08 1526.88C1209.41 1552.29 1158.35 1565 1101.91 1565Z" fill="#F0DB4F"/>
<path d="M1757.89 1482.95V812.314H1913V1482.95H1757.89ZM1514.89 1223.87V1072.04H2156V1223.87H1514.89Z" fill="#F0DB4F"/>
</svg>
