<svg width="627" height="886" viewBox="0 0 627 886" fill="none" xmlns="http://www.w3.org/2000/svg">
<g clip-path="url(#clip0_120_50)">
<rect width="627" height="886" fill="#111111"/>
<path d="M-508 312.138C-475.779 284.781 -443.558 257.423 -374.373 205.334C-305.187 153.244 -200.013 77.2513 -99.0209 17.4335C1.97115 -42.3843 95.5942 -83.7243 182.733 -114.444C269.871 -145.163 347.687 -164.01 386.255 -171.894C424.822 -179.779 421.783 -176.132 418.089 -172.429C414.395 -168.726 410.14 -165.078 275.72 -56.5051C141.3 52.0678 -123.154 265.455 -261.516 377.51C-399.878 489.565 -404.134 493.82 -407.238 497.229C-412.384 502.878 -415.869 507.398 -417.113 508.945C-417.515 509.446 -413.493 506.237 -396.424 489.178C-379.356 472.119 -348.351 440.506 -250.61 366.162C-152.87 291.818 10.6665 175.701 155.099 82.7504C299.531 -10.2002 419.904 -76.4659 518.086 -123.37C616.269 -170.273 688.614 -195.807 725.579 -206.833C762.543 -217.858 761.935 -213.603 751.895 -198.036C741.855 -182.469 722.401 -155.719 572.248 -10.32C422.096 135.079 141.835 398.318 -3.75824 535.446C-149.351 672.574 -151.783 675.614 -153.948 678.091C-156.112 680.569 -157.936 682.393 -153.404 675.733C-148.872 669.074 -137.929 653.875 -11.0075 555.158C115.914 456.441 358.483 274.667 517.792 164.307C677.1 53.9469 745.797 20.5101 784.227 2.37312C840.217 -24.0518 857.087 -23.1512 859.851 -22.2393C861.094 -21.829 860.79 -19.5036 858.663 -14.9164C856.535 -10.3292 852.279 -3.03387 726.979 140.855C601.678 284.744 355.462 565.005 222.544 718.501C89.6253 871.997 77.4665 890.235 67.8591 903.886C52.0274 926.382 42.8506 936.642 41.6071 936.973C40.0601 937.386 45.2272 930.618 51.9606 922.337C58.694 914.056 69.029 902.505 139.707 829.985C210.385 757.465 341.092 624.325 423.625 544.188C506.158 464.05 536.555 440.948 582.915 412.025C629.275 383.101 690.677 349.057 728.692 329.391C778.549 303.598 798.099 301.084 806.389 303.82C810.119 305.051 809.208 312.027 790.665 359.834C772.123 407.64 735.039 497.616 677.33 608.712C619.622 719.809 542.413 849.301 499.903 921.784C457.393 994.267 451.922 1005.82 448.495 1014.2C440.217 1034.45 438.308 1041.65 437.083 1045.33C436.465 1047.18 435.857 1049 439.8 1046.9C452.95 1039.9 473.181 1026.38 518.049 1010.18C550.254 998.546 603.649 986.069 653.694 976.13C703.739 966.191 749.334 960.72 774.951 957.901C800.567 955.083 804.823 955.083 809.208 955.083" stroke="url(#paint0_linear_120_50)" stroke-width="130" stroke-miterlimit="3.74198"/>
</g>
<defs>
<linearGradient id="paint0_linear_120_50" x1="176.292" y1="-213" x2="176.292" y2="1047.84" gradientUnits="userSpaceOnUse">
<stop stop-color="#DB3CDD"/>
<stop offset="0.235577" stop-color="#4858FF"/>
<stop offset="0.5" stop-color="#3BA0FF"/>
<stop offset="0.769231" stop-color="#31DEF9"/>
<stop offset="1" stop-color="#70BDE9"/>
</linearGradient>
<clipPath id="clip0_120_50">
<rect width="627" height="886" fill="white"/>
</clipPath>
</defs>
</svg>
