<svg width="627" height="886" viewBox="0 0 627 886" fill="none" xmlns="http://www.w3.org/2000/svg">
<g clip-path="url(#clip0_110_22)">
<rect width="627" height="886" fill="#111111"/>
<path d="M314 193C314.015 257.356 400.26 278.613 430.181 221.636C400.287 278.627 466.774 337.529 519.746 300.984C466.791 337.555 498.289 420.608 562.177 412.866C498.293 420.638 487.586 508.816 547.754 531.651C487.575 508.845 437.117 581.947 479.781 630.128C437.093 581.967 358.443 623.246 373.829 685.735C358.413 623.254 269.587 623.254 254.171 685.735C269.557 623.246 190.907 581.967 148.219 630.128C190.883 581.947 140.425 508.845 80.2459 531.651C140.414 508.816 129.707 420.638 65.8228 412.866C129.711 420.608 161.209 337.555 108.254 300.984C161.226 337.529 227.713 278.627 197.819 221.636C227.74 278.613 313.985 257.356 314 193Z" fill="url(#paint0_radial_110_22)"/>
<path d="M313 668C313.015 732.356 399.26 753.613 429.181 696.636C399.287 753.627 465.774 812.529 518.746 775.984C465.791 812.555 497.289 895.608 561.177 887.866C497.293 895.638 486.586 983.816 546.754 1006.65C486.575 983.845 436.117 1056.95 478.781 1105.13C436.093 1056.97 357.443 1098.25 372.829 1160.74C357.413 1098.25 268.587 1098.25 253.171 1160.74C268.557 1098.25 189.907 1056.97 147.219 1105.13C189.883 1056.95 139.425 983.845 79.2459 1006.65C139.414 983.816 128.707 895.638 64.8228 887.866C128.711 895.608 160.209 812.555 107.254 775.984C160.226 812.529 226.713 753.627 196.819 696.636C226.74 753.613 312.985 732.356 313 668Z" fill="url(#paint1_radial_110_22)"/>
<path d="M314 -283C314.015 -218.644 400.26 -197.387 430.181 -254.364C400.287 -197.373 466.774 -138.471 519.746 -175.016C466.791 -138.445 498.289 -55.3923 562.177 -63.1342C498.293 -55.3616 487.586 32.816 547.754 55.6512C487.575 32.8448 437.117 105.947 479.781 154.128C437.093 105.967 358.443 147.246 373.829 209.735C358.413 147.254 269.587 147.254 254.171 209.735C269.557 147.246 190.907 105.967 148.219 154.128C190.883 105.947 140.425 32.8448 80.2459 55.6512C140.414 32.816 129.707 -55.3616 65.8228 -63.1342C129.711 -55.3923 161.209 -138.445 108.254 -175.016C161.226 -138.471 227.713 -197.373 197.819 -254.364C227.74 -197.387 313.985 -218.644 314 -283Z" fill="url(#paint2_radial_110_22)"/>
</g>
<defs>
<radialGradient id="paint0_radial_110_22" cx="0" cy="0" r="1" gradientUnits="userSpaceOnUse" gradientTransform="translate(314 443) rotate(90) scale(250)">
<stop offset="0.0625" stop-color="#34F3F4"/>
<stop offset="1" stop-color="#F533D7"/>
</radialGradient>
<radialGradient id="paint1_radial_110_22" cx="0" cy="0" r="1" gradientUnits="userSpaceOnUse" gradientTransform="translate(313 918) rotate(90) scale(250)">
<stop offset="0.0625" stop-color="#34F3F4"/>
<stop offset="1" stop-color="#F533D7"/>
</radialGradient>
<radialGradient id="paint2_radial_110_22" cx="0" cy="0" r="1" gradientUnits="userSpaceOnUse" gradientTransform="translate(314 -33) rotate(90) scale(250)">
<stop offset="0.0625" stop-color="#34F3F4"/>
<stop offset="1" stop-color="#F533D7"/>
</radialGradient>
<clipPath id="clip0_110_22">
<rect width="627" height="886" fill="white"/>
</clipPath>
</defs>
</svg>
