<svg width="627" height="886" viewBox="0 0 627 886" fill="none" xmlns="http://www.w3.org/2000/svg">
<g clip-path="url(#clip0_416_431)">
<rect width="627" height="886" fill="#111111"/>
<path d="M30.4 62.24L42.28 55.96V55.64L30.4 49.36V43.84L47.6 53.04V58.56L30.4 67.76V62.24ZM60.4244 65.52V58.16H53.4644V53.44H60.4244V46.08H65.5444V53.44H72.5044V58.16H65.5444V65.52H60.4244ZM84.4088 65.52V58.16H77.4488V53.44H84.4088V46.08H89.5288V53.44H96.4888V58.16H89.5288V65.52H84.4088ZM108.393 65.52V58.16H101.433V53.44H108.393V46.08H113.513V53.44H120.473V58.16H113.513V65.52H108.393ZM132.378 65.52V58.16H125.418V53.44H132.378V46.08H137.498V53.44H144.458V58.16H137.498V65.52H132.378ZM156.362 65.52V58.16H149.402V53.44H156.362V46.08H161.482V53.44H168.442V58.16H161.482V65.52H156.362ZM180.346 65.52V58.16H173.386V53.44H180.346V46.08H185.466V53.44H192.426V58.16H185.466V65.52H180.346ZM204.331 65.52V58.16H197.371V53.44H204.331V46.08H209.451V53.44H216.411V58.16H209.451V65.52H204.331ZM228.315 65.52V58.16H221.355V53.44H228.315V46.08H233.435V53.44H240.395V58.16H233.435V65.52H228.315ZM250.179 73.52V37.6H263.139V41.56H254.939V69.56H263.139V73.52H250.179ZM270.244 58.56V53.04L287.444 43.84V49.36L275.564 55.64V55.96L287.444 62.24V67.76L270.244 58.56ZM300.268 65.52V58.16H293.308V53.44H300.268V46.08H305.388V53.44H312.348V58.16H305.388V65.52H300.268ZM324.253 65.52V58.16H317.293V53.44H324.253V46.08H329.373V53.44H336.333V58.16H329.373V65.52H324.253ZM348.237 65.52V58.16H341.277V53.44H348.237V46.08H353.357V53.44H360.317V58.16H353.357V65.52H348.237ZM372.221 65.52V58.16H365.261V53.44H372.221V46.08H377.341V53.44H384.301V58.16H377.341V65.52H372.221ZM396.206 65.52V58.16H389.246V53.44H396.206V46.08H401.326V53.44H408.286V58.16H401.326V65.52H396.206ZM420.19 65.52V58.16H413.23V53.44H420.19V46.08H425.31V53.44H432.27V58.16H425.31V65.52H420.19ZM444.174 65.52V58.16H437.214V53.44H444.174V46.08H449.294V53.44H456.254V58.16H449.294V65.52H444.174ZM468.159 65.52V58.16H461.199V53.44H468.159V46.08H473.279V53.44H480.239V58.16H473.279V65.52H468.159ZM36.44 117.52V110.16H29.48V105.44H36.44V98.08H41.56V105.44H48.52V110.16H41.56V117.52H36.44ZM54.3844 114.24L66.2644 107.96V107.64L54.3844 101.36V95.84L71.5844 105.04V110.56L54.3844 119.76V114.24ZM80.5688 110.64V104.96H93.3688V110.64H80.5688ZM115.633 89.6V125.52H102.673V121.56H110.873V93.56H102.673V89.6H115.633ZM126.338 110.56V105.04L143.538 95.84V101.36L131.658 107.64V107.96L143.538 114.24V119.76L126.338 110.56ZM158.922 120.48C157.429 120.48 156.349 120.16 155.682 119.52C155.042 118.853 154.722 118.067 154.722 117.16V115.76C154.722 114.853 155.042 114.08 155.682 113.44C156.349 112.773 157.429 112.44 158.922 112.44C160.415 112.44 161.482 112.773 162.122 113.44C162.789 114.08 163.122 114.853 163.122 115.76V117.16C163.122 118.067 162.789 118.853 162.122 119.52C161.482 120.16 160.415 120.48 158.922 120.48ZM30.4 166.24L42.28 159.96V159.64L30.4 153.36V147.84L47.6 157.04V162.56L30.4 171.76V166.24ZM60.4244 169.52V162.16H53.4644V157.44H60.4244V150.08H65.5444V157.44H72.5044V162.16H65.5444V169.52H60.4244ZM84.4088 169.52V162.16H77.4488V157.44H84.4088V150.08H89.5288V157.44H96.4888V162.16H89.5288V169.52H84.4088ZM108.393 169.52V162.16H101.433V157.44H108.393V150.08H113.513V157.44H120.473V162.16H113.513V169.52H108.393ZM132.378 169.52V162.16H125.418V157.44H132.378V150.08H137.498V157.44H144.458V162.16H137.498V169.52H132.378ZM154.242 177.52V141.6H167.202V145.56H159.002V173.56H167.202V177.52H154.242ZM174.306 162.56V157.04L191.506 147.84V153.36L179.626 159.64V159.96L191.506 166.24V171.76L174.306 162.56ZM204.331 169.52V162.16H197.371V157.44H204.331V150.08H209.451V157.44H216.411V162.16H209.451V169.52H204.331ZM228.315 169.52V162.16H221.355V157.44H228.315V150.08H233.435V157.44H240.395V162.16H233.435V169.52H228.315ZM252.299 169.52V162.16H245.339V157.44H252.299V150.08H257.419V157.44H264.379V162.16H257.419V169.52H252.299ZM276.284 169.52V162.16H269.324V157.44H276.284V150.08H281.404V157.44H288.364V162.16H281.404V169.52H276.284ZM300.268 169.52V162.16H293.308V157.44H300.268V150.08H305.388V157.44H312.348V162.16H305.388V169.52H300.268ZM324.253 169.52V162.16H317.293V157.44H324.253V150.08H329.373V157.44H336.333V162.16H329.373V169.52H324.253ZM348.237 169.52V162.16H341.277V157.44H348.237V150.08H353.357V157.44H360.317V162.16H353.357V169.52H348.237ZM366.181 166.24L378.061 159.96V159.64L366.181 153.36V147.84L383.381 157.04V162.56L366.181 171.76V166.24ZM392.366 162.64V156.96H405.166V162.64H392.366ZM427.43 141.6V177.52H414.47V173.56H422.67V145.56H414.47V141.6H427.43ZM438.134 162.56V157.04L455.334 147.84V153.36L443.454 159.64V159.96L455.334 166.24V171.76L438.134 162.56ZM468.159 169.52V162.16H461.199V157.44H468.159V150.08H473.279V157.44H480.239V162.16H473.279V169.52H468.159ZM494.703 172.48C493.21 172.48 492.13 172.16 491.463 171.52C490.823 170.853 490.503 170.067 490.503 169.16V167.76C490.503 166.853 490.823 166.08 491.463 165.44C492.13 164.773 493.21 164.44 494.703 164.44C496.196 164.44 497.263 164.773 497.903 165.44C498.57 166.08 498.903 166.853 498.903 167.76V169.16C498.903 170.067 498.57 170.853 497.903 171.52C497.263 172.16 496.196 172.48 494.703 172.48ZM36.44 221.52V214.16H29.48V209.44H36.44V202.08H41.56V209.44H48.52V214.16H41.56V221.52H36.44ZM60.4244 221.52V214.16H53.4644V209.44H60.4244V202.08H65.5444V209.44H72.5044V214.16H65.5444V221.52H60.4244ZM84.4088 221.52V214.16H77.4488V209.44H84.4088V202.08H89.5288V209.44H96.4888V214.16H89.5288V221.52H84.4088ZM108.393 221.52V214.16H101.433V209.44H108.393V202.08H113.513V209.44H120.473V214.16H113.513V221.52H108.393ZM132.378 221.52V214.16H125.418V209.44H132.378V202.08H137.498V209.44H144.458V214.16H137.498V221.52H132.378ZM156.362 221.52V214.16H149.402V209.44H156.362V202.08H161.482V209.44H168.442V214.16H161.482V221.52H156.362ZM180.346 221.52V214.16H173.386V209.44H180.346V202.08H185.466V209.44H192.426V214.16H185.466V221.52H180.346ZM206.891 224.48C205.397 224.48 204.317 224.16 203.651 223.52C203.011 222.853 202.691 222.067 202.691 221.16V219.76C202.691 218.853 203.011 218.08 203.651 217.44C204.317 216.773 205.397 216.44 206.891 216.44C208.384 216.44 209.451 216.773 210.091 217.44C210.757 218.08 211.091 218.853 211.091 219.76V221.16C211.091 222.067 210.757 222.853 210.091 223.52C209.451 224.16 208.384 224.48 206.891 224.48ZM230.875 224.48C229.382 224.48 228.302 224.16 227.635 223.52C226.995 222.853 226.675 222.067 226.675 221.16V219.76C226.675 218.853 226.995 218.08 227.635 217.44C228.302 216.773 229.382 216.44 230.875 216.44C232.368 216.44 233.435 216.773 234.075 217.44C234.742 218.08 235.075 218.853 235.075 219.76V221.16C235.075 222.067 234.742 222.853 234.075 223.52C233.435 224.16 232.368 224.48 230.875 224.48ZM36.44 273.52V266.16H29.48V261.44H36.44V254.08H41.56V261.44H48.52V266.16H41.56V273.52H36.44ZM60.4244 273.52V266.16H53.4644V261.44H60.4244V254.08H65.5444V261.44H72.5044V266.16H65.5444V273.52H60.4244ZM84.4088 273.52V266.16H77.4488V261.44H84.4088V254.08H89.5288V261.44H96.4888V266.16H89.5288V273.52H84.4088ZM110.953 276.48C109.46 276.48 108.38 276.16 107.713 275.52C107.073 274.853 106.753 274.067 106.753 273.16V271.76C106.753 270.853 107.073 270.08 107.713 269.44C108.38 268.773 109.46 268.44 110.953 268.44C112.446 268.44 113.513 268.773 114.153 269.44C114.82 270.08 115.153 270.853 115.153 271.76V273.16C115.153 274.067 114.82 274.853 114.153 275.52C113.513 276.16 112.446 276.48 110.953 276.48ZM30.4 322.24L42.28 315.96V315.64L30.4 309.36V303.84L47.6 313.04V318.56L30.4 327.76V322.24ZM54.3844 322.24L66.2644 315.96V315.64L54.3844 309.36V303.84L71.5844 313.04V318.56L54.3844 327.76V322.24ZM84.4088 325.52V318.16H77.4488V313.44H84.4088V306.08H89.5288V313.44H96.4888V318.16H89.5288V325.52H84.4088ZM108.393 325.52V318.16H101.433V313.44H108.393V306.08H113.513V313.44H120.473V318.16H113.513V325.52H108.393ZM132.378 325.52V318.16H125.418V313.44H132.378V306.08H137.498V313.44H144.458V318.16H137.498V325.52H132.378ZM156.362 325.52V318.16H149.402V313.44H156.362V306.08H161.482V313.44H168.442V318.16H161.482V325.52H156.362ZM180.346 325.52V318.16H173.386V313.44H180.346V306.08H185.466V313.44H192.426V318.16H185.466V325.52H180.346ZM204.331 325.52V318.16H197.371V313.44H204.331V306.08H209.451V313.44H216.411V318.16H209.451V325.52H204.331ZM226.195 333.52V297.6H239.155V301.56H230.955V329.56H239.155V333.52H226.195ZM246.259 318.56V313.04L263.459 303.84V309.36L251.579 315.64V315.96L263.459 322.24V327.76L246.259 318.56ZM276.284 325.52V318.16H269.324V313.44H276.284V306.08H281.404V313.44H288.364V318.16H281.404V325.52H276.284ZM300.268 325.52V318.16H293.308V313.44H300.268V306.08H305.388V313.44H312.348V318.16H305.388V325.52H300.268ZM324.253 325.52V318.16H317.293V313.44H324.253V306.08H329.373V313.44H336.333V318.16H329.373V325.52H324.253ZM348.237 325.52V318.16H341.277V313.44H348.237V306.08H353.357V313.44H360.317V318.16H353.357V325.52H348.237ZM372.221 325.52V318.16H365.261V313.44H372.221V306.08H377.341V313.44H384.301V318.16H377.341V325.52H372.221ZM396.206 325.52V318.16H389.246V313.44H396.206V306.08H401.326V313.44H408.286V318.16H401.326V325.52H396.206ZM36.44 377.52V370.16H29.48V365.44H36.44V358.08H41.56V365.44H48.52V370.16H41.56V377.52H36.44ZM54.3844 374.24L66.2644 367.96V367.64L54.3844 361.36V355.84L71.5844 365.04V370.56L54.3844 379.76V374.24ZM80.5688 370.64V364.96H93.3688V370.64H80.5688ZM115.633 349.6V385.52H102.673V381.56H110.873V353.56H102.673V349.6H115.633ZM126.338 370.56V365.04L143.538 355.84V361.36L131.658 367.64V367.96L143.538 374.24V379.76L126.338 370.56ZM156.362 377.52V370.16H149.402V365.44H156.362V358.08H161.482V365.44H168.442V370.16H161.482V377.52H156.362ZM180.346 377.52V370.16H173.386V365.44H180.346V358.08H185.466V365.44H192.426V370.16H185.466V377.52H180.346ZM206.891 380.48C205.397 380.48 204.317 380.16 203.651 379.52C203.011 378.853 202.691 378.067 202.691 377.16V375.76C202.691 374.853 203.011 374.08 203.651 373.44C204.317 372.773 205.397 372.44 206.891 372.44C208.384 372.44 209.451 372.773 210.091 373.44C210.757 374.08 211.091 374.853 211.091 375.76V377.16C211.091 378.067 210.757 378.853 210.091 379.52C209.451 380.16 208.384 380.48 206.891 380.48ZM32.6 422.64V416.96H45.4V422.64H32.6ZM56.5844 422.64V416.96H69.3844V422.64H56.5844ZM80.5688 422.64V416.96H93.3688V422.64H80.5688ZM104.553 422.64V416.96H117.353V422.64H104.553ZM128.538 422.64V416.96H141.338V422.64H128.538ZM152.522 422.64V416.96H165.322V422.64H152.522ZM176.506 422.64V416.96H189.306V422.64H176.506ZM200.491 422.64V416.96H213.291V422.64H200.491ZM224.475 422.64V416.96H237.275V422.64H224.475ZM248.459 422.64V416.96H261.259V422.64H248.459ZM272.444 422.64V416.96H285.244V422.64H272.444ZM296.428 422.64V416.96H309.228V422.64H296.428ZM326.813 432.48C325.319 432.48 324.239 432.16 323.573 431.52C322.933 430.853 322.613 430.067 322.613 429.16V427.76C322.613 426.853 322.933 426.08 323.573 425.44C324.239 424.773 325.319 424.44 326.813 424.44C328.306 424.44 329.373 424.773 330.013 425.44C330.679 426.08 331.013 426.853 331.013 427.76V429.16C331.013 430.067 330.679 430.853 330.013 431.52C329.373 432.16 328.306 432.48 326.813 432.48ZM30.4 478.24L42.28 471.96V471.64L30.4 465.36V459.84L47.6 469.04V474.56L30.4 483.76V478.24ZM60.4244 481.52V474.16H53.4644V469.44H60.4244V462.08H65.5444V469.44H72.5044V474.16H65.5444V481.52H60.4244ZM84.4088 481.52V474.16H77.4488V469.44H84.4088V462.08H89.5288V469.44H96.4888V474.16H89.5288V481.52H84.4088ZM108.393 481.52V474.16H101.433V469.44H108.393V462.08H113.513V469.44H120.473V474.16H113.513V481.52H108.393ZM132.378 481.52V474.16H125.418V469.44H132.378V462.08H137.498V469.44H144.458V474.16H137.498V481.52H132.378ZM156.362 481.52V474.16H149.402V469.44H156.362V462.08H161.482V469.44H168.442V474.16H161.482V481.52H156.362ZM180.346 481.52V474.16H173.386V469.44H180.346V462.08H185.466V469.44H192.426V474.16H185.466V481.52H180.346ZM202.211 489.52V453.6H215.171V457.56H206.971V485.56H215.171V489.52H202.211ZM222.275 474.56V469.04L239.475 459.84V465.36L227.595 471.64V471.96L239.475 478.24V483.76L222.275 474.56ZM252.299 481.52V474.16H245.339V469.44H252.299V462.08H257.419V469.44H264.379V474.16H257.419V481.52H252.299ZM276.284 481.52V474.16H269.324V469.44H276.284V462.08H281.404V469.44H288.364V474.16H281.404V481.52H276.284ZM300.268 481.52V474.16H293.308V469.44H300.268V462.08H305.388V469.44H312.348V474.16H305.388V481.52H300.268ZM324.253 481.52V474.16H317.293V469.44H324.253V462.08H329.373V469.44H336.333V474.16H329.373V481.52H324.253ZM348.237 481.52V474.16H341.277V469.44H348.237V462.08H353.357V469.44H360.317V474.16H353.357V481.52H348.237ZM372.221 481.52V474.16H365.261V469.44H372.221V462.08H377.341V469.44H384.301V474.16H377.341V481.52H372.221ZM396.206 481.52V474.16H389.246V469.44H396.206V462.08H401.326V469.44H408.286V474.16H401.326V481.52H396.206ZM420.19 481.52V474.16H413.23V469.44H420.19V462.08H425.31V469.44H432.27V474.16H425.31V481.52H420.19ZM36.44 533.52V526.16H29.48V521.44H36.44V514.08H41.56V521.44H48.52V526.16H41.56V533.52H36.44ZM54.3844 530.24L66.2644 523.96V523.64L54.3844 517.36V511.84L71.5844 521.04V526.56L54.3844 535.76V530.24ZM80.5688 526.64V520.96H93.3688V526.64H80.5688ZM115.633 505.6V541.52H102.673V537.56H110.873V509.56H102.673V505.6H115.633ZM126.338 526.56V521.04L143.538 511.84V517.36L131.658 523.64V523.96L143.538 530.24V535.76L126.338 526.56ZM156.362 533.52V526.16H149.402V521.44H156.362V514.08H161.482V521.44H168.442V526.16H161.482V533.52H156.362ZM182.906 536.48C181.413 536.48 180.333 536.16 179.666 535.52C179.026 534.853 178.706 534.067 178.706 533.16V531.76C178.706 530.853 179.026 530.08 179.666 529.44C180.333 528.773 181.413 528.44 182.906 528.44C184.4 528.44 185.466 528.773 186.106 529.44C186.773 530.08 187.106 530.853 187.106 531.76V533.16C187.106 534.067 186.773 534.853 186.106 535.52C185.466 536.16 184.4 536.48 182.906 536.48ZM30.4 578.56V573.04L47.6 563.84V569.36L35.72 575.64V575.96L47.6 582.24V587.76L30.4 578.56ZM62.9844 588.48C61.491 588.48 60.411 588.16 59.7444 587.52C59.1044 586.853 58.7844 586.067 58.7844 585.16V583.76C58.7844 582.853 59.1044 582.08 59.7444 581.44C60.411 580.773 61.491 580.44 62.9844 580.44C64.4777 580.44 65.5444 580.773 66.1844 581.44C66.851 582.08 67.1844 582.853 67.1844 583.76V585.16C67.1844 586.067 66.851 586.853 66.1844 587.52C65.5444 588.16 64.4777 588.48 62.9844 588.48ZM36.44 637.52V630.16H29.48V625.44H36.44V618.08H41.56V625.44H48.52V630.16H41.56V637.52H36.44ZM60.4244 637.52V630.16H53.4644V625.44H60.4244V618.08H65.5444V625.44H72.5044V630.16H65.5444V637.52H60.4244ZM84.4088 637.52V630.16H77.4488V625.44H84.4088V618.08H89.5288V625.44H96.4888V630.16H89.5288V637.52H84.4088ZM110.953 640.48C109.46 640.48 108.38 640.16 107.713 639.52C107.073 638.853 106.753 638.067 106.753 637.16V635.76C106.753 634.853 107.073 634.08 107.713 633.44C108.38 632.773 109.46 632.44 110.953 632.44C112.446 632.44 113.513 632.773 114.153 633.44C114.82 634.08 115.153 634.853 115.153 635.76V637.16C115.153 638.067 114.82 638.853 114.153 639.52C113.513 640.16 112.446 640.48 110.953 640.48ZM32.6 682.64V676.96H45.4V682.64H32.6ZM56.5844 682.64V676.96H69.3844V682.64H56.5844ZM80.5688 682.64V676.96H93.3688V682.64H80.5688ZM104.553 682.64V676.96H117.353V682.64H104.553ZM128.538 682.64V676.96H141.338V682.64H128.538ZM152.522 682.64V676.96H165.322V682.64H152.522ZM182.906 692.48C181.413 692.48 180.333 692.16 179.666 691.52C179.026 690.853 178.706 690.067 178.706 689.16V687.76C178.706 686.853 179.026 686.08 179.666 685.44C180.333 684.773 181.413 684.44 182.906 684.44C184.4 684.44 185.466 684.773 186.106 685.44C186.773 686.08 187.106 686.853 187.106 687.76V689.16C187.106 690.067 186.773 690.853 186.106 691.52C185.466 692.16 184.4 692.48 182.906 692.48ZM32.6 734.64V728.96H45.4V734.64H32.6ZM56.5844 734.64V728.96H69.3844V734.64H56.5844ZM80.5688 734.64V728.96H93.3688V734.64H80.5688ZM104.553 734.64V728.96H117.353V734.64H104.553ZM128.538 734.64V728.96H141.338V734.64H128.538ZM152.522 734.64V728.96H165.322V734.64H152.522ZM176.506 734.64V728.96H189.306V734.64H176.506ZM200.491 734.64V728.96H213.291V734.64H200.491ZM230.875 744.48C229.382 744.48 228.302 744.16 227.635 743.52C226.995 742.853 226.675 742.067 226.675 741.16V739.76C226.675 738.853 226.995 738.08 227.635 737.44C228.302 736.773 229.382 736.44 230.875 736.44C232.368 736.44 233.435 736.773 234.075 737.44C234.742 738.08 235.075 738.853 235.075 739.76V741.16C235.075 742.067 234.742 742.853 234.075 743.52C233.435 744.16 232.368 744.48 230.875 744.48ZM30.4 790.24L42.28 783.96V783.64L30.4 777.36V771.84L47.6 781.04V786.56L30.4 795.76V790.24ZM54.3844 790.24L66.2644 783.96V783.64L54.3844 777.36V771.84L71.5844 781.04V786.56L54.3844 795.76V790.24ZM78.3688 790.24L90.2488 783.96V783.64L78.3688 777.36V771.84L95.5688 781.04V786.56L78.3688 795.76V790.24ZM108.393 793.52V786.16H101.433V781.44H108.393V774.08H113.513V781.44H120.473V786.16H113.513V793.52H108.393ZM132.378 793.52V786.16H125.418V781.44H132.378V774.08H137.498V781.44H144.458V786.16H137.498V793.52H132.378ZM156.362 793.52V786.16H149.402V781.44H156.362V774.08H161.482V781.44H168.442V786.16H161.482V793.52H156.362ZM180.346 793.52V786.16H173.386V781.44H180.346V774.08H185.466V781.44H192.426V786.16H185.466V793.52H180.346ZM202.211 801.52V765.6H215.171V769.56H206.971V797.56H215.171V801.52H202.211ZM222.275 786.56V781.04L239.475 771.84V777.36L227.595 783.64V783.96L239.475 790.24V795.76L222.275 786.56ZM252.299 793.52V786.16H245.339V781.44H252.299V774.08H257.419V781.44H264.379V786.16H257.419V793.52H252.299ZM276.284 793.52V786.16H269.324V781.44H276.284V774.08H281.404V781.44H288.364V786.16H281.404V793.52H276.284ZM300.268 793.52V786.16H293.308V781.44H300.268V774.08H305.388V781.44H312.348V786.16H305.388V793.52H300.268ZM324.253 793.52V786.16H317.293V781.44H324.253V774.08H329.373V781.44H336.333V786.16H329.373V793.52H324.253ZM348.237 793.52V786.16H341.277V781.44H348.237V774.08H353.357V781.44H360.317V786.16H353.357V793.52H348.237ZM372.221 793.52V786.16H365.261V781.44H372.221V774.08H377.341V781.44H384.301V786.16H377.341V793.52H372.221ZM396.206 793.52V786.16H389.246V781.44H396.206V774.08H401.326V781.44H408.286V786.16H401.326V793.52H396.206ZM36.44 845.52V838.16H29.48V833.44H36.44V826.08H41.56V833.44H48.52V838.16H41.56V845.52H36.44ZM54.3844 842.24L66.2644 835.96V835.64L54.3844 829.36V823.84L71.5844 833.04V838.56L54.3844 847.76V842.24ZM80.5688 838.64V832.96H93.3688V838.64H80.5688ZM115.633 817.6V853.52H102.673V849.56H110.873V821.56H102.673V817.6H115.633ZM126.338 838.56V833.04L143.538 823.84V829.36L131.658 835.64V835.96L143.538 842.24V847.76L126.338 838.56ZM156.362 845.52V838.16H149.402V833.44H156.362V826.08H161.482V833.44H168.442V838.16H161.482V845.52H156.362ZM182.906 848.48C181.413 848.48 180.333 848.16 179.666 847.52C179.026 846.853 178.706 846.067 178.706 845.16V843.76C178.706 842.853 179.026 842.08 179.666 841.44C180.333 840.773 181.413 840.44 182.906 840.44C184.4 840.44 185.466 840.773 186.106 841.44C186.773 842.08 187.106 842.853 187.106 843.76V845.16C187.106 846.067 186.773 846.853 186.106 847.52C185.466 848.16 184.4 848.48 182.906 848.48Z" fill="url(#paint0_linear_416_431)"/>
</g>
<defs>
<linearGradient id="paint0_linear_416_431" x1="288" y1="27" x2="288" y2="859" gradientUnits="userSpaceOnUse">
<stop stop-color="#3EEAF2"/>
<stop offset="1" stop-color="#E847D6"/>
</linearGradient>
<clipPath id="clip0_416_431">
<rect width="627" height="886" fill="white"/>
</clipPath>
</defs>
</svg>
