<svg width="627" height="886" viewBox="0 0 627 886" fill="none" xmlns="http://www.w3.org/2000/svg">
<g clip-path="url(#clip0_415_147)">
<rect width="627" height="886" fill="#111111"/>
<path d="M148.777 89C175.926 89 195.555 100.182 207.664 122.545C217.039 139.83 221.727 163.512 221.727 193.59C221.727 222.105 217.479 245.689 208.982 264.342C196.678 291.1 176.561 304.479 148.631 304.479C123.436 304.479 104.686 293.541 92.3809 271.666C82.127 253.404 77 228.893 77 198.131C77 174.303 80.0762 153.844 86.2285 136.754C97.752 104.918 118.602 89 148.777 89ZM148.484 280.455C162.156 280.455 173.045 274.4 181.15 262.291C189.256 250.182 193.309 227.623 193.309 194.615C193.309 170.787 190.379 151.207 184.52 135.875C178.66 120.445 167.283 112.73 150.389 112.73C134.861 112.73 123.484 120.055 116.258 134.703C109.129 149.254 105.564 170.738 105.564 199.156C105.564 220.543 107.859 237.73 112.449 250.719C119.48 270.543 131.492 280.455 148.484 280.455Z" fill="url(#paint0_linear_415_147)"/>
<path d="M233.328 150.23V130.016C252.371 128.16 265.652 125.084 273.172 120.787C280.691 116.393 286.307 106.09 290.018 89.8789H310.818V298.766H282.693V150.23H233.328Z" fill="url(#paint1_linear_415_147)"/>
<path d="M148.777 315C175.926 315 195.555 326.182 207.664 348.545C217.039 365.83 221.727 389.512 221.727 419.59C221.727 448.105 217.479 471.689 208.982 490.342C196.678 517.1 176.561 530.479 148.631 530.479C123.436 530.479 104.686 519.541 92.3809 497.666C82.127 479.404 77 454.893 77 424.131C77 400.303 80.0762 379.844 86.2285 362.754C97.752 330.918 118.602 315 148.777 315ZM148.484 506.455C162.156 506.455 173.045 500.4 181.15 488.291C189.256 476.182 193.309 453.623 193.309 420.615C193.309 396.787 190.379 377.207 184.52 361.875C178.66 346.445 167.283 338.73 150.389 338.73C134.861 338.73 123.484 346.055 116.258 360.703C109.129 375.254 105.564 396.738 105.564 425.156C105.564 446.543 107.859 463.73 112.449 476.719C119.48 496.543 131.492 506.455 148.484 506.455Z" fill="url(#paint2_linear_415_147)"/>
<path d="M213.992 524.766C214.969 506.699 218.68 490.977 225.125 477.598C231.668 464.219 244.363 452.061 263.211 441.123L291.336 424.863C303.934 417.539 312.771 411.289 317.85 406.113C325.857 398.008 329.861 388.73 329.861 378.281C329.861 366.074 326.199 356.406 318.875 349.277C311.551 342.051 301.785 338.438 289.578 338.438C271.512 338.438 259.012 345.273 252.078 358.945C248.367 366.27 246.316 376.426 245.926 389.414H219.119C219.412 371.152 222.781 356.26 229.227 344.736C240.652 324.424 260.818 314.268 289.725 314.268C313.748 314.268 331.277 320.762 342.312 333.75C353.445 346.738 359.012 361.191 359.012 377.109C359.012 393.906 353.104 408.262 341.287 420.176C334.451 427.109 322.195 435.508 304.52 445.371L284.451 456.504C274.881 461.777 267.361 466.807 261.893 471.592C252.127 480.088 245.975 489.512 243.436 499.863H357.986V524.766H213.992Z" fill="url(#paint3_linear_415_147)"/>
<path d="M148.777 540C175.926 540 195.555 551.182 207.664 573.545C217.039 590.83 221.727 614.512 221.727 644.59C221.727 673.105 217.479 696.689 208.982 715.342C196.678 742.1 176.561 755.479 148.631 755.479C123.436 755.479 104.686 744.541 92.3809 722.666C82.127 704.404 77 679.893 77 649.131C77 625.303 80.0762 604.844 86.2285 587.754C97.752 555.918 118.602 540 148.777 540ZM148.484 731.455C162.156 731.455 173.045 725.4 181.15 713.291C189.256 701.182 193.309 678.623 193.309 645.615C193.309 621.787 190.379 602.207 184.52 586.875C178.66 571.445 167.283 563.73 150.389 563.73C134.861 563.73 123.484 571.055 116.258 585.703C109.129 600.254 105.564 621.738 105.564 650.156C105.564 671.543 107.859 688.73 112.449 701.719C119.48 721.543 131.492 731.455 148.484 731.455Z" fill="url(#paint4_linear_415_147)"/>
<path d="M282.547 755.479C257.742 755.479 239.725 748.691 228.494 735.117C217.361 721.445 211.795 704.844 211.795 685.312H239.334C240.506 698.887 243.045 708.75 246.951 714.902C253.787 725.938 266.141 731.455 284.012 731.455C297.879 731.455 309.012 727.744 317.41 720.322C325.809 712.9 330.008 703.33 330.008 691.611C330.008 677.158 325.564 667.051 316.678 661.289C307.889 655.527 295.633 652.646 279.91 652.646C278.152 652.646 276.346 652.695 274.49 652.793C272.732 652.793 270.926 652.842 269.07 652.939V629.648C271.805 629.941 274.1 630.137 275.955 630.234C277.811 630.332 279.812 630.381 281.961 630.381C291.824 630.381 299.93 628.818 306.277 625.693C317.41 620.225 322.977 610.459 322.977 596.396C322.977 585.947 319.266 577.891 311.844 572.227C304.422 566.562 295.779 563.73 285.916 563.73C268.338 563.73 256.18 569.59 249.441 581.309C245.73 587.754 243.631 596.934 243.143 608.848H217.068C217.068 593.223 220.193 579.941 226.443 569.004C237.186 549.473 256.082 539.707 283.133 539.707C304.52 539.707 321.072 544.492 332.791 554.062C344.51 563.535 350.369 577.305 350.369 595.371C350.369 608.262 346.902 618.711 339.969 626.719C335.672 631.699 330.105 635.605 323.27 638.438C334.305 641.465 342.898 647.324 349.051 656.016C355.301 664.609 358.426 675.156 358.426 687.656C358.426 707.676 351.834 723.984 338.65 736.582C325.467 749.18 306.766 755.479 282.547 755.479Z" fill="url(#paint5_linear_415_147)"/>
<path d="M148.777 779C175.926 779 195.555 790.182 207.664 812.545C217.039 829.83 221.727 853.512 221.727 883.59C221.727 912.105 217.479 935.689 208.982 954.342C196.678 981.1 176.561 994.479 148.631 994.479C123.436 994.479 104.686 983.541 92.3809 961.666C82.127 943.404 77 918.893 77 888.131C77 864.303 80.0762 843.844 86.2285 826.754C97.752 794.918 118.602 779 148.777 779ZM148.484 970.455C162.156 970.455 173.045 964.4 181.15 952.291C189.256 940.182 193.309 917.623 193.309 884.615C193.309 860.787 190.379 841.207 184.52 825.875C178.66 810.445 167.283 802.73 150.389 802.73C134.861 802.73 123.484 810.055 116.258 824.703C109.129 839.254 105.564 860.738 105.564 889.156C105.564 910.543 107.859 927.73 112.449 940.719C119.48 960.543 131.492 970.455 148.484 970.455Z" fill="url(#paint6_linear_415_147)"/>
<path d="M303.787 914.498V819.43L236.551 914.498H303.787ZM304.227 988.766V937.496H212.234V911.715L308.328 778.414H330.594V914.498H361.502V937.496H330.594V988.766H304.227Z" fill="url(#paint7_linear_415_147)"/>
</g>
<defs>
<linearGradient id="paint0_linear_415_147" x1="219.251" y1="89" x2="219.251" y2="994.479" gradientUnits="userSpaceOnUse">
<stop stop-color="#FA33D5"/>
<stop offset="1" stop-color="#2DFBF4"/>
</linearGradient>
<linearGradient id="paint1_linear_415_147" x1="219.251" y1="89" x2="219.251" y2="994.479" gradientUnits="userSpaceOnUse">
<stop stop-color="#FA33D5"/>
<stop offset="1" stop-color="#2DFBF4"/>
</linearGradient>
<linearGradient id="paint2_linear_415_147" x1="219.251" y1="89" x2="219.251" y2="994.479" gradientUnits="userSpaceOnUse">
<stop stop-color="#FA33D5"/>
<stop offset="1" stop-color="#2DFBF4"/>
</linearGradient>
<linearGradient id="paint3_linear_415_147" x1="219.251" y1="89" x2="219.251" y2="994.479" gradientUnits="userSpaceOnUse">
<stop stop-color="#FA33D5"/>
<stop offset="1" stop-color="#2DFBF4"/>
</linearGradient>
<linearGradient id="paint4_linear_415_147" x1="219.251" y1="89" x2="219.251" y2="994.479" gradientUnits="userSpaceOnUse">
<stop stop-color="#FA33D5"/>
<stop offset="1" stop-color="#2DFBF4"/>
</linearGradient>
<linearGradient id="paint5_linear_415_147" x1="219.251" y1="89" x2="219.251" y2="994.479" gradientUnits="userSpaceOnUse">
<stop stop-color="#FA33D5"/>
<stop offset="1" stop-color="#2DFBF4"/>
</linearGradient>
<linearGradient id="paint6_linear_415_147" x1="219.251" y1="89" x2="219.251" y2="994.479" gradientUnits="userSpaceOnUse">
<stop stop-color="#FA33D5"/>
<stop offset="1" stop-color="#2DFBF4"/>
</linearGradient>
<linearGradient id="paint7_linear_415_147" x1="219.251" y1="89" x2="219.251" y2="994.479" gradientUnits="userSpaceOnUse">
<stop stop-color="#FA33D5"/>
<stop offset="1" stop-color="#2DFBF4"/>
</linearGradient>
<clipPath id="clip0_415_147">
<rect width="627" height="886" fill="white"/>
</clipPath>
</defs>
</svg>
