<svg width="627" height="886" viewBox="0 0 627 886" fill="none" xmlns="http://www.w3.org/2000/svg">
<g clip-path="url(#clip0_415_228)">
<rect width="627" height="886" fill="#111111"/>
<path d="M464.559 423.533C468.27 423.533 471.867 424.412 475.35 426.17C478.833 427.895 481.486 430.141 483.309 432.908C485.066 435.545 486.238 438.621 486.824 442.137C487.345 444.546 487.605 448.387 487.605 453.66H449.275C449.438 458.966 450.691 463.23 453.035 466.453C455.379 469.643 459.008 471.238 463.924 471.238C468.514 471.238 472.176 469.725 474.91 466.697C476.473 464.939 477.579 462.905 478.23 460.594H486.873C486.645 462.514 485.88 464.663 484.578 467.039C483.309 469.383 481.876 471.303 480.281 472.801C477.612 475.405 474.308 477.163 470.369 478.074C468.253 478.595 465.861 478.855 463.191 478.855C456.681 478.855 451.163 476.495 446.639 471.775C442.114 467.023 439.852 460.382 439.852 451.854C439.852 443.455 442.13 436.635 446.688 431.395C451.245 426.154 457.202 423.533 464.559 423.533ZM478.572 446.678C478.214 442.869 477.384 439.826 476.082 437.547C473.673 433.315 469.653 431.199 464.021 431.199C459.985 431.199 456.6 432.664 453.865 435.594C451.131 438.491 449.682 442.186 449.52 446.678H478.572Z" fill="white"/>
<path d="M369.48 424.705H378.172V432.127C380.255 429.555 382.143 427.684 383.836 426.512C386.733 424.526 390.021 423.533 393.699 423.533C397.866 423.533 401.219 424.559 403.758 426.609C405.19 427.781 406.492 429.507 407.664 431.785C409.617 428.986 411.912 426.919 414.549 425.584C417.186 424.217 420.148 423.533 423.436 423.533C430.467 423.533 435.252 426.072 437.791 431.15C439.158 433.885 439.842 437.563 439.842 442.186V477H430.711V440.672C430.711 437.189 429.832 434.796 428.074 433.494C426.349 432.192 424.233 431.541 421.727 431.541C418.276 431.541 415.298 432.697 412.791 435.008C410.317 437.319 409.08 441.176 409.08 446.58V477H400.145V442.869C400.145 439.321 399.721 436.733 398.875 435.105C397.54 432.664 395.05 431.443 391.404 431.443C388.084 431.443 385.057 432.729 382.322 435.301C379.62 437.872 378.27 442.527 378.27 449.266V477H369.48V424.705Z" fill="white"/>
<path d="M344.568 471.336C350.395 471.336 354.383 469.139 356.531 464.744C358.712 460.317 359.803 455.402 359.803 449.998C359.803 445.115 359.021 441.144 357.459 438.084C354.985 433.266 350.721 430.857 344.666 430.857C339.295 430.857 335.389 432.908 332.947 437.01C330.506 441.111 329.285 446.059 329.285 451.854C329.285 457.42 330.506 462.059 332.947 465.77C335.389 469.48 339.262 471.336 344.568 471.336ZM344.91 423.191C351.648 423.191 357.345 425.438 362 429.93C366.655 434.422 368.982 441.03 368.982 449.754C368.982 458.185 366.932 465.151 362.83 470.652C358.729 476.154 352.365 478.904 343.738 478.904C336.544 478.904 330.831 476.479 326.6 471.629C322.368 466.746 320.252 460.203 320.252 452C320.252 443.211 322.482 436.212 326.941 431.004C331.401 425.796 337.391 423.191 344.91 423.191Z" fill="white"/>
<path d="M303.982 423.191C309.874 423.191 314.66 424.624 318.338 427.488C322.049 430.353 324.279 435.285 325.027 442.283H316.482C315.962 439.061 314.773 436.391 312.918 434.275C311.062 432.127 308.084 431.053 303.982 431.053C298.383 431.053 294.38 433.787 291.971 439.256C290.408 442.804 289.627 447.182 289.627 452.391C289.627 457.632 290.734 462.042 292.947 465.623C295.161 469.204 298.644 470.994 303.396 470.994C307.042 470.994 309.923 469.887 312.039 467.674C314.188 465.428 315.669 462.368 316.482 458.494H325.027C324.051 465.428 321.609 470.506 317.703 473.729C313.797 476.919 308.8 478.514 302.713 478.514C295.877 478.514 290.424 476.023 286.355 471.043C282.286 466.03 280.252 459.78 280.252 452.293C280.252 443.113 282.482 435.968 286.941 430.857C291.401 425.747 297.081 423.191 303.982 423.191Z" fill="white"/>
<path d="M271.795 405.271H280.584V477H271.795V405.271Z" fill="white"/>
<path d="M247.664 423.533C251.375 423.533 254.972 424.412 258.455 426.17C261.938 427.895 264.591 430.141 266.414 432.908C268.172 435.545 269.344 438.621 269.93 442.137C270.451 444.546 270.711 448.387 270.711 453.66H232.381C232.544 458.966 233.797 463.23 236.141 466.453C238.484 469.643 242.114 471.238 247.029 471.238C251.619 471.238 255.281 469.725 258.016 466.697C259.578 464.939 260.685 462.905 261.336 460.594H269.979C269.751 462.514 268.986 464.663 267.684 467.039C266.414 469.383 264.982 471.303 263.387 472.801C260.717 475.405 257.413 477.163 253.475 478.074C251.359 478.595 248.966 478.855 246.297 478.855C239.786 478.855 234.269 476.495 229.744 471.775C225.219 467.023 222.957 460.382 222.957 451.854C222.957 443.455 225.236 436.635 229.793 431.395C234.35 426.154 240.307 423.533 247.664 423.533ZM261.678 446.678C261.32 442.869 260.49 439.826 259.188 437.547C256.779 433.315 252.758 431.199 247.127 431.199C243.09 431.199 239.705 432.664 236.971 435.594C234.236 438.491 232.788 442.186 232.625 446.678H261.678Z" fill="white"/>
<path d="M149.119 405.271L162.645 463.621L178.855 405.271H189.402L205.613 463.621L219.139 405.271H229.783L210.936 477H200.73L184.178 417.527L167.527 477H157.322L138.572 405.271H149.119Z" fill="white"/>
<path d="M342.855 473.859C352.229 475.146 360.273 473.347 371.066 476.454C381.512 479.27 383.001 482.329 394.257 482.014C394.361 482.005 394.465 481.995 394.569 481.984C406.269 480.822 418.925 477.347 425.014 476.421C428.417 475.645 430.176 476.199 432.549 476.691C434.429 477.088 436.656 477.508 440.301 478.09C448.79 479.651 453.106 482.31 459.289 485.595C463.009 487.622 471.719 491.558 480.18 492.606C485.489 493.41 490.243 491.267 492.441 489.433C498.12 484.985 504.127 478.521 506.884 473.872C507.733 472.454 508.423 471.299 508.955 470.444C509.173 470.103 509.404 469.91 509.525 470.009C509.525 470.009 509.526 470.009 509.526 470.01C509.711 470.041 509.765 470.419 509.571 470.946C508.625 473.487 507.15 477.253 504.936 481.648C502.827 485.734 500.955 487.647 498.661 489.573C496.274 491.378 493.612 493.743 487.307 495.667C484.674 496.39 482.109 496.595 479.684 496.447C471.092 495.933 463.842 494.176 453.841 489.218C444.855 484.881 440.145 484.481 432.435 484.362C429.1 484.413 425.219 484.482 419.866 484.994C407.889 486.475 402.358 489.095 394.776 490.523C389.957 491.414 384.378 491.426 376.912 490.001C364.139 487.467 350.739 482.892 339.494 482.523C333.494 482.258 327.72 483.465 323.742 484.568C312.617 487.5 298.254 494.533 280.613 497.651C277.462 498.14 274.103 498.544 270.519 498.564C253.891 498.963 237.825 490.318 224.294 486.227C221.299 485.301 218.062 484.521 214.65 484.064C198.957 482.813 178.906 485.665 169.118 486.458C157.018 487.666 154.07 488.023 142.647 490.514C136.039 491.965 126.921 493.432 119.053 494.035C115.092 494.344 115.839 493.524 119.719 492.438C125.323 490.87 130.013 490.296 132.821 488.938C138.396 486.236 140.792 485.154 148.406 484.773C156.026 484.402 159.151 481.694 163.555 481.226C167.973 480.832 168.01 481.806 190.163 477.909C200.168 476.299 208.088 475.182 215.39 475.465C224.088 476.009 230.065 477.922 234.676 479.319C242.989 481.743 257.911 490.167 270.481 489.418C270.743 489.41 271.007 489.398 271.271 489.382C283.604 489.217 309.825 478.399 321.132 475.056C330.965 472.017 332.793 472.871 339.505 473.436C340.497 473.558 341.596 473.696 342.855 473.859Z" fill="url(#paint0_linear_415_228)"/>
<path d="M343.312 489.788C352.623 490.876 360.422 489.92 371.218 492.901C381.737 495.598 383.265 498.232 394.818 498.011C394.923 498.002 395.029 497.993 395.135 497.983C407.099 496.892 419.614 493.112 425.616 492.394C428.974 491.733 430.69 492.145 433.037 492.518C434.871 492.826 437.066 493.168 440.643 493.791C448.968 495.443 453.298 498.016 459.569 501.135C463.34 503.058 472.125 506.914 480.635 507.955C486.04 508.764 490.889 506.616 493.183 504.829C499.152 500.464 504.897 493.644 507.561 488.962C508.387 487.525 509.04 486.349 509.535 485.477C509.736 485.128 509.933 484.92 510.019 485.007C510.019 485.007 510.019 485.007 510.019 485.007C510.161 485.023 510.174 485.382 509.975 485.906C509.006 488.429 507.461 492.163 505.128 496.435C502.911 500.402 501.078 502.283 498.832 504.202C496.504 505.998 493.881 508.368 487.698 510.177C485.12 510.853 482.62 511.015 480.263 510.835C471.765 510.173 464.697 508.303 454.641 503.502C445.587 499.307 440.993 498.474 432.951 498.271C429.557 498.297 425.57 498.405 420.18 499.068C408.17 500.875 402.702 503.221 395.207 504.392C390.527 505.123 385.112 505.007 377.722 503.553C365.08 500.974 351.467 496.51 339.996 496.267C333.778 496.079 327.971 497.368 323.947 498.464C312.718 501.387 298.272 508.323 280.901 511.5C277.802 512.002 274.504 512.404 271.014 512.423C254.75 512.832 238.914 504.14 225.076 500.123C222.024 499.223 218.718 498.469 215.238 498.048C199.223 496.982 179.351 500.051 169.544 500.989C157.467 502.377 154.528 502.773 143.082 505.157C136.462 506.545 127.351 508.072 119.527 508.904C115.588 509.329 116.368 508.669 120.263 507.66C125.887 506.204 130.563 505.556 133.407 504.399C139.055 502.099 141.476 501.172 149.044 500.558C156.62 499.953 159.833 497.778 164.222 497.249C168.622 496.795 168.623 497.453 190.772 493.804C200.755 492.304 208.703 491.273 215.793 491.599C224.323 492.192 230.201 494.103 234.764 495.519C242.952 497.948 258.084 506.223 270.986 505.564C271.257 505.557 271.529 505.547 271.801 505.533C284.567 505.425 310.747 494.47 321.974 491.334C331.727 488.462 333.437 489.084 340.004 489.452C340.981 489.544 342.067 489.652 343.312 489.788Z" fill="url(#paint1_linear_415_228)"/>
<path d="M343.255 503.027C352.482 503.848 359.954 504.017 370.755 506.83C381.369 509.369 382.951 511.435 394.899 511.339C395.006 511.331 395.114 511.323 395.222 511.314C407.539 510.319 419.867 506.133 425.751 505.691C429.049 505.183 430.709 505.406 433.021 505.621C434.793 505.809 436.945 506.047 440.433 506.725C448.54 508.499 452.889 510.957 459.274 513.854C463.114 515.641 472 519.388 480.575 520.419C486.108 521.236 491.085 519.081 493.506 517.358C499.862 513.102 505.256 505.809 507.797 501.081C508.591 499.619 509.197 498.417 509.641 497.52C509.82 497.161 509.971 496.934 510.011 497.004C510.011 497.004 510.011 497.004 510.011 497.004C510.095 496.999 510.052 497.334 509.846 497.852C508.848 500.351 507.21 504.042 504.717 508.151C502.357 511.959 500.575 513.797 498.395 515.707C496.144 517.491 493.573 519.867 487.553 521.523C485.047 522.137 482.635 522.243 480.368 522.019C471.996 521.159 465.17 519.14 455.04 514.548C445.897 510.542 441.458 509.132 432.973 508.817C429.501 508.809 425.371 508.969 419.932 509.833C407.878 512.074 402.494 514.057 395.115 514.884C390.621 515.403 385.426 515.115 378.136 513.622C365.669 510.983 351.77 506.668 339.998 506.593C333.489 506.507 327.638 507.905 323.554 508.993C312.185 511.902 297.63 518.709 280.619 521.965C277.587 522.484 274.372 522.884 271.008 522.901C255.228 523.324 239.701 514.571 225.453 510.652C222.325 509.785 218.927 509.067 215.354 508.693C198.911 507.872 179.277 511.233 169.446 512.364C157.399 513.991 154.472 514.441 142.996 516.68C136.358 517.986 127.257 519.592 119.493 520.73C115.583 521.309 116.408 520.862 120.321 519.956C125.973 518.651 130.628 517.902 133.522 517.014C139.268 515.25 141.722 514.53 149.228 513.604C156.745 512.687 160.076 511.224 164.444 510.614C168.82 510.08 168.774 510.315 190.917 506.998C200.871 505.644 208.856 504.728 215.663 505.11C223.968 505.77 229.716 507.679 234.214 509.12C242.237 511.555 257.649 519.632 270.992 519.091C271.275 519.087 271.559 519.079 271.842 519.068C285.185 519.036 311.31 507.899 322.431 505.039C332.075 502.388 333.63 502.701 340.002 502.807C340.961 502.858 342.028 502.927 343.255 503.027Z" fill="url(#paint2_linear_415_228)"/>
<path d="M343.212 515.957C352.376 516.577 359.602 517.59 370.407 520.276C381.094 522.697 382.715 524.338 394.96 524.336C395.068 524.328 395.178 524.321 395.288 524.313C407.869 523.389 420.057 518.899 425.853 518.664C429.106 518.271 430.723 518.352 433.008 518.448C434.735 518.546 436.855 518.706 440.275 519.426C448.218 521.291 452.581 523.663 459.053 526.393C462.944 528.077 471.906 531.744 480.53 532.768C486.159 533.589 491.232 531.43 493.748 529.755C500.395 525.581 505.525 517.932 507.975 513.171C508.744 511.69 509.315 510.468 509.72 509.552C509.883 509.185 509.999 508.944 510.004 509.002C510.004 509.002 510.004 509.002 510.004 509.002C510.045 508.98 509.96 509.298 509.75 509.812C508.73 512.293 507.021 515.952 504.409 519.937C501.941 523.627 500.198 525.432 498.067 527.336C495.874 529.111 493.343 531.492 487.444 533.033C484.992 533.601 482.647 533.664 480.447 533.408C472.168 532.398 465.525 530.267 455.34 525.832C446.129 521.969 441.807 520.124 432.989 519.727C429.459 519.693 425.223 519.892 419.746 520.907C407.658 523.474 402.338 525.184 395.046 525.754C390.691 526.112 385.66 525.696 378.447 524.174C366.111 521.489 351.997 517.286 339.999 517.337C333.273 517.329 327.389 518.808 323.259 519.889C311.785 522.788 297.149 529.498 280.408 532.815C277.427 533.346 274.273 533.744 271.003 533.761C255.587 534.193 240.29 525.393 225.735 521.549C222.551 520.706 219.083 520.016 215.442 519.677C198.677 519.041 179.221 522.619 169.372 523.896C157.348 525.702 154.43 526.192 142.931 528.323C136.281 529.566 127.187 531.231 119.467 532.599C115.58 533.293 116.437 533.007 120.365 532.178C126.037 530.985 130.678 530.162 133.608 529.474C139.428 528.113 141.906 527.548 149.366 526.388C156.839 525.238 160.258 524.308 164.611 523.638C168.969 523.043 168.887 522.962 191.026 519.893C200.958 518.649 208.972 517.82 215.565 518.244C223.702 518.953 229.352 520.86 233.801 522.32C241.7 524.76 257.323 532.689 270.997 532.236C271.289 532.234 271.581 532.228 271.873 532.219C285.647 532.244 311.732 520.971 322.773 518.317C332.337 515.832 333.774 515.914 340.001 515.823C340.946 515.844 341.999 515.883 343.212 515.957Z" fill="url(#paint3_linear_415_228)"/>
</g>
<defs>
<linearGradient id="paint0_linear_415_228" x1="116.5" y1="482.085" x2="509.5" y2="482.085" gradientUnits="userSpaceOnUse">
<stop stop-color="#EA45D6"/>
<stop offset="1" stop-color="#3BEDF3"/>
</linearGradient>
<linearGradient id="paint1_linear_415_228" x1="117" y1="497.085" x2="510" y2="497.085" gradientUnits="userSpaceOnUse">
<stop stop-color="#EA45D6"/>
<stop offset="1" stop-color="#3BEDF3"/>
</linearGradient>
<linearGradient id="paint2_linear_415_228" x1="117" y1="509.085" x2="510" y2="509.085" gradientUnits="userSpaceOnUse">
<stop stop-color="#EA45D6"/>
<stop offset="1" stop-color="#3BEDF3"/>
</linearGradient>
<linearGradient id="paint3_linear_415_228" x1="117" y1="521.085" x2="510" y2="521.085" gradientUnits="userSpaceOnUse">
<stop stop-color="#EA45D6"/>
<stop offset="1" stop-color="#3BEDF3"/>
</linearGradient>
<clipPath id="clip0_415_228">
<rect width="627" height="886" fill="white"/>
</clipPath>
</defs>
</svg>
