<svg width="627" height="886" viewBox="0 0 627 886" fill="none" xmlns="http://www.w3.org/2000/svg">
<g clip-path="url(#clip0_500_20)">
<rect width="627" height="886" fill="#111111"/>
<path d="M313.5 272C219.335 272 143 348.335 143 442.5C143 536.665 219.335 613 313.5 613C407.665 613 484 536.665 484 442.5C484 348.335 407.665 272 313.5 272Z" fill="url(#paint0_linear_500_20)"/>
<rect x="363" y="243" width="121" height="21" rx="4" fill="#3363FF"/>
<path d="M368.057 258V249.273H369.062V252.494H369.148C369.222 252.381 369.324 252.236 369.455 252.06C369.588 251.881 369.778 251.722 370.026 251.582C370.276 251.44 370.614 251.369 371.04 251.369C371.591 251.369 372.077 251.507 372.497 251.783C372.918 252.058 373.246 252.449 373.482 252.955C373.717 253.46 373.835 254.057 373.835 254.744C373.835 255.438 373.717 256.038 373.482 256.547C373.246 257.053 372.919 257.445 372.501 257.723C372.084 257.999 371.602 258.136 371.057 258.136C370.636 258.136 370.3 258.067 370.047 257.928C369.794 257.786 369.599 257.625 369.463 257.446C369.327 257.264 369.222 257.114 369.148 256.994H369.028V258H368.057ZM369.045 254.727C369.045 255.222 369.118 255.658 369.263 256.036C369.408 256.411 369.619 256.705 369.898 256.918C370.176 257.128 370.517 257.233 370.92 257.233C371.341 257.233 371.692 257.122 371.973 256.901C372.257 256.676 372.47 256.375 372.612 255.997C372.757 255.616 372.83 255.193 372.83 254.727C372.83 254.267 372.759 253.852 372.616 253.483C372.477 253.111 372.266 252.817 371.982 252.601C371.7 252.382 371.347 252.273 370.92 252.273C370.511 252.273 370.168 252.376 369.889 252.584C369.611 252.788 369.401 253.075 369.259 253.445C369.116 253.811 369.045 254.239 369.045 254.727ZM378.033 258.136C377.442 258.136 376.923 257.996 376.477 257.714C376.034 257.433 375.688 257.04 375.438 256.534C375.19 256.028 375.067 255.437 375.067 254.761C375.067 254.08 375.19 253.484 375.438 252.976C375.688 252.467 376.034 252.072 376.477 251.791C376.923 251.51 377.442 251.369 378.033 251.369C378.624 251.369 379.141 251.51 379.584 251.791C380.03 252.072 380.376 252.467 380.624 252.976C380.874 253.484 380.999 254.08 380.999 254.761C380.999 255.437 380.874 256.028 380.624 256.534C380.376 257.04 380.03 257.433 379.584 257.714C379.141 257.996 378.624 258.136 378.033 258.136ZM378.033 257.233C378.482 257.233 378.851 257.118 379.141 256.888C379.43 256.658 379.645 256.355 379.784 255.98C379.923 255.605 379.993 255.199 379.993 254.761C379.993 254.324 379.923 253.916 379.784 253.538C379.645 253.161 379.43 252.855 379.141 252.622C378.851 252.389 378.482 252.273 378.033 252.273C377.584 252.273 377.214 252.389 376.925 252.622C376.635 252.855 376.42 253.161 376.281 253.538C376.142 253.916 376.072 254.324 376.072 254.761C376.072 255.199 376.142 255.605 376.281 255.98C376.42 256.355 376.635 256.658 376.925 256.888C377.214 257.118 377.584 257.233 378.033 257.233ZM382.534 258V251.455H383.505V252.443H383.574C383.693 252.119 383.909 251.857 384.221 251.655C384.534 251.453 384.886 251.352 385.278 251.352C385.352 251.352 385.444 251.354 385.555 251.357C385.666 251.359 385.75 251.364 385.806 251.369V252.392C385.772 252.384 385.694 252.371 385.572 252.354C385.453 252.334 385.326 252.324 385.193 252.324C384.875 252.324 384.591 252.391 384.341 252.524C384.093 252.655 383.897 252.837 383.752 253.07C383.61 253.3 383.539 253.562 383.539 253.858V258H382.534ZM389.271 258.136C388.725 258.136 388.244 257.999 387.826 257.723C387.409 257.445 387.082 257.053 386.846 256.547C386.61 256.038 386.493 255.438 386.493 254.744C386.493 254.057 386.61 253.46 386.846 252.955C387.082 252.449 387.41 252.058 387.831 251.783C388.251 251.507 388.737 251.369 389.288 251.369C389.714 251.369 390.051 251.44 390.298 251.582C390.548 251.722 390.738 251.881 390.869 252.06C391.002 252.236 391.106 252.381 391.18 252.494H391.265V249.273H392.271V258H391.299V256.994H391.18C391.106 257.114 391.001 257.264 390.865 257.446C390.728 257.625 390.534 257.786 390.281 257.928C390.028 258.067 389.691 258.136 389.271 258.136ZM389.407 257.233C389.811 257.233 390.152 257.128 390.43 256.918C390.708 256.705 390.92 256.411 391.065 256.036C391.21 255.658 391.282 255.222 391.282 254.727C391.282 254.239 391.211 253.811 391.069 253.445C390.927 253.075 390.717 252.788 390.439 252.584C390.16 252.376 389.816 252.273 389.407 252.273C388.981 252.273 388.626 252.382 388.342 252.601C388.061 252.817 387.849 253.111 387.707 253.483C387.568 253.852 387.498 254.267 387.498 254.727C387.498 255.193 387.569 255.616 387.711 255.997C387.856 256.375 388.069 256.676 388.35 256.901C388.635 257.122 388.987 257.233 389.407 257.233ZM396.997 258.136C396.366 258.136 395.822 257.997 395.365 257.719C394.91 257.438 394.559 257.045 394.312 256.543C394.068 256.037 393.946 255.449 393.946 254.778C393.946 254.108 394.068 253.517 394.312 253.006C394.559 252.491 394.903 252.091 395.343 251.804C395.787 251.514 396.304 251.369 396.895 251.369C397.235 251.369 397.572 251.426 397.904 251.54C398.237 251.653 398.539 251.838 398.812 252.094C399.085 252.347 399.302 252.682 399.464 253.099C399.626 253.517 399.707 254.031 399.707 254.642V255.068H394.662V254.199H398.684C398.684 253.83 398.61 253.5 398.463 253.21C398.318 252.92 398.11 252.692 397.841 252.524C397.574 252.357 397.258 252.273 396.895 252.273C396.494 252.273 396.147 252.372 395.855 252.571C395.565 252.767 395.342 253.023 395.186 253.338C395.029 253.653 394.951 253.991 394.951 254.352V254.932C394.951 255.426 395.037 255.845 395.207 256.189C395.38 256.53 395.62 256.79 395.927 256.969C396.234 257.145 396.591 257.233 396.997 257.233C397.261 257.233 397.5 257.196 397.713 257.122C397.929 257.045 398.115 256.932 398.271 256.781C398.427 256.628 398.548 256.437 398.633 256.21L399.605 256.483C399.502 256.812 399.331 257.102 399.089 257.352C398.848 257.599 398.549 257.793 398.194 257.932C397.839 258.068 397.44 258.136 396.997 258.136ZM401.237 258V251.455H402.208V252.443H402.277C402.396 252.119 402.612 251.857 402.924 251.655C403.237 251.453 403.589 251.352 403.981 251.352C404.055 251.352 404.147 251.354 404.258 251.357C404.369 251.359 404.453 251.364 404.51 251.369V252.392C404.475 252.384 404.397 252.371 404.275 252.354C404.156 252.334 404.029 252.324 403.896 252.324C403.578 252.324 403.294 252.391 403.044 252.524C402.797 252.655 402.6 252.837 402.456 253.07C402.314 253.3 402.243 253.562 402.243 253.858V258H401.237ZM408.971 253.79V254.727H405.153V253.79H408.971ZM410.741 258V251.455H411.712V252.443H411.781C411.9 252.119 412.116 251.857 412.428 251.655C412.741 251.453 413.093 251.352 413.485 251.352C413.559 251.352 413.651 251.354 413.762 251.357C413.873 251.359 413.957 251.364 414.013 251.369V252.392C413.979 252.384 413.901 252.371 413.779 252.354C413.66 252.334 413.533 252.324 413.4 252.324C413.082 252.324 412.798 252.391 412.548 252.524C412.3 252.655 412.104 252.837 411.96 253.07C411.817 253.3 411.746 253.562 411.746 253.858V258H410.741ZM417.132 258.153C416.717 258.153 416.341 258.075 416.002 257.919C415.664 257.76 415.396 257.531 415.197 257.233C414.998 256.932 414.899 256.568 414.899 256.142C414.899 255.767 414.973 255.463 415.12 255.23C415.268 254.994 415.466 254.81 415.713 254.676C415.96 254.543 416.233 254.443 416.531 254.378C416.832 254.31 417.135 254.256 417.439 254.216C417.836 254.165 418.159 254.126 418.406 254.101C418.656 254.072 418.838 254.026 418.951 253.96C419.068 253.895 419.126 253.781 419.126 253.619V253.585C419.126 253.165 419.011 252.838 418.781 252.605C418.554 252.372 418.208 252.256 417.745 252.256C417.265 252.256 416.889 252.361 416.616 252.571C416.343 252.781 416.152 253.006 416.041 253.244L415.086 252.903C415.257 252.506 415.484 252.196 415.768 251.974C416.055 251.75 416.368 251.594 416.706 251.506C417.047 251.415 417.382 251.369 417.711 251.369C417.922 251.369 418.163 251.395 418.436 251.446C418.711 251.494 418.977 251.595 419.233 251.749C419.491 251.902 419.706 252.134 419.876 252.443C420.047 252.753 420.132 253.168 420.132 253.688V258H419.126V257.114H419.075C419.007 257.256 418.893 257.408 418.734 257.57C418.575 257.732 418.363 257.869 418.099 257.983C417.835 258.097 417.512 258.153 417.132 258.153ZM417.285 257.25C417.683 257.25 418.018 257.172 418.291 257.016C418.566 256.859 418.774 256.658 418.913 256.411C419.055 256.163 419.126 255.903 419.126 255.631V254.71C419.083 254.761 418.99 254.808 418.845 254.851C418.703 254.891 418.538 254.926 418.35 254.957C418.166 254.986 417.985 255.011 417.809 255.034C417.636 255.054 417.495 255.071 417.387 255.085C417.126 255.119 416.882 255.175 416.654 255.251C416.43 255.325 416.248 255.437 416.109 255.588C415.973 255.736 415.904 255.937 415.904 256.193C415.904 256.543 416.034 256.807 416.292 256.986C416.554 257.162 416.885 257.25 417.285 257.25ZM424.439 258.136C423.893 258.136 423.412 257.999 422.994 257.723C422.577 257.445 422.25 257.053 422.014 256.547C421.778 256.038 421.661 255.438 421.661 254.744C421.661 254.057 421.778 253.46 422.014 252.955C422.25 252.449 422.578 252.058 422.999 251.783C423.419 251.507 423.905 251.369 424.456 251.369C424.882 251.369 425.219 251.44 425.466 251.582C425.716 251.722 425.906 251.881 426.037 252.06C426.17 252.236 426.274 252.381 426.348 252.494H426.433V249.273H427.439V258H426.467V256.994H426.348C426.274 257.114 426.169 257.264 426.033 257.446C425.896 257.625 425.702 257.786 425.449 257.928C425.196 258.067 424.859 258.136 424.439 258.136ZM424.575 257.233C424.979 257.233 425.32 257.128 425.598 256.918C425.876 256.705 426.088 256.411 426.233 256.036C426.378 255.658 426.45 255.222 426.45 254.727C426.45 254.239 426.379 253.811 426.237 253.445C426.095 253.075 425.885 252.788 425.607 252.584C425.328 252.376 424.984 252.273 424.575 252.273C424.149 252.273 423.794 252.382 423.51 252.601C423.229 252.817 423.017 253.111 422.875 253.483C422.736 253.852 422.666 254.267 422.666 254.727C422.666 255.193 422.737 255.616 422.879 255.997C423.024 256.375 423.237 256.676 423.518 256.901C423.803 257.122 424.155 257.233 424.575 257.233ZM429.42 258V251.455H430.426V258H429.42ZM429.932 250.364C429.736 250.364 429.567 250.297 429.425 250.163C429.286 250.03 429.216 249.869 429.216 249.682C429.216 249.494 429.286 249.334 429.425 249.2C429.567 249.067 429.736 249 429.932 249C430.128 249 430.295 249.067 430.435 249.2C430.577 249.334 430.648 249.494 430.648 249.682C430.648 249.869 430.577 250.03 430.435 250.163C430.295 250.297 430.128 250.364 429.932 250.364ZM436.393 255.324V251.455H437.399V258H436.393V256.892H436.325C436.172 257.224 435.933 257.507 435.609 257.74C435.285 257.97 434.876 258.085 434.382 258.085C433.973 258.085 433.609 257.996 433.291 257.817C432.973 257.635 432.723 257.362 432.541 256.999C432.359 256.632 432.268 256.17 432.268 255.614V251.455H433.274V255.545C433.274 256.023 433.407 256.403 433.674 256.688C433.944 256.972 434.288 257.114 434.706 257.114C434.956 257.114 435.21 257.05 435.468 256.922C435.73 256.794 435.949 256.598 436.125 256.334C436.304 256.07 436.393 255.733 436.393 255.324ZM443.877 252.92L442.974 253.176C442.917 253.026 442.833 252.879 442.722 252.737C442.614 252.592 442.467 252.473 442.279 252.379C442.092 252.286 441.852 252.239 441.559 252.239C441.158 252.239 440.825 252.331 440.558 252.516C440.293 252.697 440.161 252.929 440.161 253.21C440.161 253.46 440.252 253.658 440.434 253.803C440.616 253.947 440.9 254.068 441.286 254.165L442.258 254.403C442.843 254.545 443.279 254.763 443.566 255.055C443.853 255.345 443.996 255.719 443.996 256.176C443.996 256.551 443.888 256.886 443.673 257.182C443.46 257.477 443.161 257.71 442.778 257.881C442.394 258.051 441.948 258.136 441.44 258.136C440.772 258.136 440.219 257.991 439.782 257.702C439.344 257.412 439.067 256.989 438.951 256.432L439.906 256.193C439.996 256.545 440.168 256.81 440.421 256.986C440.677 257.162 441.011 257.25 441.423 257.25C441.891 257.25 442.263 257.151 442.539 256.952C442.817 256.75 442.957 256.509 442.957 256.227C442.957 256 442.877 255.81 442.718 255.656C442.559 255.5 442.315 255.384 441.985 255.307L440.894 255.051C440.295 254.909 439.854 254.689 439.573 254.391C439.295 254.089 439.156 253.713 439.156 253.261C439.156 252.892 439.259 252.565 439.467 252.281C439.677 251.997 439.962 251.774 440.323 251.612C440.687 251.45 441.099 251.369 441.559 251.369C442.207 251.369 442.715 251.511 443.085 251.795C443.457 252.08 443.721 252.455 443.877 252.92ZM446.243 258.068C446.033 258.068 445.853 257.993 445.702 257.842C445.551 257.692 445.476 257.511 445.476 257.301C445.476 257.091 445.551 256.911 445.702 256.76C445.853 256.609 446.033 256.534 446.243 256.534C446.453 256.534 446.634 256.609 446.784 256.76C446.935 256.911 447.01 257.091 447.01 257.301C447.01 257.44 446.975 257.568 446.904 257.685C446.836 257.801 446.743 257.895 446.627 257.966C446.513 258.034 446.385 258.068 446.243 258.068ZM446.243 253.21C446.033 253.21 445.853 253.135 445.702 252.984C445.551 252.834 445.476 252.653 445.476 252.443C445.476 252.233 445.551 252.053 445.702 251.902C445.853 251.751 446.033 251.676 446.243 251.676C446.453 251.676 446.634 251.751 446.784 251.902C446.935 252.053 447.01 252.233 447.01 252.443C447.01 252.582 446.975 252.71 446.904 252.827C446.836 252.943 446.743 253.037 446.627 253.108C446.513 253.176 446.385 253.21 446.243 253.21ZM455.241 249.273V258H454.184V250.381H454.133L452.002 251.795V250.722L454.184 249.273H455.241ZM460.598 258.119C459.956 258.119 459.409 257.945 458.957 257.595C458.505 257.243 458.16 256.733 457.922 256.065C457.683 255.395 457.564 254.585 457.564 253.636C457.564 252.693 457.683 251.888 457.922 251.22C458.163 250.55 458.51 250.038 458.961 249.686C459.416 249.331 459.961 249.153 460.598 249.153C461.234 249.153 461.778 249.331 462.23 249.686C462.684 250.038 463.031 250.55 463.27 251.22C463.511 251.888 463.632 252.693 463.632 253.636C463.632 254.585 463.512 255.395 463.274 256.065C463.035 256.733 462.69 257.243 462.238 257.595C461.787 257.945 461.24 258.119 460.598 258.119ZM460.598 257.182C461.234 257.182 461.728 256.875 462.081 256.261C462.433 255.648 462.609 254.773 462.609 253.636C462.609 252.881 462.528 252.237 462.366 251.706C462.207 251.175 461.977 250.77 461.676 250.491C461.377 250.213 461.018 250.074 460.598 250.074C459.967 250.074 459.474 250.385 459.119 251.007C458.764 251.626 458.586 252.503 458.586 253.636C458.586 254.392 458.666 255.034 458.825 255.562C458.984 256.091 459.213 256.493 459.511 256.768C459.812 257.044 460.174 257.182 460.598 257.182ZM468.098 258.119C467.456 258.119 466.909 257.945 466.457 257.595C466.005 257.243 465.66 256.733 465.422 256.065C465.183 255.395 465.064 254.585 465.064 253.636C465.064 252.693 465.183 251.888 465.422 251.22C465.663 250.55 466.01 250.038 466.461 249.686C466.916 249.331 467.461 249.153 468.098 249.153C468.734 249.153 469.278 249.331 469.73 249.686C470.184 250.038 470.531 250.55 470.77 251.22C471.011 251.888 471.132 252.693 471.132 253.636C471.132 254.585 471.012 255.395 470.774 256.065C470.535 256.733 470.19 257.243 469.738 257.595C469.287 257.945 468.74 258.119 468.098 258.119ZM468.098 257.182C468.734 257.182 469.228 256.875 469.581 256.261C469.933 255.648 470.109 254.773 470.109 253.636C470.109 252.881 470.028 252.237 469.866 251.706C469.707 251.175 469.477 250.77 469.176 250.491C468.877 250.213 468.518 250.074 468.098 250.074C467.467 250.074 466.974 250.385 466.619 251.007C466.264 251.626 466.086 252.503 466.086 253.636C466.086 254.392 466.166 255.034 466.325 255.562C466.484 256.091 466.713 256.493 467.011 256.768C467.312 257.044 467.674 257.182 468.098 257.182ZM477.2 256.364V255.903C477.2 255.585 477.265 255.294 477.396 255.03C477.529 254.763 477.723 254.55 477.975 254.391C478.231 254.229 478.541 254.148 478.904 254.148C479.274 254.148 479.583 254.229 479.833 254.391C480.083 254.55 480.272 254.763 480.4 255.03C480.528 255.294 480.592 255.585 480.592 255.903V256.364C480.592 256.682 480.527 256.974 480.396 257.241C480.268 257.506 480.078 257.719 479.825 257.881C479.575 258.04 479.268 258.119 478.904 258.119C478.535 258.119 478.224 258.04 477.971 257.881C477.718 257.719 477.527 257.506 477.396 257.241C477.265 256.974 477.2 256.682 477.2 256.364ZM478.069 255.903V256.364C478.069 256.628 478.132 256.865 478.257 257.075C478.382 257.283 478.598 257.386 478.904 257.386C479.203 257.386 479.413 257.283 479.535 257.075C479.66 256.865 479.723 256.628 479.723 256.364V255.903C479.723 255.639 479.663 255.403 479.544 255.196C479.424 254.986 479.211 254.881 478.904 254.881C478.606 254.881 478.392 254.986 478.261 255.196C478.133 255.403 478.069 255.639 478.069 255.903ZM472.853 251.369V250.909C472.853 250.591 472.919 250.3 473.049 250.036C473.183 249.768 473.376 249.555 473.629 249.396C473.885 249.234 474.194 249.153 474.558 249.153C474.927 249.153 475.237 249.234 475.487 249.396C475.737 249.555 475.926 249.768 476.054 250.036C476.181 250.3 476.245 250.591 476.245 250.909V251.369C476.245 251.687 476.18 251.98 476.049 252.247C475.922 252.511 475.731 252.724 475.478 252.886C475.228 253.045 474.922 253.125 474.558 253.125C474.189 253.125 473.877 253.045 473.625 252.886C473.372 252.724 473.18 252.511 473.049 252.247C472.919 251.98 472.853 251.687 472.853 251.369ZM473.723 250.909V251.369C473.723 251.634 473.785 251.871 473.91 252.081C474.035 252.288 474.251 252.392 474.558 252.392C474.856 252.392 475.066 252.288 475.189 252.081C475.314 251.871 475.376 251.634 475.376 251.369V250.909C475.376 250.645 475.316 250.409 475.197 250.202C475.078 249.991 474.865 249.886 474.558 249.886C474.26 249.886 474.045 249.991 473.914 250.202C473.787 250.409 473.723 250.645 473.723 250.909ZM473.177 258L479.177 249.273H480.149L474.149 258H473.177Z" fill="white"/>
<rect x="165" y="219" width="319" height="21" rx="4" fill="#3363FF"/>
<path d="M171.057 234V225.273H172.062V228.494H172.148C172.222 228.381 172.324 228.236 172.455 228.06C172.588 227.881 172.778 227.722 173.026 227.582C173.276 227.44 173.614 227.369 174.04 227.369C174.591 227.369 175.077 227.507 175.497 227.783C175.918 228.058 176.246 228.449 176.482 228.955C176.717 229.46 176.835 230.057 176.835 230.744C176.835 231.438 176.717 232.038 176.482 232.547C176.246 233.053 175.919 233.445 175.501 233.723C175.084 233.999 174.602 234.136 174.057 234.136C173.636 234.136 173.3 234.067 173.047 233.928C172.794 233.786 172.599 233.625 172.463 233.446C172.327 233.264 172.222 233.114 172.148 232.994H172.028V234H171.057ZM172.045 230.727C172.045 231.222 172.118 231.658 172.263 232.036C172.408 232.411 172.619 232.705 172.898 232.918C173.176 233.128 173.517 233.233 173.92 233.233C174.341 233.233 174.692 233.122 174.973 232.901C175.257 232.676 175.47 232.375 175.612 231.997C175.757 231.616 175.83 231.193 175.83 230.727C175.83 230.267 175.759 229.852 175.616 229.483C175.477 229.111 175.266 228.817 174.982 228.601C174.7 228.382 174.347 228.273 173.92 228.273C173.511 228.273 173.168 228.376 172.889 228.584C172.611 228.788 172.401 229.075 172.259 229.445C172.116 229.811 172.045 230.239 172.045 230.727ZM180.3 234.153C179.885 234.153 179.509 234.075 179.17 233.919C178.832 233.76 178.564 233.531 178.365 233.233C178.166 232.932 178.067 232.568 178.067 232.142C178.067 231.767 178.141 231.463 178.288 231.23C178.436 230.994 178.634 230.81 178.881 230.676C179.128 230.543 179.401 230.443 179.699 230.378C180 230.31 180.303 230.256 180.607 230.216C181.004 230.165 181.327 230.126 181.574 230.101C181.824 230.072 182.006 230.026 182.119 229.96C182.236 229.895 182.294 229.781 182.294 229.619V229.585C182.294 229.165 182.179 228.838 181.949 228.605C181.722 228.372 181.376 228.256 180.913 228.256C180.433 228.256 180.057 228.361 179.784 228.571C179.511 228.781 179.32 229.006 179.209 229.244L178.254 228.903C178.425 228.506 178.652 228.196 178.936 227.974C179.223 227.75 179.536 227.594 179.874 227.506C180.214 227.415 180.55 227.369 180.879 227.369C181.089 227.369 181.331 227.395 181.604 227.446C181.879 227.494 182.145 227.595 182.401 227.749C182.659 227.902 182.874 228.134 183.044 228.443C183.214 228.753 183.3 229.168 183.3 229.688V234H182.294V233.114H182.243C182.175 233.256 182.061 233.408 181.902 233.57C181.743 233.732 181.531 233.869 181.267 233.983C181.003 234.097 180.68 234.153 180.3 234.153ZM180.453 233.25C180.851 233.25 181.186 233.172 181.459 233.016C181.734 232.859 181.942 232.658 182.081 232.411C182.223 232.163 182.294 231.903 182.294 231.631V230.71C182.251 230.761 182.158 230.808 182.013 230.851C181.871 230.891 181.706 230.926 181.518 230.957C181.334 230.986 181.153 231.011 180.977 231.034C180.804 231.054 180.663 231.071 180.555 231.085C180.294 231.119 180.05 231.175 179.822 231.251C179.598 231.325 179.416 231.437 179.277 231.588C179.141 231.736 179.072 231.937 179.072 232.193C179.072 232.543 179.202 232.807 179.46 232.986C179.722 233.162 180.053 233.25 180.453 233.25ZM187.794 234.136C187.181 234.136 186.652 233.991 186.209 233.702C185.766 233.412 185.425 233.013 185.186 232.504C184.948 231.996 184.828 231.415 184.828 230.761C184.828 230.097 184.951 229.51 185.195 229.001C185.442 228.49 185.786 228.091 186.226 227.804C186.669 227.514 187.186 227.369 187.777 227.369C188.238 227.369 188.652 227.455 189.022 227.625C189.391 227.795 189.694 228.034 189.929 228.341C190.165 228.648 190.311 229.006 190.368 229.415H189.363C189.286 229.116 189.115 228.852 188.851 228.622C188.59 228.389 188.238 228.273 187.794 228.273C187.402 228.273 187.059 228.375 186.763 228.58C186.471 228.781 186.242 229.067 186.077 229.436C185.915 229.803 185.834 230.233 185.834 230.727C185.834 231.233 185.914 231.673 186.073 232.048C186.235 232.423 186.462 232.714 186.755 232.922C187.05 233.129 187.397 233.233 187.794 233.233C188.056 233.233 188.293 233.188 188.506 233.097C188.719 233.006 188.9 232.875 189.047 232.705C189.195 232.534 189.3 232.33 189.363 232.091H190.368C190.311 232.477 190.171 232.825 189.946 233.135C189.725 233.442 189.431 233.686 189.064 233.868C188.701 234.047 188.277 234.136 187.794 234.136ZM192.776 231.614L192.759 230.369H192.963L195.827 227.455H197.071L194.02 230.54H193.935L192.776 231.614ZM191.838 234V225.273H192.844V234H191.838ZM195.998 234L193.441 230.761L194.157 230.062L197.276 234H195.998ZM200.738 236.591C200.252 236.591 199.835 236.528 199.485 236.403C199.136 236.281 198.845 236.119 198.612 235.918C198.382 235.719 198.199 235.506 198.062 235.278L198.863 234.716C198.954 234.835 199.069 234.972 199.208 235.125C199.348 235.281 199.538 235.416 199.779 235.53C200.024 235.646 200.343 235.705 200.738 235.705C201.267 235.705 201.703 235.577 202.047 235.321C202.39 235.065 202.562 234.665 202.562 234.119V232.79H202.477C202.403 232.909 202.298 233.057 202.162 233.233C202.028 233.406 201.835 233.561 201.582 233.697C201.332 233.831 200.994 233.898 200.568 233.898C200.039 233.898 199.565 233.773 199.145 233.523C198.727 233.273 198.396 232.909 198.152 232.432C197.91 231.955 197.789 231.375 197.789 230.693C197.789 230.023 197.907 229.439 198.143 228.942C198.379 228.442 198.707 228.055 199.127 227.783C199.548 227.507 200.034 227.369 200.585 227.369C201.011 227.369 201.349 227.44 201.599 227.582C201.852 227.722 202.045 227.881 202.179 228.06C202.315 228.236 202.42 228.381 202.494 228.494H202.596V227.455H203.568V234.188C203.568 234.75 203.44 235.207 203.184 235.56C202.931 235.915 202.591 236.175 202.162 236.339C201.735 236.507 201.261 236.591 200.738 236.591ZM200.704 232.994C201.108 232.994 201.449 232.902 201.727 232.717C202.005 232.533 202.217 232.267 202.362 231.92C202.507 231.574 202.579 231.159 202.579 230.676C202.579 230.205 202.508 229.788 202.366 229.428C202.224 229.067 202.014 228.784 201.735 228.58C201.457 228.375 201.113 228.273 200.704 228.273C200.278 228.273 199.923 228.381 199.639 228.597C199.358 228.812 199.146 229.102 199.004 229.466C198.865 229.83 198.795 230.233 198.795 230.676C198.795 231.131 198.866 231.533 199.008 231.882C199.153 232.229 199.366 232.501 199.647 232.7C199.931 232.896 200.284 232.994 200.704 232.994ZM205.409 234V227.455H206.38V228.443H206.449C206.568 228.119 206.784 227.857 207.096 227.655C207.409 227.453 207.761 227.352 208.153 227.352C208.227 227.352 208.319 227.354 208.43 227.357C208.541 227.359 208.625 227.364 208.681 227.369V228.392C208.647 228.384 208.569 228.371 208.447 228.354C208.328 228.334 208.201 228.324 208.068 228.324C207.75 228.324 207.466 228.391 207.216 228.524C206.968 228.655 206.772 228.837 206.627 229.07C206.485 229.3 206.414 229.562 206.414 229.858V234H205.409ZM212.333 234.136C211.743 234.136 211.224 233.996 210.778 233.714C210.335 233.433 209.988 233.04 209.738 232.534C209.491 232.028 209.368 231.437 209.368 230.761C209.368 230.08 209.491 229.484 209.738 228.976C209.988 228.467 210.335 228.072 210.778 227.791C211.224 227.51 211.743 227.369 212.333 227.369C212.924 227.369 213.441 227.51 213.885 227.791C214.331 228.072 214.677 228.467 214.924 228.976C215.174 229.484 215.299 230.08 215.299 230.761C215.299 231.437 215.174 232.028 214.924 232.534C214.677 233.04 214.331 233.433 213.885 233.714C213.441 233.996 212.924 234.136 212.333 234.136ZM212.333 233.233C212.782 233.233 213.152 233.118 213.441 232.888C213.731 232.658 213.946 232.355 214.085 231.98C214.224 231.605 214.294 231.199 214.294 230.761C214.294 230.324 214.224 229.916 214.085 229.538C213.946 229.161 213.731 228.855 213.441 228.622C213.152 228.389 212.782 228.273 212.333 228.273C211.885 228.273 211.515 228.389 211.225 228.622C210.936 228.855 210.721 229.161 210.582 229.538C210.443 229.916 210.373 230.324 210.373 230.761C210.373 231.199 210.443 231.605 210.582 231.98C210.721 232.355 210.936 232.658 211.225 232.888C211.515 233.118 211.885 233.233 212.333 233.233ZM220.96 231.324V227.455H221.965V234H220.96V232.892H220.891C220.738 233.224 220.499 233.507 220.175 233.74C219.852 233.97 219.442 234.085 218.948 234.085C218.539 234.085 218.175 233.996 217.857 233.817C217.539 233.635 217.289 233.362 217.107 232.999C216.925 232.632 216.835 232.17 216.835 231.614V227.455H217.84V231.545C217.84 232.023 217.974 232.403 218.241 232.688C218.511 232.972 218.854 233.114 219.272 233.114C219.522 233.114 219.776 233.05 220.035 232.922C220.296 232.794 220.515 232.598 220.691 232.334C220.87 232.07 220.96 231.733 220.96 231.324ZM224.813 230.062V234H223.807V227.455H224.779V228.477H224.864C225.017 228.145 225.25 227.878 225.563 227.676C225.875 227.472 226.279 227.369 226.773 227.369C227.216 227.369 227.604 227.46 227.936 227.642C228.269 227.821 228.527 228.094 228.712 228.46C228.897 228.824 228.989 229.284 228.989 229.841V234H227.983V229.909C227.983 229.395 227.85 228.994 227.583 228.707C227.316 228.418 226.949 228.273 226.483 228.273C226.162 228.273 225.875 228.342 225.623 228.482C225.373 228.621 225.175 228.824 225.03 229.091C224.885 229.358 224.813 229.682 224.813 230.062ZM233.298 234.136C232.753 234.136 232.271 233.999 231.854 233.723C231.436 233.445 231.109 233.053 230.874 232.547C230.638 232.038 230.52 231.438 230.52 230.744C230.52 230.057 230.638 229.46 230.874 228.955C231.109 228.449 231.438 228.058 231.858 227.783C232.278 227.507 232.764 227.369 233.315 227.369C233.741 227.369 234.078 227.44 234.325 227.582C234.575 227.722 234.766 227.881 234.896 228.06C235.03 228.236 235.134 228.381 235.207 228.494H235.293V225.273H236.298V234H235.327V232.994H235.207C235.134 233.114 235.028 233.264 234.892 233.446C234.756 233.625 234.561 233.786 234.308 233.928C234.055 234.067 233.719 234.136 233.298 234.136ZM233.435 233.233C233.838 233.233 234.179 233.128 234.457 232.918C234.736 232.705 234.947 232.411 235.092 232.036C235.237 231.658 235.31 231.222 235.31 230.727C235.31 230.239 235.239 229.811 235.097 229.445C234.955 229.075 234.744 228.788 234.466 228.584C234.188 228.376 233.844 228.273 233.435 228.273C233.009 228.273 232.653 228.382 232.369 228.601C232.088 228.817 231.876 229.111 231.734 229.483C231.595 229.852 231.526 230.267 231.526 230.727C231.526 231.193 231.597 231.616 231.739 231.997C231.884 232.375 232.097 232.676 232.378 232.901C232.662 233.122 233.014 233.233 233.435 233.233ZM239.013 234.068C238.803 234.068 238.622 233.993 238.472 233.842C238.321 233.692 238.246 233.511 238.246 233.301C238.246 233.091 238.321 232.911 238.472 232.76C238.622 232.609 238.803 232.534 239.013 232.534C239.223 232.534 239.403 232.609 239.554 232.76C239.705 232.911 239.78 233.091 239.78 233.301C239.78 233.44 239.744 233.568 239.673 233.685C239.605 233.801 239.513 233.895 239.396 233.966C239.283 234.034 239.155 234.068 239.013 234.068ZM239.013 229.21C238.803 229.21 238.622 229.135 238.472 228.984C238.321 228.834 238.246 228.653 238.246 228.443C238.246 228.233 238.321 228.053 238.472 227.902C238.622 227.751 238.803 227.676 239.013 227.676C239.223 227.676 239.403 227.751 239.554 227.902C239.705 228.053 239.78 228.233 239.78 228.443C239.78 228.582 239.744 228.71 239.673 228.827C239.605 228.943 239.513 229.037 239.396 229.108C239.283 229.176 239.155 229.21 239.013 229.21ZM245.965 225.273V234H244.96V225.273H245.965ZM247.807 234V227.455H248.813V234H247.807ZM248.319 226.364C248.123 226.364 247.953 226.297 247.811 226.163C247.672 226.03 247.603 225.869 247.603 225.682C247.603 225.494 247.672 225.334 247.811 225.2C247.953 225.067 248.123 225 248.319 225C248.515 225 248.682 225.067 248.821 225.2C248.963 225.334 249.034 225.494 249.034 225.682C249.034 225.869 248.963 226.03 248.821 226.163C248.682 226.297 248.515 226.364 248.319 226.364ZM251.661 230.062V234H250.655V227.455H251.626V228.477H251.712C251.865 228.145 252.098 227.878 252.411 227.676C252.723 227.472 253.126 227.369 253.621 227.369C254.064 227.369 254.452 227.46 254.784 227.642C255.116 227.821 255.375 228.094 255.56 228.46C255.744 228.824 255.837 229.284 255.837 229.841V234H254.831V229.909C254.831 229.395 254.697 228.994 254.43 228.707C254.163 228.418 253.797 228.273 253.331 228.273C253.01 228.273 252.723 228.342 252.47 228.482C252.22 228.621 252.023 228.824 251.878 229.091C251.733 229.358 251.661 229.682 251.661 230.062ZM260.419 234.136C259.788 234.136 259.244 233.997 258.787 233.719C258.332 233.438 257.981 233.045 257.734 232.543C257.49 232.037 257.368 231.449 257.368 230.778C257.368 230.108 257.49 229.517 257.734 229.006C257.981 228.491 258.325 228.091 258.765 227.804C259.208 227.514 259.725 227.369 260.316 227.369C260.657 227.369 260.994 227.426 261.326 227.54C261.659 227.653 261.961 227.838 262.234 228.094C262.507 228.347 262.724 228.682 262.886 229.099C263.048 229.517 263.129 230.031 263.129 230.642V231.068H258.083V230.199H262.106C262.106 229.83 262.032 229.5 261.885 229.21C261.74 228.92 261.532 228.692 261.262 228.524C260.995 228.357 260.68 228.273 260.316 228.273C259.916 228.273 259.569 228.372 259.277 228.571C258.987 228.767 258.764 229.023 258.608 229.338C258.451 229.653 258.373 229.991 258.373 230.352V230.932C258.373 231.426 258.458 231.845 258.629 232.189C258.802 232.53 259.042 232.79 259.349 232.969C259.656 233.145 260.012 233.233 260.419 233.233C260.683 233.233 260.922 233.196 261.135 233.122C261.35 233.045 261.537 232.932 261.693 232.781C261.849 232.628 261.97 232.437 262.055 232.21L263.027 232.483C262.924 232.812 262.752 233.102 262.511 233.352C262.27 233.599 261.971 233.793 261.616 233.932C261.261 234.068 260.862 234.136 260.419 234.136ZM266.585 234.153C266.17 234.153 265.794 234.075 265.456 233.919C265.118 233.76 264.849 233.531 264.65 233.233C264.451 232.932 264.352 232.568 264.352 232.142C264.352 231.767 264.426 231.463 264.574 231.23C264.721 230.994 264.919 230.81 265.166 230.676C265.413 230.543 265.686 230.443 265.984 230.378C266.285 230.31 266.588 230.256 266.892 230.216C267.289 230.165 267.612 230.126 267.859 230.101C268.109 230.072 268.291 230.026 268.404 229.96C268.521 229.895 268.579 229.781 268.579 229.619V229.585C268.579 229.165 268.464 228.838 268.234 228.605C268.007 228.372 267.662 228.256 267.199 228.256C266.718 228.256 266.342 228.361 266.069 228.571C265.797 228.781 265.605 229.006 265.494 229.244L264.539 228.903C264.71 228.506 264.937 228.196 265.221 227.974C265.508 227.75 265.821 227.594 266.159 227.506C266.5 227.415 266.835 227.369 267.164 227.369C267.375 227.369 267.616 227.395 267.889 227.446C268.164 227.494 268.43 227.595 268.686 227.749C268.944 227.902 269.159 228.134 269.329 228.443C269.5 228.753 269.585 229.168 269.585 229.688V234H268.579V233.114H268.528C268.46 233.256 268.346 233.408 268.187 233.57C268.028 233.732 267.816 233.869 267.552 233.983C267.288 234.097 266.966 234.153 266.585 234.153ZM266.738 233.25C267.136 233.25 267.471 233.172 267.744 233.016C268.02 232.859 268.227 232.658 268.366 232.411C268.508 232.163 268.579 231.903 268.579 231.631V230.71C268.537 230.761 268.443 230.808 268.298 230.851C268.156 230.891 267.991 230.926 267.804 230.957C267.619 230.986 267.439 231.011 267.262 231.034C267.089 231.054 266.949 231.071 266.841 231.085C266.579 231.119 266.335 231.175 266.108 231.251C265.883 231.325 265.701 231.437 265.562 231.588C265.426 231.736 265.358 231.937 265.358 232.193C265.358 232.543 265.487 232.807 265.745 232.986C266.007 233.162 266.338 233.25 266.738 233.25ZM271.42 234V227.455H272.392V228.443H272.46C272.58 228.119 272.795 227.857 273.108 227.655C273.42 227.453 273.773 227.352 274.165 227.352C274.239 227.352 274.331 227.354 274.442 227.357C274.553 227.359 274.636 227.364 274.693 227.369V228.392C274.659 228.384 274.581 228.371 274.459 228.354C274.339 228.334 274.213 228.324 274.08 228.324C273.761 228.324 273.477 228.391 273.227 228.524C272.98 228.655 272.784 228.837 272.639 229.07C272.497 229.3 272.426 229.562 272.426 229.858V234H271.42ZM279.155 229.79V230.727H275.337V229.79H279.155ZM283.566 236.591C283.081 236.591 282.663 236.528 282.314 236.403C281.964 236.281 281.673 236.119 281.44 235.918C281.21 235.719 281.027 235.506 280.89 235.278L281.691 234.716C281.782 234.835 281.897 234.972 282.037 235.125C282.176 235.281 282.366 235.416 282.608 235.53C282.852 235.646 283.172 235.705 283.566 235.705C284.095 235.705 284.531 235.577 284.875 235.321C285.218 235.065 285.39 234.665 285.39 234.119V232.79H285.305C285.231 232.909 285.126 233.057 284.99 233.233C284.856 233.406 284.663 233.561 284.41 233.697C284.16 233.831 283.822 233.898 283.396 233.898C282.868 233.898 282.393 233.773 281.973 233.523C281.555 233.273 281.224 232.909 280.98 232.432C280.738 231.955 280.618 231.375 280.618 230.693C280.618 230.023 280.735 229.439 280.971 228.942C281.207 228.442 281.535 228.055 281.956 227.783C282.376 227.507 282.862 227.369 283.413 227.369C283.839 227.369 284.177 227.44 284.427 227.582C284.68 227.722 284.873 227.881 285.007 228.06C285.143 228.236 285.248 228.381 285.322 228.494H285.424V227.455H286.396V234.188C286.396 234.75 286.268 235.207 286.012 235.56C285.76 235.915 285.419 236.175 284.99 236.339C284.564 236.507 284.089 236.591 283.566 236.591ZM283.532 232.994C283.936 232.994 284.277 232.902 284.555 232.717C284.833 232.533 285.045 232.267 285.19 231.92C285.335 231.574 285.407 231.159 285.407 230.676C285.407 230.205 285.336 229.788 285.194 229.428C285.052 229.067 284.842 228.784 284.564 228.58C284.285 228.375 283.941 228.273 283.532 228.273C283.106 228.273 282.751 228.381 282.467 228.597C282.186 228.812 281.974 229.102 281.832 229.466C281.693 229.83 281.623 230.233 281.623 230.676C281.623 231.131 281.694 231.533 281.836 231.882C281.981 232.229 282.194 232.501 282.475 232.7C282.76 232.896 283.112 232.994 283.532 232.994ZM288.237 234V227.455H289.208V228.443H289.277C289.396 228.119 289.612 227.857 289.924 227.655C290.237 227.453 290.589 227.352 290.981 227.352C291.055 227.352 291.147 227.354 291.258 227.357C291.369 227.359 291.453 227.364 291.51 227.369V228.392C291.475 228.384 291.397 228.371 291.275 228.354C291.156 228.334 291.029 228.324 290.896 228.324C290.578 228.324 290.294 228.391 290.044 228.524C289.797 228.655 289.6 228.837 289.456 229.07C289.314 229.3 289.243 229.562 289.243 229.858V234H288.237ZM294.628 234.153C294.213 234.153 293.837 234.075 293.499 233.919C293.161 233.76 292.892 233.531 292.693 233.233C292.494 232.932 292.395 232.568 292.395 232.142C292.395 231.767 292.469 231.463 292.616 231.23C292.764 230.994 292.962 230.81 293.209 230.676C293.456 230.543 293.729 230.443 294.027 230.378C294.328 230.31 294.631 230.256 294.935 230.216C295.332 230.165 295.655 230.126 295.902 230.101C296.152 230.072 296.334 230.026 296.447 229.96C296.564 229.895 296.622 229.781 296.622 229.619V229.585C296.622 229.165 296.507 228.838 296.277 228.605C296.05 228.372 295.705 228.256 295.241 228.256C294.761 228.256 294.385 228.361 294.112 228.571C293.839 228.781 293.648 229.006 293.537 229.244L292.582 228.903C292.753 228.506 292.98 228.196 293.264 227.974C293.551 227.75 293.864 227.594 294.202 227.506C294.543 227.415 294.878 227.369 295.207 227.369C295.418 227.369 295.659 227.395 295.932 227.446C296.207 227.494 296.473 227.595 296.729 227.749C296.987 227.902 297.202 228.134 297.372 228.443C297.543 228.753 297.628 229.168 297.628 229.688V234H296.622V233.114H296.571C296.503 233.256 296.389 233.408 296.23 233.57C296.071 233.732 295.859 233.869 295.595 233.983C295.331 234.097 295.009 234.153 294.628 234.153ZM294.781 233.25C295.179 233.25 295.514 233.172 295.787 233.016C296.063 232.859 296.27 232.658 296.409 232.411C296.551 232.163 296.622 231.903 296.622 231.631V230.71C296.58 230.761 296.486 230.808 296.341 230.851C296.199 230.891 296.034 230.926 295.847 230.957C295.662 230.986 295.482 231.011 295.305 231.034C295.132 231.054 294.991 231.071 294.884 231.085C294.622 231.119 294.378 231.175 294.151 231.251C293.926 231.325 293.744 231.437 293.605 231.588C293.469 231.736 293.401 231.937 293.401 232.193C293.401 232.543 293.53 232.807 293.788 232.986C294.05 233.162 294.381 233.25 294.781 233.25ZM301.935 234.136C301.39 234.136 300.908 233.999 300.49 233.723C300.073 233.445 299.746 233.053 299.51 232.547C299.275 232.038 299.157 231.438 299.157 230.744C299.157 230.057 299.275 229.46 299.51 228.955C299.746 228.449 300.074 228.058 300.495 227.783C300.915 227.507 301.401 227.369 301.952 227.369C302.378 227.369 302.715 227.44 302.962 227.582C303.212 227.722 303.402 227.881 303.533 228.06C303.667 228.236 303.77 228.381 303.844 228.494H303.929V225.273H304.935V234H303.963V232.994H303.844C303.77 233.114 303.665 233.264 303.529 233.446C303.392 233.625 303.198 233.786 302.945 233.928C302.692 234.067 302.355 234.136 301.935 234.136ZM302.071 233.233C302.475 233.233 302.816 233.128 303.094 232.918C303.373 232.705 303.584 232.411 303.729 232.036C303.874 231.658 303.946 231.222 303.946 230.727C303.946 230.239 303.875 229.811 303.733 229.445C303.591 229.075 303.381 228.788 303.103 228.584C302.824 228.376 302.48 228.273 302.071 228.273C301.645 228.273 301.29 228.382 301.006 228.601C300.725 228.817 300.513 229.111 300.371 229.483C300.232 229.852 300.162 230.267 300.162 230.727C300.162 231.193 300.233 231.616 300.375 231.997C300.52 232.375 300.733 232.676 301.015 232.901C301.299 233.122 301.651 233.233 302.071 233.233ZM306.917 234V227.455H307.922V234H306.917ZM307.428 226.364C307.232 226.364 307.063 226.297 306.921 226.163C306.782 226.03 306.712 225.869 306.712 225.682C306.712 225.494 306.782 225.334 306.921 225.2C307.063 225.067 307.232 225 307.428 225C307.624 225 307.792 225.067 307.931 225.2C308.073 225.334 308.144 225.494 308.144 225.682C308.144 225.869 308.073 226.03 307.931 226.163C307.792 226.297 307.624 226.364 307.428 226.364ZM312.509 234.136C311.878 234.136 311.334 233.997 310.876 233.719C310.422 233.438 310.071 233.045 309.824 232.543C309.58 232.037 309.457 231.449 309.457 230.778C309.457 230.108 309.58 229.517 309.824 229.006C310.071 228.491 310.415 228.091 310.855 227.804C311.298 227.514 311.815 227.369 312.406 227.369C312.747 227.369 313.084 227.426 313.416 227.54C313.749 227.653 314.051 227.838 314.324 228.094C314.597 228.347 314.814 228.682 314.976 229.099C315.138 229.517 315.219 230.031 315.219 230.642V231.068H310.173V230.199H314.196C314.196 229.83 314.122 229.5 313.974 229.21C313.83 228.92 313.622 228.692 313.352 228.524C313.085 228.357 312.77 228.273 312.406 228.273C312.006 228.273 311.659 228.372 311.366 228.571C311.077 228.767 310.854 229.023 310.697 229.338C310.541 229.653 310.463 229.991 310.463 230.352V230.932C310.463 231.426 310.548 231.845 310.719 232.189C310.892 232.53 311.132 232.79 311.439 232.969C311.746 233.145 312.102 233.233 312.509 233.233C312.773 233.233 313.011 233.196 313.224 233.122C313.44 233.045 313.626 232.932 313.783 232.781C313.939 232.628 314.06 232.437 314.145 232.21L315.116 232.483C315.014 232.812 314.842 233.102 314.601 233.352C314.359 233.599 314.061 233.793 313.706 233.932C313.351 234.068 312.952 234.136 312.509 234.136ZM317.754 230.062V234H316.749V227.455H317.72V228.477H317.805C317.959 228.145 318.192 227.878 318.504 227.676C318.817 227.472 319.22 227.369 319.714 227.369C320.158 227.369 320.545 227.46 320.878 227.642C321.21 227.821 321.469 228.094 321.653 228.46C321.838 228.824 321.93 229.284 321.93 229.841V234H320.925V229.909C320.925 229.395 320.791 228.994 320.524 228.707C320.257 228.418 319.891 228.273 319.425 228.273C319.104 228.273 318.817 228.342 318.564 228.482C318.314 228.621 318.116 228.824 317.972 229.091C317.827 229.358 317.754 229.682 317.754 230.062ZM326.615 227.455V228.307H323.223V227.455H326.615ZM324.211 225.886H325.217V232.125C325.217 232.409 325.258 232.622 325.341 232.764C325.426 232.903 325.534 232.997 325.664 233.045C325.798 233.091 325.939 233.114 326.086 233.114C326.197 233.114 326.288 233.108 326.359 233.097C326.43 233.082 326.487 233.071 326.529 233.062L326.734 233.966C326.666 233.991 326.571 234.017 326.449 234.043C326.326 234.071 326.172 234.085 325.984 234.085C325.7 234.085 325.422 234.024 325.149 233.902C324.879 233.78 324.654 233.594 324.475 233.344C324.299 233.094 324.211 232.778 324.211 232.398V225.886ZM328.485 230.318C328.485 229.244 328.625 228.257 328.903 227.357C329.184 226.453 329.585 225.622 330.105 224.864H330.991C330.787 225.145 330.595 225.491 330.416 225.903C330.24 226.312 330.085 226.763 329.951 227.254C329.818 227.743 329.713 228.249 329.636 228.771C329.562 229.294 329.525 229.81 329.525 230.318C329.525 230.994 329.591 231.68 329.721 232.376C329.852 233.072 330.028 233.719 330.25 234.315C330.471 234.912 330.718 235.398 330.991 235.773H330.105C329.585 235.014 329.184 234.185 328.903 233.284C328.625 232.381 328.485 231.392 328.485 230.318ZM335.305 234.119C334.663 234.119 334.116 233.945 333.664 233.595C333.212 233.243 332.867 232.733 332.629 232.065C332.39 231.395 332.271 230.585 332.271 229.636C332.271 228.693 332.39 227.888 332.629 227.22C332.87 226.55 333.217 226.038 333.668 225.686C334.123 225.331 334.668 225.153 335.305 225.153C335.941 225.153 336.485 225.331 336.937 225.686C337.391 226.038 337.738 226.55 337.977 227.22C338.218 227.888 338.339 228.693 338.339 229.636C338.339 230.585 338.219 231.395 337.981 232.065C337.742 232.733 337.397 233.243 336.945 233.595C336.494 233.945 335.947 234.119 335.305 234.119ZM335.305 233.182C335.941 233.182 336.435 232.875 336.788 232.261C337.14 231.648 337.316 230.773 337.316 229.636C337.316 228.881 337.235 228.237 337.073 227.706C336.914 227.175 336.684 226.77 336.383 226.491C336.085 226.213 335.725 226.074 335.305 226.074C334.674 226.074 334.181 226.385 333.826 227.007C333.471 227.626 333.293 228.503 333.293 229.636C333.293 230.392 333.373 231.034 333.532 231.562C333.691 232.091 333.92 232.493 334.218 232.768C334.519 233.044 334.881 233.182 335.305 233.182ZM342.447 234.136C341.901 234.136 341.42 233.999 341.002 233.723C340.585 233.445 340.258 233.053 340.022 232.547C339.786 232.038 339.668 231.438 339.668 230.744C339.668 230.057 339.786 229.46 340.022 228.955C340.258 228.449 340.586 228.058 341.006 227.783C341.427 227.507 341.913 227.369 342.464 227.369C342.89 227.369 343.227 227.44 343.474 227.582C343.724 227.722 343.914 227.881 344.045 228.06C344.178 228.236 344.282 228.381 344.356 228.494H344.441V225.273H345.447V234H344.475V232.994H344.356C344.282 233.114 344.177 233.264 344.04 233.446C343.904 233.625 343.71 233.786 343.457 233.928C343.204 234.067 342.867 234.136 342.447 234.136ZM342.583 233.233C342.987 233.233 343.327 233.128 343.606 232.918C343.884 232.705 344.096 232.411 344.241 232.036C344.386 231.658 344.458 231.222 344.458 230.727C344.458 230.239 344.387 229.811 344.245 229.445C344.103 229.075 343.893 228.788 343.614 228.584C343.336 228.376 342.992 228.273 342.583 228.273C342.157 228.273 341.802 228.382 341.518 228.601C341.237 228.817 341.025 229.111 340.883 229.483C340.744 229.852 340.674 230.267 340.674 230.727C340.674 231.193 340.745 231.616 340.887 231.997C341.032 232.375 341.245 232.676 341.526 232.901C341.81 233.122 342.163 233.233 342.583 233.233ZM350.173 234.136C349.542 234.136 348.998 233.997 348.54 233.719C348.086 233.438 347.735 233.045 347.488 232.543C347.244 232.037 347.121 231.449 347.121 230.778C347.121 230.108 347.244 229.517 347.488 229.006C347.735 228.491 348.079 228.091 348.519 227.804C348.962 227.514 349.479 227.369 350.07 227.369C350.411 227.369 350.748 227.426 351.08 227.54C351.413 227.653 351.715 227.838 351.988 228.094C352.261 228.347 352.478 228.682 352.64 229.099C352.802 229.517 352.883 230.031 352.883 230.642V231.068H347.837V230.199H351.86C351.86 229.83 351.786 229.5 351.638 229.21C351.494 228.92 351.286 228.692 351.016 228.524C350.749 228.357 350.434 228.273 350.07 228.273C349.67 228.273 349.323 228.372 349.031 228.571C348.741 228.767 348.518 229.023 348.362 229.338C348.205 229.653 348.127 229.991 348.127 230.352V230.932C348.127 231.426 348.212 231.845 348.383 232.189C348.556 232.53 348.796 232.79 349.103 232.969C349.41 233.145 349.766 233.233 350.173 233.233C350.437 233.233 350.675 233.196 350.888 233.122C351.104 233.045 351.29 232.932 351.447 232.781C351.603 232.628 351.724 232.437 351.809 232.21L352.781 232.483C352.678 232.812 352.506 233.102 352.265 233.352C352.023 233.599 351.725 233.793 351.37 233.932C351.015 234.068 350.616 234.136 350.173 234.136ZM357.055 236.591C356.569 236.591 356.151 236.528 355.802 236.403C355.452 236.281 355.161 236.119 354.928 235.918C354.698 235.719 354.515 235.506 354.379 235.278L355.18 234.716C355.271 234.835 355.386 234.972 355.525 235.125C355.664 235.281 355.854 235.416 356.096 235.53C356.34 235.646 356.66 235.705 357.055 235.705C357.583 235.705 358.019 235.577 358.363 235.321C358.707 235.065 358.879 234.665 358.879 234.119V232.79H358.793C358.719 232.909 358.614 233.057 358.478 233.233C358.344 233.406 358.151 233.561 357.898 233.697C357.648 233.831 357.31 233.898 356.884 233.898C356.356 233.898 355.881 233.773 355.461 233.523C355.043 233.273 354.712 232.909 354.468 232.432C354.227 231.955 354.106 231.375 354.106 230.693C354.106 230.023 354.224 229.439 354.46 228.942C354.695 228.442 355.023 228.055 355.444 227.783C355.864 227.507 356.35 227.369 356.901 227.369C357.327 227.369 357.665 227.44 357.915 227.582C358.168 227.722 358.362 227.881 358.495 228.06C358.631 228.236 358.737 228.381 358.81 228.494H358.913V227.455H359.884V234.188C359.884 234.75 359.756 235.207 359.501 235.56C359.248 235.915 358.907 236.175 358.478 236.339C358.052 236.507 357.577 236.591 357.055 236.591ZM357.021 232.994C357.424 232.994 357.765 232.902 358.043 232.717C358.322 232.533 358.533 232.267 358.678 231.92C358.823 231.574 358.896 231.159 358.896 230.676C358.896 230.205 358.825 229.788 358.683 229.428C358.54 229.067 358.33 228.784 358.052 228.58C357.773 228.375 357.43 228.273 357.021 228.273C356.594 228.273 356.239 228.381 355.955 228.597C355.674 228.812 355.462 229.102 355.32 229.466C355.181 229.83 355.112 230.233 355.112 230.676C355.112 231.131 355.183 231.533 355.325 231.882C355.469 232.229 355.683 232.501 355.964 232.7C356.248 232.896 356.6 232.994 357.021 232.994ZM363.225 232.807L363.157 233.267C363.109 233.591 363.035 233.938 362.935 234.307C362.839 234.676 362.738 235.024 362.633 235.351C362.528 235.678 362.441 235.938 362.373 236.131H361.606C361.643 235.949 361.691 235.709 361.751 235.411C361.81 235.112 361.87 234.778 361.93 234.409C361.992 234.043 362.043 233.668 362.083 233.284L362.134 232.807H363.225ZM371.719 234L373.151 225.273H374.003L372.571 234H371.719ZM367.748 231.58L367.884 230.727H374.395L374.259 231.58H367.748ZM368.651 234L370.083 225.273H370.935L369.503 234H368.651ZM368.259 228.545L368.395 227.693H374.907L374.77 228.545H368.259ZM376.17 234V225.273H381.403V226.21H377.227V229.159H381.011V230.097H377.227V234H376.17ZM385.906 234H383.213V225.273H386.026C386.872 225.273 387.597 225.447 388.199 225.797C388.801 226.143 389.263 226.642 389.584 227.293C389.905 227.94 390.065 228.716 390.065 229.619C390.065 230.528 389.903 231.311 389.58 231.967C389.256 232.621 388.784 233.124 388.165 233.476C387.545 233.825 386.793 234 385.906 234ZM384.27 233.062H385.838C386.56 233.062 387.158 232.923 387.632 232.645C388.107 232.366 388.46 231.97 388.693 231.456C388.926 230.942 389.043 230.33 389.043 229.619C389.043 228.915 388.928 228.308 388.697 227.8C388.467 227.288 388.124 226.896 387.666 226.624C387.209 226.348 386.639 226.21 385.957 226.21H384.27V233.062ZM394.48 234.119C393.895 234.119 393.378 234.016 392.929 233.808C392.483 233.598 392.135 233.31 391.885 232.943C391.635 232.574 391.511 232.153 391.514 231.682C391.511 231.312 391.584 230.972 391.732 230.659C391.879 230.344 392.081 230.081 392.337 229.871C392.595 229.658 392.884 229.523 393.202 229.466V229.415C392.784 229.307 392.452 229.072 392.205 228.712C391.957 228.348 391.835 227.935 391.838 227.472C391.835 227.028 391.947 226.632 392.175 226.283C392.402 225.933 392.714 225.658 393.112 225.456C393.513 225.254 393.969 225.153 394.48 225.153C394.986 225.153 395.438 225.254 395.835 225.456C396.233 225.658 396.545 225.933 396.773 226.283C397.003 226.632 397.119 227.028 397.122 227.472C397.119 227.935 396.993 228.348 396.743 228.712C396.496 229.072 396.168 229.307 395.759 229.415V229.466C396.074 229.523 396.358 229.658 396.611 229.871C396.864 230.081 397.065 230.344 397.216 230.659C397.366 230.972 397.443 231.312 397.446 231.682C397.443 232.153 397.315 232.574 397.062 232.943C396.812 233.31 396.464 233.598 396.018 233.808C395.575 234.016 395.063 234.119 394.48 234.119ZM394.48 233.182C394.875 233.182 395.216 233.118 395.503 232.99C395.79 232.862 396.011 232.682 396.168 232.449C396.324 232.216 396.403 231.943 396.406 231.631C396.403 231.301 396.318 231.01 396.151 230.757C395.983 230.504 395.754 230.305 395.464 230.161C395.178 230.016 394.849 229.943 394.48 229.943C394.108 229.943 393.776 230.016 393.483 230.161C393.193 230.305 392.964 230.504 392.797 230.757C392.632 231.01 392.551 231.301 392.554 231.631C392.551 231.943 392.626 232.216 392.78 232.449C392.936 232.682 393.159 232.862 393.449 232.99C393.739 233.118 394.082 233.182 394.48 233.182ZM394.48 229.04C394.793 229.04 395.07 228.977 395.311 228.852C395.555 228.727 395.747 228.553 395.886 228.328C396.026 228.104 396.097 227.841 396.099 227.54C396.097 227.244 396.027 226.987 395.891 226.768C395.754 226.547 395.565 226.376 395.324 226.257C395.082 226.135 394.801 226.074 394.48 226.074C394.153 226.074 393.868 226.135 393.624 226.257C393.379 226.376 393.19 226.547 393.057 226.768C392.923 226.987 392.858 227.244 392.861 227.54C392.858 227.841 392.925 228.104 393.061 228.328C393.2 228.553 393.392 228.727 393.636 228.852C393.881 228.977 394.162 229.04 394.48 229.04ZM402.147 225.273V234H401.091V226.381H401.039L398.909 227.795V226.722L401.091 225.273H402.147ZM407.606 234.119C407.044 234.119 406.542 234.023 406.102 233.83C405.664 233.636 405.316 233.368 405.058 233.024C404.802 232.678 404.663 232.276 404.64 231.818H405.714C405.737 232.099 405.833 232.342 406.004 232.547C406.174 232.749 406.397 232.905 406.673 233.016C406.949 233.126 407.254 233.182 407.589 233.182C407.964 233.182 408.297 233.116 408.586 232.986C408.876 232.855 409.103 232.673 409.268 232.44C409.433 232.207 409.515 231.938 409.515 231.631C409.515 231.31 409.436 231.027 409.277 230.783C409.118 230.536 408.885 230.342 408.578 230.203C408.271 230.064 407.896 229.994 407.453 229.994H406.754V229.057H407.453C407.799 229.057 408.103 228.994 408.365 228.869C408.629 228.744 408.835 228.568 408.983 228.341C409.133 228.114 409.208 227.847 409.208 227.54C409.208 227.244 409.143 226.987 409.012 226.768C408.882 226.55 408.697 226.379 408.458 226.257C408.223 226.135 407.944 226.074 407.623 226.074C407.322 226.074 407.038 226.129 406.771 226.24C406.507 226.348 406.291 226.506 406.123 226.713C405.956 226.918 405.865 227.165 405.85 227.455H404.828C404.845 226.997 404.983 226.597 405.241 226.253C405.5 225.906 405.838 225.636 406.255 225.443C406.676 225.25 407.137 225.153 407.64 225.153C408.18 225.153 408.643 225.263 409.029 225.482C409.416 225.697 409.713 225.983 409.92 226.338C410.127 226.693 410.231 227.077 410.231 227.489C410.231 227.98 410.102 228.399 409.843 228.746C409.588 229.092 409.24 229.332 408.799 229.466V229.534C409.35 229.625 409.781 229.859 410.091 230.237C410.4 230.612 410.555 231.077 410.555 231.631C410.555 232.105 410.426 232.531 410.167 232.909C409.912 233.284 409.562 233.58 409.119 233.795C408.676 234.011 408.172 234.119 407.606 234.119ZM412.451 234V225.273H417.718V226.21H413.508V229.159H417.446V230.097H413.508V233.062H417.787V234H412.451ZM420.987 232.807L420.919 233.267C420.87 233.591 420.797 233.938 420.697 234.307C420.6 234.676 420.5 235.024 420.395 235.351C420.289 235.678 420.203 235.938 420.135 236.131H419.368C419.404 235.949 419.453 235.709 419.512 235.411C419.572 235.112 419.632 234.778 419.691 234.409C419.754 234.043 419.805 233.668 419.845 233.284L419.896 232.807H420.987ZM429.481 234L430.913 225.273H431.765L430.333 234H429.481ZM425.509 231.58L425.646 230.727H432.157L432.021 231.58H425.509ZM426.413 234L427.844 225.273H428.697L427.265 234H426.413ZM426.021 228.545L426.157 227.693H432.668L432.532 228.545H426.021ZM433.932 234V225.273H439.165V226.21H434.989V229.159H438.773V230.097H434.989V234H433.932ZM443.668 234.119C443.026 234.119 442.479 233.945 442.027 233.595C441.576 233.243 441.23 232.733 440.992 232.065C440.753 231.395 440.634 230.585 440.634 229.636C440.634 228.693 440.753 227.888 440.992 227.22C441.233 226.55 441.58 226.038 442.032 225.686C442.486 225.331 443.032 225.153 443.668 225.153C444.304 225.153 444.848 225.331 445.3 225.686C445.755 226.038 446.101 226.55 446.34 227.22C446.581 227.888 446.702 228.693 446.702 229.636C446.702 230.585 446.583 231.395 446.344 232.065C446.105 232.733 445.76 233.243 445.309 233.595C444.857 233.945 444.31 234.119 443.668 234.119ZM443.668 233.182C444.304 233.182 444.799 232.875 445.151 232.261C445.503 231.648 445.679 230.773 445.679 229.636C445.679 228.881 445.598 228.237 445.436 227.706C445.277 227.175 445.047 226.77 444.746 226.491C444.448 226.213 444.088 226.074 443.668 226.074C443.037 226.074 442.544 226.385 442.189 227.007C441.834 227.626 441.657 228.503 441.657 229.636C441.657 230.392 441.736 231.034 441.895 231.562C442.054 232.091 442.283 232.493 442.581 232.768C442.882 233.044 443.245 233.182 443.668 233.182ZM451.27 234.119C450.708 234.119 450.206 234.023 449.766 233.83C449.328 233.636 448.98 233.368 448.722 233.024C448.466 232.678 448.327 232.276 448.304 231.818H449.378C449.401 232.099 449.498 232.342 449.668 232.547C449.838 232.749 450.061 232.905 450.337 233.016C450.613 233.126 450.918 233.182 451.253 233.182C451.628 233.182 451.961 233.116 452.25 232.986C452.54 232.855 452.767 232.673 452.932 232.44C453.097 232.207 453.179 231.938 453.179 231.631C453.179 231.31 453.1 231.027 452.941 230.783C452.782 230.536 452.549 230.342 452.242 230.203C451.935 230.064 451.56 229.994 451.117 229.994H450.418V229.057H451.117C451.463 229.057 451.767 228.994 452.029 228.869C452.293 228.744 452.499 228.568 452.647 228.341C452.797 228.114 452.873 227.847 452.873 227.54C452.873 227.244 452.807 226.987 452.676 226.768C452.546 226.55 452.361 226.379 452.123 226.257C451.887 226.135 451.608 226.074 451.287 226.074C450.986 226.074 450.702 226.129 450.435 226.24C450.171 226.348 449.955 226.506 449.787 226.713C449.62 226.918 449.529 227.165 449.515 227.455H448.492C448.509 226.997 448.647 226.597 448.905 226.253C449.164 225.906 449.502 225.636 449.919 225.443C450.34 225.25 450.801 225.153 451.304 225.153C451.844 225.153 452.307 225.263 452.694 225.482C453.08 225.697 453.377 225.983 453.584 226.338C453.792 226.693 453.895 227.077 453.895 227.489C453.895 227.98 453.766 228.399 453.507 228.746C453.252 229.092 452.904 229.332 452.463 229.466V229.534C453.015 229.625 453.445 229.859 453.755 230.237C454.064 230.612 454.219 231.077 454.219 231.631C454.219 232.105 454.09 232.531 453.831 232.909C453.576 233.284 453.226 233.58 452.783 233.795C452.34 234.011 451.836 234.119 451.27 234.119ZM456.115 234V225.273H461.382V226.21H457.172V229.159H461.11V230.097H457.172V233.062H461.451V234H456.115ZM463.287 234V225.273H468.554V226.21H464.344V229.159H468.282V230.097H464.344V233.062H468.623V234H463.287ZM470.101 232.21V231.341L473.936 225.273H474.567V226.619H474.141L471.243 231.205V231.273H476.408V232.21H470.101ZM474.209 234V231.946V231.541V225.273H475.215V234H474.209ZM480.17 229.636C480.17 230.71 480.029 231.699 479.748 232.602C479.469 233.503 479.07 234.332 478.55 235.091H477.664C477.869 234.81 478.059 234.463 478.235 234.051C478.414 233.642 478.57 233.193 478.704 232.705C478.837 232.213 478.941 231.706 479.015 231.183C479.092 230.658 479.13 230.142 479.13 229.636C479.13 228.96 479.065 228.274 478.934 227.578C478.803 226.882 478.627 226.236 478.406 225.639C478.184 225.043 477.937 224.557 477.664 224.182H478.55C479.07 224.94 479.469 225.771 479.748 226.675C480.029 227.575 480.17 228.562 480.17 229.636Z" fill="white"/>
<rect x="142" y="271" width="343" height="343" rx="6" stroke="#3363FF" stroke-width="2"/>
<rect x="141" y="619" width="82" height="21" rx="4" fill="#3363FF"/>
<path d="M148.403 634L146.409 627.455H147.466L148.881 632.466H148.949L150.347 627.455H151.42L152.801 632.449H152.869L154.284 627.455H155.341L153.347 634H152.358L150.926 628.972H150.824L149.392 634H148.403ZM156.67 634V627.455H157.676V634H156.67ZM157.182 626.364C156.986 626.364 156.817 626.297 156.675 626.163C156.536 626.03 156.466 625.869 156.466 625.682C156.466 625.494 156.536 625.334 156.675 625.2C156.817 625.067 156.986 625 157.182 625C157.378 625 157.545 625.067 157.685 625.2C157.827 625.334 157.898 625.494 157.898 625.682C157.898 625.869 157.827 626.03 157.685 626.163C157.545 626.297 157.378 626.364 157.182 626.364ZM161.99 634.136C161.444 634.136 160.963 633.999 160.545 633.723C160.127 633.445 159.801 633.053 159.565 632.547C159.329 632.038 159.211 631.438 159.211 630.744C159.211 630.057 159.329 629.46 159.565 628.955C159.801 628.449 160.129 628.058 160.549 627.783C160.97 627.507 161.456 627.369 162.007 627.369C162.433 627.369 162.77 627.44 163.017 627.582C163.267 627.722 163.457 627.881 163.588 628.06C163.721 628.236 163.825 628.381 163.899 628.494H163.984V625.273H164.99V634H164.018V632.994H163.899C163.825 633.114 163.72 633.264 163.583 633.446C163.447 633.625 163.252 633.786 163 633.928C162.747 634.067 162.41 634.136 161.99 634.136ZM162.126 633.233C162.529 633.233 162.87 633.128 163.149 632.918C163.427 632.705 163.639 632.411 163.784 632.036C163.929 631.658 164.001 631.222 164.001 630.727C164.001 630.239 163.93 629.811 163.788 629.445C163.646 629.075 163.436 628.788 163.157 628.584C162.879 628.376 162.535 628.273 162.126 628.273C161.7 628.273 161.345 628.382 161.061 628.601C160.779 628.817 160.568 629.111 160.426 629.483C160.287 629.852 160.217 630.267 160.217 630.727C160.217 631.193 160.288 631.616 160.43 631.997C160.575 632.375 160.788 632.676 161.069 632.901C161.353 633.122 161.706 633.233 162.126 633.233ZM169.818 627.455V628.307H166.426V627.455H169.818ZM167.414 625.886H168.42V632.125C168.42 632.409 168.461 632.622 168.544 632.764C168.629 632.903 168.737 632.997 168.868 633.045C169.001 633.091 169.142 633.114 169.289 633.114C169.4 633.114 169.491 633.108 169.562 633.097C169.633 633.082 169.69 633.071 169.733 633.062L169.937 633.966C169.869 633.991 169.774 634.017 169.652 634.043C169.529 634.071 169.375 634.085 169.187 634.085C168.903 634.085 168.625 634.024 168.352 633.902C168.082 633.78 167.858 633.594 167.679 633.344C167.502 633.094 167.414 632.778 167.414 632.398V625.886ZM172.477 630.062V634H171.471V625.273H172.477V628.477H172.562C172.716 628.139 172.946 627.871 173.252 627.672C173.562 627.47 173.974 627.369 174.488 627.369C174.934 627.369 175.325 627.459 175.66 627.638C175.995 627.814 176.255 628.085 176.44 628.452C176.627 628.815 176.721 629.278 176.721 629.841V634H175.716V629.909C175.716 629.389 175.581 628.987 175.311 628.703C175.044 628.416 174.673 628.273 174.199 628.273C173.869 628.273 173.574 628.342 173.312 628.482C173.054 628.621 172.849 628.824 172.699 629.091C172.551 629.358 172.477 629.682 172.477 630.062ZM179.294 634.068C179.084 634.068 178.903 633.993 178.753 633.842C178.602 633.692 178.527 633.511 178.527 633.301C178.527 633.091 178.602 632.911 178.753 632.76C178.903 632.609 179.084 632.534 179.294 632.534C179.504 632.534 179.685 632.609 179.835 632.76C179.986 632.911 180.061 633.091 180.061 633.301C180.061 633.44 180.026 633.568 179.955 633.685C179.886 633.801 179.794 633.895 179.678 633.966C179.564 634.034 179.436 634.068 179.294 634.068ZM179.294 629.21C179.084 629.21 178.903 629.135 178.753 628.984C178.602 628.834 178.527 628.653 178.527 628.443C178.527 628.233 178.602 628.053 178.753 627.902C178.903 627.751 179.084 627.676 179.294 627.676C179.504 627.676 179.685 627.751 179.835 627.902C179.986 628.053 180.061 628.233 180.061 628.443C180.061 628.582 180.026 628.71 179.955 628.827C179.886 628.943 179.794 629.037 179.678 629.108C179.564 629.176 179.436 629.21 179.294 629.21ZM188.173 634.119C187.61 634.119 187.109 634.023 186.668 633.83C186.231 633.636 185.883 633.368 185.624 633.024C185.369 632.678 185.229 632.276 185.207 631.818H186.281C186.303 632.099 186.4 632.342 186.57 632.547C186.741 632.749 186.964 632.905 187.239 633.016C187.515 633.126 187.82 633.182 188.156 633.182C188.531 633.182 188.863 633.116 189.153 632.986C189.442 632.855 189.67 632.673 189.835 632.44C189.999 632.207 190.082 631.938 190.082 631.631C190.082 631.31 190.002 631.027 189.843 630.783C189.684 630.536 189.451 630.342 189.144 630.203C188.837 630.064 188.462 629.994 188.019 629.994H187.32V629.057H188.019C188.366 629.057 188.67 628.994 188.931 628.869C189.195 628.744 189.401 628.568 189.549 628.341C189.7 628.114 189.775 627.847 189.775 627.54C189.775 627.244 189.71 626.987 189.579 626.768C189.448 626.55 189.263 626.379 189.025 626.257C188.789 626.135 188.511 626.074 188.19 626.074C187.888 626.074 187.604 626.129 187.337 626.24C187.073 626.348 186.857 626.506 186.69 626.713C186.522 626.918 186.431 627.165 186.417 627.455H185.394C185.411 626.997 185.549 626.597 185.808 626.253C186.066 625.906 186.404 625.636 186.822 625.443C187.242 625.25 187.704 625.153 188.207 625.153C188.746 625.153 189.21 625.263 189.596 625.482C189.982 625.697 190.279 625.983 190.487 626.338C190.694 626.693 190.798 627.077 190.798 627.489C190.798 627.98 190.668 628.399 190.41 628.746C190.154 629.092 189.806 629.332 189.366 629.466V629.534C189.917 629.625 190.347 629.859 190.657 630.237C190.967 630.612 191.121 631.077 191.121 631.631C191.121 632.105 190.992 632.531 190.734 632.909C190.478 633.284 190.129 633.58 189.685 633.795C189.242 634.011 188.738 634.119 188.173 634.119ZM192.66 632.21V631.341L196.495 625.273H197.126V626.619H196.7L193.802 631.205V631.273H198.967V632.21H192.66ZM196.768 634V631.946V631.541V625.273H197.773V634H196.768ZM203.515 625.273V634H202.458V626.381H202.407L200.276 627.795V626.722L202.458 625.273H203.515ZM206.042 636.455V627.455H207.013V628.494H207.132C207.206 628.381 207.309 628.236 207.439 628.06C207.573 627.881 207.763 627.722 208.01 627.582C208.26 627.44 208.598 627.369 209.025 627.369C209.576 627.369 210.061 627.507 210.482 627.783C210.902 628.058 211.23 628.449 211.466 628.955C211.702 629.46 211.82 630.057 211.82 630.744C211.82 631.438 211.702 632.038 211.466 632.547C211.23 633.053 210.904 633.445 210.486 633.723C210.069 633.999 209.587 634.136 209.042 634.136C208.621 634.136 208.284 634.067 208.032 633.928C207.779 633.786 207.584 633.625 207.448 633.446C207.311 633.264 207.206 633.114 207.132 632.994H207.047V636.455H206.042ZM207.03 630.727C207.03 631.222 207.103 631.658 207.248 632.036C207.392 632.411 207.604 632.705 207.882 632.918C208.161 633.128 208.502 633.233 208.905 633.233C209.326 633.233 209.676 633.122 209.958 632.901C210.242 632.676 210.455 632.375 210.597 631.997C210.742 631.616 210.814 631.193 210.814 630.727C210.814 630.267 210.743 629.852 210.601 629.483C210.462 629.111 210.25 628.817 209.966 628.601C209.685 628.382 209.331 628.273 208.905 628.273C208.496 628.273 208.152 628.376 207.874 628.584C207.596 628.788 207.385 629.075 207.243 629.445C207.101 629.811 207.03 630.239 207.03 630.727ZM213.835 627.455L215.403 630.131L216.971 627.455H218.13L216.016 630.727L218.13 634H216.971L215.403 631.46L213.835 634H212.675L214.755 630.727L212.675 627.455H213.835Z" fill="white"/>
<rect x="141" y="644" width="86" height="21" rx="4" fill="#3363FF"/>
<path d="M147.926 655.062V659H146.92V650.273H147.926V653.477H148.011C148.165 653.139 148.395 652.871 148.702 652.672C149.011 652.47 149.423 652.369 149.938 652.369C150.384 652.369 150.774 652.459 151.109 652.638C151.445 652.814 151.705 653.085 151.889 653.452C152.077 653.815 152.17 654.278 152.17 654.841V659H151.165V654.909C151.165 654.389 151.03 653.987 150.76 653.703C150.493 653.416 150.122 653.273 149.648 653.273C149.318 653.273 149.023 653.342 148.761 653.482C148.503 653.621 148.298 653.824 148.148 654.091C148 654.358 147.926 654.682 147.926 655.062ZM156.755 659.136C156.124 659.136 155.58 658.997 155.123 658.719C154.668 658.438 154.317 658.045 154.07 657.543C153.826 657.037 153.703 656.449 153.703 655.778C153.703 655.108 153.826 654.517 154.07 654.006C154.317 653.491 154.661 653.091 155.101 652.804C155.544 652.514 156.061 652.369 156.652 652.369C156.993 652.369 157.33 652.426 157.662 652.54C157.995 652.653 158.297 652.838 158.57 653.094C158.843 653.347 159.06 653.682 159.222 654.099C159.384 654.517 159.465 655.031 159.465 655.642V656.068H154.419V655.199H158.442C158.442 654.83 158.368 654.5 158.221 654.21C158.076 653.92 157.868 653.692 157.598 653.524C157.331 653.357 157.016 653.273 156.652 653.273C156.252 653.273 155.905 653.372 155.613 653.571C155.323 653.767 155.1 654.023 154.944 654.338C154.787 654.653 154.709 654.991 154.709 655.352V655.932C154.709 656.426 154.794 656.845 154.965 657.189C155.138 657.53 155.378 657.79 155.685 657.969C155.992 658.145 156.348 658.233 156.755 658.233C157.019 658.233 157.257 658.196 157.471 658.122C157.686 658.045 157.873 657.932 158.029 657.781C158.185 657.628 158.306 657.437 158.391 657.21L159.363 657.483C159.26 657.812 159.088 658.102 158.847 658.352C158.605 658.599 158.307 658.793 157.952 658.932C157.597 659.068 157.198 659.136 156.755 659.136ZM160.995 659V652.455H162V659H160.995ZM161.506 651.364C161.31 651.364 161.141 651.297 160.999 651.163C160.86 651.03 160.79 650.869 160.79 650.682C160.79 650.494 160.86 650.334 160.999 650.2C161.141 650.067 161.31 650 161.506 650C161.702 650 161.87 650.067 162.009 650.2C162.151 650.334 162.222 650.494 162.222 650.682C162.222 650.869 162.151 651.03 162.009 651.163C161.87 651.297 161.702 651.364 161.506 651.364ZM166.484 661.591C165.999 661.591 165.581 661.528 165.232 661.403C164.882 661.281 164.591 661.119 164.358 660.918C164.128 660.719 163.945 660.506 163.808 660.278L164.609 659.716C164.7 659.835 164.815 659.972 164.955 660.125C165.094 660.281 165.284 660.416 165.526 660.53C165.77 660.646 166.089 660.705 166.484 660.705C167.013 660.705 167.449 660.577 167.793 660.321C168.136 660.065 168.308 659.665 168.308 659.119V657.79H168.223C168.149 657.909 168.044 658.057 167.908 658.233C167.774 658.406 167.581 658.561 167.328 658.697C167.078 658.831 166.74 658.898 166.314 658.898C165.786 658.898 165.311 658.773 164.891 658.523C164.473 658.273 164.142 657.909 163.898 657.432C163.656 656.955 163.536 656.375 163.536 655.693C163.536 655.023 163.653 654.439 163.889 653.942C164.125 653.442 164.453 653.055 164.874 652.783C165.294 652.507 165.78 652.369 166.331 652.369C166.757 652.369 167.095 652.44 167.345 652.582C167.598 652.722 167.791 652.881 167.925 653.06C168.061 653.236 168.166 653.381 168.24 653.494H168.342V652.455H169.314V659.188C169.314 659.75 169.186 660.207 168.93 660.56C168.678 660.915 168.337 661.175 167.908 661.339C167.482 661.507 167.007 661.591 166.484 661.591ZM166.45 657.994C166.854 657.994 167.195 657.902 167.473 657.717C167.751 657.533 167.963 657.267 168.108 656.92C168.253 656.574 168.325 656.159 168.325 655.676C168.325 655.205 168.254 654.788 168.112 654.428C167.97 654.067 167.76 653.784 167.482 653.58C167.203 653.375 166.859 653.273 166.45 653.273C166.024 653.273 165.669 653.381 165.385 653.597C165.104 653.812 164.892 654.102 164.75 654.466C164.611 654.83 164.541 655.233 164.541 655.676C164.541 656.131 164.612 656.533 164.754 656.882C164.899 657.229 165.112 657.501 165.393 657.7C165.678 657.896 166.03 657.994 166.45 657.994ZM172.161 655.062V659H171.155V650.273H172.161V653.477H172.246C172.399 653.139 172.629 652.871 172.936 652.672C173.246 652.47 173.658 652.369 174.172 652.369C174.618 652.369 175.009 652.459 175.344 652.638C175.679 652.814 175.939 653.085 176.124 653.452C176.311 653.815 176.405 654.278 176.405 654.841V659H175.399V654.909C175.399 654.389 175.264 653.987 174.994 653.703C174.727 653.416 174.357 653.273 173.882 653.273C173.553 653.273 173.257 653.342 172.996 653.482C172.737 653.621 172.533 653.824 172.382 654.091C172.234 654.358 172.161 654.682 172.161 655.062ZM181.091 652.455V653.307H177.699V652.455H181.091ZM178.688 650.886H179.694V657.125C179.694 657.409 179.735 657.622 179.817 657.764C179.902 657.903 180.01 657.997 180.141 658.045C180.275 658.091 180.415 658.114 180.563 658.114C180.674 658.114 180.765 658.108 180.836 658.097C180.907 658.082 180.963 658.071 181.006 658.062L181.211 658.966C181.142 658.991 181.047 659.017 180.925 659.043C180.803 659.071 180.648 659.085 180.461 659.085C180.176 659.085 179.898 659.024 179.625 658.902C179.355 658.78 179.131 658.594 178.952 658.344C178.776 658.094 178.688 657.778 178.688 657.398V650.886ZM183.337 659.068C183.127 659.068 182.946 658.993 182.796 658.842C182.645 658.692 182.57 658.511 182.57 658.301C182.57 658.091 182.645 657.911 182.796 657.76C182.946 657.609 183.127 657.534 183.337 657.534C183.547 657.534 183.728 657.609 183.878 657.76C184.029 657.911 184.104 658.091 184.104 658.301C184.104 658.44 184.069 658.568 183.998 658.685C183.929 658.801 183.837 658.895 183.721 658.966C183.607 659.034 183.479 659.068 183.337 659.068ZM183.337 654.21C183.127 654.21 182.946 654.135 182.796 653.984C182.645 653.834 182.57 653.653 182.57 653.443C182.57 653.233 182.645 653.053 182.796 652.902C182.946 652.751 183.127 652.676 183.337 652.676C183.547 652.676 183.728 652.751 183.878 652.902C184.029 653.053 184.104 653.233 184.104 653.443C184.104 653.582 184.069 653.71 183.998 653.827C183.929 653.943 183.837 654.037 183.721 654.108C183.607 654.176 183.479 654.21 183.337 654.21ZM192.216 659.119C191.653 659.119 191.152 659.023 190.711 658.83C190.274 658.636 189.926 658.368 189.667 658.024C189.412 657.678 189.272 657.276 189.25 656.818H190.324C190.346 657.099 190.443 657.342 190.613 657.547C190.784 657.749 191.007 657.905 191.282 658.016C191.558 658.126 191.863 658.182 192.199 658.182C192.574 658.182 192.906 658.116 193.196 657.986C193.485 657.855 193.713 657.673 193.877 657.44C194.042 657.207 194.125 656.938 194.125 656.631C194.125 656.31 194.045 656.027 193.886 655.783C193.727 655.536 193.494 655.342 193.187 655.203C192.88 655.064 192.505 654.994 192.062 654.994H191.363V654.057H192.062C192.409 654.057 192.713 653.994 192.974 653.869C193.238 653.744 193.444 653.568 193.592 653.341C193.743 653.114 193.818 652.847 193.818 652.54C193.818 652.244 193.752 651.987 193.622 651.768C193.491 651.55 193.306 651.379 193.068 651.257C192.832 651.135 192.554 651.074 192.233 651.074C191.931 651.074 191.647 651.129 191.38 651.24C191.116 651.348 190.9 651.506 190.733 651.713C190.565 651.918 190.474 652.165 190.46 652.455H189.437C189.454 651.997 189.592 651.597 189.85 651.253C190.109 650.906 190.447 650.636 190.865 650.443C191.285 650.25 191.747 650.153 192.25 650.153C192.789 650.153 193.252 650.263 193.639 650.482C194.025 650.697 194.322 650.983 194.529 651.338C194.737 651.693 194.841 652.077 194.841 652.489C194.841 652.98 194.711 653.399 194.453 653.746C194.197 654.092 193.849 654.332 193.409 654.466V654.534C193.96 654.625 194.39 654.859 194.7 655.237C195.01 655.612 195.164 656.077 195.164 656.631C195.164 657.105 195.035 657.531 194.777 657.909C194.521 658.284 194.172 658.58 193.728 658.795C193.285 659.011 192.781 659.119 192.216 659.119ZM196.703 657.21V656.341L200.538 650.273H201.169V651.619H200.743L197.845 656.205V656.273H203.01V657.21H196.703ZM200.811 659V656.946V656.541V650.273H201.816V659H200.811ZM207.558 650.273V659H206.501V651.381H206.45L204.319 652.795V651.722L206.501 650.273H207.558ZM210.085 661.455V652.455H211.056V653.494H211.175C211.249 653.381 211.352 653.236 211.482 653.06C211.616 652.881 211.806 652.722 212.053 652.582C212.303 652.44 212.641 652.369 213.067 652.369C213.619 652.369 214.104 652.507 214.525 652.783C214.945 653.058 215.273 653.449 215.509 653.955C215.745 654.46 215.863 655.057 215.863 655.744C215.863 656.438 215.745 657.038 215.509 657.547C215.273 658.053 214.947 658.445 214.529 658.723C214.112 658.999 213.63 659.136 213.085 659.136C212.664 659.136 212.327 659.067 212.075 658.928C211.822 658.786 211.627 658.625 211.491 658.446C211.354 658.264 211.249 658.114 211.175 657.994H211.09V661.455H210.085ZM211.073 655.727C211.073 656.222 211.146 656.658 211.29 657.036C211.435 657.411 211.647 657.705 211.925 657.918C212.204 658.128 212.545 658.233 212.948 658.233C213.369 658.233 213.719 658.122 214.001 657.901C214.285 657.676 214.498 657.375 214.64 656.997C214.785 656.616 214.857 656.193 214.857 655.727C214.857 655.267 214.786 654.852 214.644 654.483C214.505 654.111 214.293 653.817 214.009 653.601C213.728 653.382 213.374 653.273 212.948 653.273C212.539 653.273 212.195 653.376 211.917 653.584C211.638 653.788 211.428 654.075 211.286 654.445C211.144 654.811 211.073 655.239 211.073 655.727ZM217.877 652.455L219.446 655.131L221.014 652.455H222.173L220.059 655.727L222.173 659H221.014L219.446 656.46L217.877 659H216.718L218.798 655.727L216.718 652.455H217.877Z" fill="white"/>
</g>
<defs>
<linearGradient id="paint0_linear_500_20" x1="313.5" y1="272" x2="313.5" y2="613" gradientUnits="userSpaceOnUse">
<stop stop-color="#40E7F2"/>
<stop offset="1" stop-color="#E946D6"/>
</linearGradient>
<clipPath id="clip0_500_20">
<rect width="627" height="886" fill="white"/>
</clipPath>
</defs>
</svg>
