<svg width="3670" height="1920" viewBox="0 0 3670 1920" fill="none" xmlns="http://www.w3.org/2000/svg">
<path d="M1835 294C2191.78 294 2481 583.216 2481 939.982C2481 1162.68 2368.3 1359.06 2196.82 1475.2C2190.88 1479.23 2190.78 1488.03 2196.73 1492.05L2309.15 1568.05C2335.49 1585.85 2321.42 1627.43 2289.68 1625.61C2170.02 1618.77 1981.37 1609.39 1844.34 1609.31C1704.7 1609.23 1518.61 1619.01 1404.45 1625.94C1373.63 1627.81 1358.83 1588.31 1383.32 1569.5L1479.59 1495.57C1485.1 1491.33 1484.71 1482.88 1478.91 1479.04C1304.22 1363.42 1189 1165.16 1189 939.982C1189 583.216 1478.22 294 1835 294Z" fill="url(#paint0_linear_689_6)"/>
<defs>
<linearGradient id="paint0_linear_689_6" x1="1835" y1="294" x2="1835" y2="2303.5" gradientUnits="userSpaceOnUse">
<stop stop-color="white" stop-opacity="0.05"/>
<stop offset="1" stop-color="#999999" stop-opacity="0"/>
</linearGradient>
</defs>
</svg>
