<svg width="2156" height="2156" viewBox="0 0 2156 2156" fill="none" xmlns="http://www.w3.org/2000/svg">
<path d="M1222.75 1818C1093.86 1818 980.995 1786.9 884.162 1724.7C787.33 1662.51 711.762 1575.76 657.457 1464.45C603.152 1352.5 576 1223.19 576 1076.54C576 930.535 602.498 802.21 655.494 691.564C709.144 580.917 783.732 494.495 879.255 432.297C974.779 370.099 1086.01 339 1212.93 339C1271.16 339 1333.97 350.458 1401.36 373.373C1468.76 396.288 1526.66 426.404 1575.07 463.723L1471.04 714.151C1445.53 680.106 1408.89 651.954 1361.13 629.693C1314.02 606.778 1265.28 595.321 1214.9 595.321C1141.62 595.321 1077.83 615.617 1023.52 656.209C969.218 696.801 927.017 753.107 896.921 825.126C867.478 897.144 852.757 980.293 852.757 1074.57C852.757 1170.81 868.133 1255.6 898.884 1328.93C929.634 1402.26 972.816 1459.54 1028.43 1500.79C1084.04 1541.38 1149.14 1561.68 1223.73 1561.68C1272.15 1561.68 1319.58 1550.55 1366.03 1528.29C1413.14 1506.03 1449.45 1477.55 1474.97 1442.85L1579 1692.29C1531.89 1729.61 1475.3 1760.06 1409.22 1783.63C1343.79 1806.54 1281.63 1818 1222.75 1818Z" fill="#48ADFF"/>
</svg>
