<svg width="2156" height="2156" viewBox="0 0 2156 2156" fill="none" xmlns="http://www.w3.org/2000/svg">
<path d="M429.635 1569C344.013 1569 269.038 1548.35 204.712 1507.05C140.387 1465.76 90.1865 1408.16 54.1119 1334.26C18.0373 1259.92 0 1174.07 0 1076.7C0 979.757 17.6027 894.554 52.808 821.089C88.4479 747.624 137.996 690.243 201.453 648.946C264.909 607.649 338.797 587 423.116 587C461.798 587 503.523 594.607 548.29 609.822C593.058 625.037 631.523 645.033 663.686 669.811L594.579 836.086C577.628 813.482 553.289 794.789 521.56 780.009C490.267 764.795 457.887 757.187 424.42 757.187C375.741 757.187 333.364 770.663 297.289 797.615C261.215 824.567 233.181 861.951 213.188 909.769C193.629 957.587 183.85 1012.79 183.85 1075.39C183.85 1139.29 194.064 1195.59 214.492 1244.27C234.919 1292.96 263.605 1331 300.549 1358.39C337.493 1385.34 380.739 1398.81 430.287 1398.81C462.45 1398.81 493.961 1391.42 524.82 1376.64C556.114 1361.86 580.236 1342.95 597.187 1319.91L666.293 1485.54C635 1510.31 597.404 1530.53 553.506 1546.18C510.043 1561.39 468.752 1569 429.635 1569Z" fill="#48ADFF"/>
<path d="M1003.35 1486.19V809.352H1159.82V1486.19H1003.35ZM758.218 1224.71V1071.48H1404.95V1224.71H758.218Z" fill="#48ADFF"/>
<path d="M1754.4 1486.19V809.352H1910.87V1486.19H1754.4ZM1509.27 1224.71V1071.48H2156V1224.71H1509.27Z" fill="#48ADFF"/>
</svg>
