<svg width="2156" height="2156" viewBox="0 0 2156 2156" fill="none" xmlns="http://www.w3.org/2000/svg">
<path d="M657.475 1830C526.446 1830 411.712 1798.4 313.273 1735.19C214.835 1671.98 138.013 1583.82 82.808 1470.72C27.6027 1356.94 0 1225.54 0 1076.5C0 928.133 26.9375 797.727 80.8126 685.285C135.353 572.843 211.177 485.018 308.285 421.811C405.393 358.604 518.464 327 647.498 327C706.694 327 770.546 338.643 839.054 361.93C907.562 385.217 966.425 415.823 1015.64 453.747L909.89 708.239C883.95 673.641 846.703 645.032 798.149 622.41C750.26 599.123 700.708 587.48 649.494 587.48C575 587.48 510.15 608.106 454.945 649.357C399.74 690.608 356.839 747.827 326.243 821.014C296.313 894.201 281.348 978.699 281.348 1074.51C281.348 1172.31 296.978 1258.47 328.239 1332.99C359.5 1407.51 403.398 1465.73 459.933 1507.64C516.469 1548.89 582.649 1569.52 658.473 1569.52C707.692 1569.52 755.914 1558.21 803.137 1535.59C851.026 1512.97 887.941 1484.02 913.881 1448.76L1019.64 1702.25C971.746 1740.18 914.213 1771.12 847.036 1795.07C780.523 1818.36 717.336 1830 657.475 1830Z" fill="#48ADFF"/>
<path d="M1154.32 1407.84V1229.2H2140.04V1407.84H1154.32ZM1170.29 924.807V746.163H2156V924.807H1170.29ZM1235.14 1814.03L1423.7 342.968H1617.25L1426.69 1814.03H1235.14ZM1693.07 1814.03L1883.63 342.968H2075.19L1886.62 1814.03H1693.07Z" fill="#48ADFF"/>
</svg>
