<svg width="2156" height="2156" viewBox="0 0 2156 2156" fill="none" xmlns="http://www.w3.org/2000/svg">
<path d="M1885.28 2156H270.722C232.831 2156 200.905 2143.02 174.943 2117.05C148.981 2091.08 136 2059.15 136 2021.25V136.855C136 98.957 148.981 67.0241 174.943 41.0566C200.905 15.0892 232.831 2.10547 270.722 2.10547H1213.77V743.23C1213.77 761.478 1220.09 777.269 1232.72 790.604C1245.35 803.938 1261.49 810.605 1281.14 810.605H2020V2021.25C2020 2059.15 2007.02 2091.08 1981.06 2117.05C1955.09 2143.02 1923.17 2156 1885.28 2156ZM1348.5 0C1383.58 0 1414.45 12.6328 1441.12 37.8984L1980 579.004C2006.67 605.673 2020 637.957 2020 675.855H1348.5V0Z" fill="#3A3A3A"/>
</svg>
