<svg width="560" height="560" viewBox="0 0 560 560" fill="none" xmlns="http://www.w3.org/2000/svg">
<path fill-rule="evenodd" clip-rule="evenodd" d="M280 2H112.667C90.4769 2 69.1959 10.8184 53.5054 26.5152C37.8149 42.212 29 63.5014 29 85.7V476.3C29 498.499 37.8149 519.788 53.5054 535.485C69.1959 551.182 90.4769 560 112.667 560H447.333C469.523 560 490.804 551.182 506.495 535.485C522.185 519.788 531 498.499 531 476.3V253.1H363.667C341.477 253.1 320.196 244.282 304.505 228.585C288.815 212.888 280 191.599 280 169.4V2ZM531 197.3V192.501C530.988 170.314 522.17 149.04 506.486 133.353L399.727 26.4962C384.036 10.8085 362.759 1.99734 340.575 2H335.778V169.4C335.778 176.8 338.716 183.896 343.946 189.128C349.176 194.361 356.27 197.3 363.667 197.3H531Z" fill="#282828"/>
<g clip-path="url(#clip0_437_143)">
<circle cx="294" cy="504" r="208" fill="#FF3838"/>
<g filter="url(#filter0_f_437_143)">
<path d="M115.722 463.321C115.722 463.001 118.282 458.035 123.442 450.121C127.142 444.445 134.119 443.769 140.484 442.639C147.896 441.323 155.931 441.66 163.27 442.142C169.844 442.574 175.662 444.399 180.504 446.494C184.453 448.203 186.349 451.988 187.642 455.775C189.036 459.861 187.819 465.871 184.688 475.766C182.624 482.291 177.878 491.261 175.572 496.84C173.266 502.419 173.106 504.179 173.264 505.406C173.422 506.633 173.902 507.273 174.709 507.763C176.497 508.847 179.871 509.063 185.823 509.065C189.698 509.067 195.296 508.427 204.182 506.82C213.068 505.212 225.07 502.492 234.213 499.65C243.356 496.809 249.277 493.928 252.967 491.965C256.657 490.001 257.937 489.04 259.256 488.051" stroke="#FF33D3" stroke-width="200" stroke-linecap="round"/>
<path d="M115.722 313.482C122.462 313.157 135.089 314.762 138.745 317.029C140.19 317.925 139.967 320.261 139.887 322.356C139.795 324.781 137.562 329.29 133.453 335.74C129.199 342.415 125.11 347.727 122.93 352.241C120.877 356.492 121.536 360.184 122.743 362.281C123.966 364.405 126.86 365.523 131.363 366.733C138.87 368.75 146.407 368.277 153.967 367.477C159.002 366.944 166.327 365.077 170.999 363.853C177.523 362.143 180.365 360.204 182.943 357.871C189.833 351.636 193.754 344.711 198.627 341.695C200.562 340.967 203.152 340.317 205.816 339.832C206.881 339.668 207.361 339.668 207.855 339.668" stroke="#A136FF" stroke-width="200" stroke-linecap="round"/>
<path d="M315.021 488.051C314.701 488.051 308.135 486.611 295.076 482.749C288.282 480.739 281.697 476.966 275.115 473.235C268.532 469.503 262.291 465.503 257.796 462.402C250.591 457.431 246.342 453.317 243.115 449.77C240.161 446.522 239.214 442.969 239.372 440.227C239.449 438.889 240.489 437.804 242.422 436.667C244.354 435.53 247.395 434.41 255.762 433.273C264.129 432.136 277.731 431.016 285.138 430.119C292.545 429.221 293.345 428.581 293.837 427.772C294.329 426.962 294.489 426.002 294.012 424.947C292.898 422.489 288.699 419.698 280.66 414.468C275.294 410.977 266.859 406.518 258.972 402.527C251.085 398.536 243.884 395.336 239.854 393.447C235.825 391.558 235.184 391.078 234.04 389.614" stroke="#2CFFF4" stroke-width="200" stroke-linecap="round"/>
<path d="M279.138 289.237C278.818 289.237 278.498 289.237 273.852 290.357C269.207 291.477 260.246 293.717 254.829 295.192C247.758 297.116 245.364 298.765 244.071 300.378C243.478 301.119 243.419 301.99 243.577 302.882C243.918 304.811 246.149 307.164 259.613 315.027C271.384 321.901 294.199 332.811 307.183 339.544C320.167 346.277 322.887 348.037 325.168 349.664C329.299 352.61 332.144 357.896 333.841 364.272C334.956 368.461 333.618 372.138 330.966 376.887C327.041 383.914 322.945 387.989 322.38 389.762C322.45 394.288 324.71 398.168 327.445 401.148C329.22 402.847 331.78 404.927 334.903 407.071" stroke="#36BCFF" stroke-width="200" stroke-linecap="round"/>
<path d="M143.362 263.051C143.842 268.376 146.097 272.245 151.577 276.852C153.602 278.555 157.037 279.829 161.486 281.454C171.4 285.074 179.867 286.647 184.306 287.132C187.292 287.458 189.259 287.137 190.712 286.654C194.392 285.432 196.693 279.393 198.955 276.399C201.959 272.423 206.692 270.984 212.761 269.36C214.62 269.035 217.021 268.715 219.377 268.55C221.734 268.385 223.974 268.385 226.282 268.385" stroke="#2672FF" stroke-width="200" stroke-linecap="round"/>
</g>
</g>
<defs>
<filter id="filter0_f_437_143" x="-43.4803" y="103.845" width="537.592" height="564.42" filterUnits="userSpaceOnUse" color-interpolation-filters="sRGB">
<feFlood flood-opacity="0" result="BackgroundImageFix"/>
<feBlend mode="normal" in="SourceGraphic" in2="BackgroundImageFix" result="shape"/>
<feGaussianBlur stdDeviation="29.6" result="effect1_foregroundBlur_437_143"/>
</filter>
<clipPath id="clip0_437_143">
<rect x="86" y="296" width="215" height="215" rx="107.5" fill="white"/>
</clipPath>
</defs>
</svg>
