<svg width="2156" height="2156" viewBox="0 0 2156 2156" fill="none" xmlns="http://www.w3.org/2000/svg">
<path d="M887.191 2151C827.682 2151 777.485 2106.69 770.103 2047.64L740.12 1807.8C716.879 1798.86 694.997 1788.14 674.474 1775.62C653.951 1763.11 633.821 1749.71 614.085 1735.41L390.745 1829.23C335.994 1852.24 272.681 1830.97 242.924 1779.57L52.2562 1450.28C22.4113 1398.74 35.6571 1333.03 83.1414 1297.08L276.204 1150.89C274.416 1138.38 273.522 1126.33 273.522 1114.75V1042.36C273.522 1030.7 274.416 1018.62 276.204 1006.11L83.1414 859.922C35.6571 823.968 22.4113 758.263 52.2562 706.72L242.924 377.427C272.681 326.035 335.994 304.764 390.745 327.765L614.085 421.594C633.75 407.294 654.308 393.887 675.761 381.375C697.214 368.863 718.667 358.137 740.12 349.2L770.103 109.362C777.485 50.3124 827.682 6 887.192 6H1268.81C1328.32 6 1378.51 50.3123 1385.9 109.362L1415.88 349.2C1439.12 358.137 1461.04 368.863 1481.63 381.375C1502.23 393.887 1522.32 407.294 1541.92 421.594L1765.26 327.765C1820.01 304.764 1883.32 326.035 1913.08 377.427L2103.74 706.72C2133.59 758.263 2120.34 823.968 2072.86 859.922L1879.8 1006.11C1881.58 1018.62 1882.48 1030.7 1882.48 1042.36V1114.64C1882.48 1126.3 1880.69 1138.38 1877.11 1150.89L2070.18 1297.08C2117.66 1333.03 2130.91 1398.74 2101.06 1450.28L1910.55 1779.3C1880.73 1830.81 1817.21 1852.04 1762.4 1828.82L1541.92 1735.41C1522.25 1749.71 1501.69 1763.11 1480.24 1775.62C1458.79 1788.14 1437.33 1798.86 1415.88 1807.8L1385.9 2047.64C1378.51 2106.69 1328.32 2151 1268.81 2151H887.191ZM1083.36 1453.88C1187.05 1453.88 1275.54 1417.23 1348.84 1343.94C1422.14 1270.66 1458.79 1182.17 1458.79 1078.5C1458.79 974.825 1422.14 886.344 1348.84 813.056C1275.54 739.769 1187.05 703.125 1083.36 703.125C977.887 703.125 888.93 739.769 816.491 813.056C744.052 886.344 707.869 974.825 707.94 1078.5C708.012 1182.17 744.231 1270.66 816.598 1343.94C888.966 1417.23 977.887 1453.88 1083.36 1453.88Z" fill="#3A3A3A"/>
</svg>
