<svg width="2156" height="2156" viewBox="0 0 2156 2156" fill="none" xmlns="http://www.w3.org/2000/svg">
<path d="M1885.28 2156H270.722C232.831 2156 200.905 2143.02 174.943 2117.05C148.981 2091.08 136 2059.15 136 2021.25V136.855C136 98.957 148.981 67.0241 174.943 41.0566C200.905 15.0892 232.831 2.10547 270.722 2.10547H1213.77V743.23C1213.77 761.478 1220.09 777.269 1232.72 790.604C1245.35 803.938 1261.49 810.605 1281.14 810.605H2020V2021.25C2020 2059.15 2007.02 2091.08 1981.06 2117.05C1955.09 2143.02 1923.17 2156 1885.28 2156ZM1348.5 0C1383.58 0 1414.45 12.6328 1441.12 37.8984L1980 579.004C2006.67 605.673 2020 637.957 2020 675.855H1348.5V0Z" fill="#872626"/>
<path d="M720.391 1722.2C720.391 1758.92 716.094 1791.34 707.5 1819.47C699.167 1847.33 687.057 1870.64 671.172 1889.39C655.286 1908.4 635.885 1922.85 612.969 1932.75C590.312 1942.39 564.531 1947.2 535.625 1947.2C507.24 1947.2 481.589 1942.39 458.672 1932.75C435.755 1923.11 416.354 1908.66 400.469 1889.39C384.323 1870.64 371.953 1847.33 363.359 1819.47C354.766 1791.34 350.469 1758.92 350.469 1722.2V1587.05C350.469 1550.33 354.635 1518.04 362.969 1490.17C371.562 1462.05 383.932 1438.48 400.078 1419.47C415.964 1400.72 435.234 1386.53 457.891 1376.89C480.807 1366.99 506.458 1362.05 534.844 1362.05C563.75 1362.05 589.661 1366.99 612.578 1376.89C635.495 1386.53 654.896 1400.72 670.781 1419.47C686.667 1438.48 698.906 1462.05 707.5 1490.17C716.094 1518.04 720.391 1550.33 720.391 1587.05V1722.2ZM452.031 1682.36L618.438 1557.36C617.396 1536.53 614.661 1518.69 610.234 1503.84C606.068 1488.74 599.948 1476.5 591.875 1467.12C585.365 1459.31 577.292 1453.58 567.656 1449.94C558.021 1446.03 547.083 1444.08 534.844 1444.08C521.562 1444.08 509.844 1446.42 499.688 1451.11C489.792 1455.8 481.458 1462.83 474.688 1472.2C466.875 1482.36 461.146 1495.64 457.5 1512.05C453.854 1528.45 452.031 1547.72 452.031 1569.86V1639.78C452.031 1650.98 452.031 1658.92 452.031 1663.61C452.031 1668.3 452.031 1674.55 452.031 1682.36ZM618.828 1738.61V1669.47C618.828 1661.92 618.828 1655.41 618.828 1649.94C618.828 1644.21 618.828 1637.7 618.828 1630.41L452.422 1754.62C453.464 1772.33 455.677 1787.96 459.062 1801.5C462.708 1814.78 467.786 1825.98 474.297 1835.09C481.068 1845.25 489.531 1852.93 499.688 1858.14C510.104 1863.09 522.083 1865.56 535.625 1865.56C548.906 1865.56 560.495 1863.35 570.391 1858.92C580.547 1854.23 589.01 1847.2 595.781 1837.83C603.594 1827.15 609.323 1813.61 612.969 1797.2C616.875 1780.54 618.828 1761.01 618.828 1738.61ZM1022.73 1653.45L1120 1516.34H1229.77L1084.84 1724.16L1234.84 1939H1124.69L1023.12 1796.03L922.734 1939H811.797L961.797 1724.16L817.266 1516.34H927.031L1022.73 1653.45ZM1419.22 1939V1591.34H1307.11V1516.34H1419.22V1491.73C1419.22 1464.13 1423.52 1439.78 1432.11 1418.69C1440.96 1397.59 1453.33 1379.76 1469.22 1365.17C1485.36 1350.85 1504.77 1340.04 1527.42 1332.75C1550.34 1325.2 1575.86 1321.42 1603.98 1321.42C1613.36 1321.42 1622.34 1321.81 1630.94 1322.59C1639.79 1323.38 1648.52 1324.42 1657.11 1325.72C1664.92 1326.76 1672.73 1327.93 1680.55 1329.23C1688.36 1330.54 1696.43 1332.1 1704.77 1333.92L1697.34 1413.61C1687.45 1411.27 1675.99 1409.18 1662.97 1407.36C1650.21 1405.54 1635.49 1404.62 1618.83 1404.62C1600.86 1404.62 1585.49 1406.71 1572.73 1410.88C1559.97 1415.04 1549.82 1421.16 1542.27 1429.23C1534.97 1436.27 1529.51 1445.12 1525.86 1455.8C1522.47 1466.21 1520.78 1478.19 1520.78 1491.73V1516.34H1675.47V1591.34H1520.78V1939H1419.22Z" fill="white"/>
</svg>
