<svg width="2156" height="2156" viewBox="0 0 2156 2156" fill="none" xmlns="http://www.w3.org/2000/svg">
<path d="M2072.72 552.062C2049.55 552.062 2029.66 543.769 2013.04 527.181C1996.43 510.593 1988.12 490.949 1988.12 468.25C1988.12 421.979 1971.73 382.473 1938.94 349.734C1906.15 316.995 1866.59 300.625 1820.25 300.625H1736.31C1713.58 300.625 1693.91 308.701 1677.29 324.852C1660.68 341.003 1652.38 360.865 1652.38 384.438V1222.56C1652.38 1245.26 1660.68 1264.91 1677.29 1281.49C1693.91 1298.08 1713.8 1306.38 1736.97 1306.38C1760.14 1306.38 1779.81 1314.45 1795.99 1330.6C1812.16 1346.75 1820.25 1366.4 1820.25 1389.53C1820.25 1412.67 1812.16 1432.53 1795.99 1449.12C1779.81 1465.71 1759.92 1474 1736.31 1474H1232.69C1209.95 1474 1190.28 1465.92 1173.67 1449.77C1157.06 1433.62 1148.75 1413.76 1148.75 1390.19C1148.75 1366.62 1157.06 1346.75 1173.67 1330.6C1190.28 1314.45 1210.17 1306.38 1233.34 1306.38C1256.51 1306.38 1276.19 1298.08 1292.36 1281.49C1308.54 1264.91 1316.62 1245.26 1316.62 1222.56V384.438C1316.62 360.865 1308.54 341.003 1292.36 324.852C1276.19 308.701 1256.29 300.625 1232.69 300.625H1148.75C1102.41 300.625 1062.85 316.995 1030.06 349.734C997.269 382.473 980.875 421.979 980.875 468.25C980.875 490.949 972.787 510.593 956.612 527.181C940.436 543.769 920.764 552.062 897.593 552.062C874.423 552.062 854.532 543.769 837.919 527.181C821.306 510.593 813 490.949 813 468.25V216.812C813 194.113 821.306 174.47 837.919 157.882C854.532 141.294 874.204 133 896.937 133H2072.06C2094.8 133 2114.47 141.294 2131.08 157.882C2147.69 174.47 2156 194.113 2156 216.812V468.25C2156 491.822 2147.91 511.684 2131.74 527.835C2115.56 543.987 2095.89 552.062 2072.72 552.062Z" fill="#FF4242" fill-opacity="0.5"/>
<path d="M1524.23 907.188C1496.2 907.188 1472.13 897.149 1452.03 877.073C1431.93 856.997 1421.88 833.223 1421.88 805.75C1421.88 749.748 1402.04 701.935 1362.37 662.311C1322.69 622.687 1274.82 602.875 1218.75 602.875H1117.19C1089.68 602.875 1065.88 612.649 1045.78 632.197C1025.68 651.745 1015.62 675.783 1015.62 704.312V1718.69C1015.62 1746.16 1025.68 1769.93 1045.78 1790.01C1065.88 1810.09 1089.95 1820.12 1117.98 1820.12C1146.02 1820.12 1169.82 1829.9 1189.39 1849.45C1208.96 1868.99 1218.75 1892.77 1218.75 1920.77C1218.75 1948.77 1208.96 1972.81 1189.39 1992.89C1169.82 2012.96 1145.75 2023 1117.19 2023H507.812C480.306 2023 456.502 2013.23 436.401 1993.68C416.3 1974.13 406.25 1950.09 406.25 1921.56C406.25 1893.03 416.3 1868.99 436.401 1849.45C456.502 1829.9 480.57 1820.12 508.606 1820.12C536.641 1820.12 560.445 1810.09 580.017 1790.01C599.589 1769.93 609.375 1746.16 609.375 1718.69V704.312C609.375 675.783 599.589 651.745 580.017 632.197C560.445 612.649 536.377 602.875 507.812 602.875H406.25C350.179 602.875 302.307 622.687 262.634 662.311C222.961 701.935 203.125 749.748 203.125 805.75C203.125 833.223 193.339 856.997 173.767 877.073C154.195 897.149 130.391 907.188 102.356 907.188C74.3205 907.188 50.2523 897.149 30.1514 877.073C10.0505 856.997 0 833.223 0 805.75V501.438C0 473.965 10.0505 450.19 30.1514 430.114C50.2523 410.038 74.056 400 101.562 400H1523.44C1550.94 400 1574.75 410.038 1594.85 430.114C1614.95 450.19 1625 473.965 1625 501.438V805.75C1625 834.279 1615.21 858.318 1595.64 877.866C1576.07 897.414 1552.27 907.188 1524.23 907.188Z" fill="#FF4242"/>
</svg>
