<svg width="2156" height="2156" viewBox="0 0 2156 2156" fill="none" xmlns="http://www.w3.org/2000/svg">
<path d="M595.288 35.5212C676.232 62.825 753.211 100.702 824.226 148.168C924.584 122.491 1027.79 109.609 1131.38 109.83C1238.36 109.83 1341.57 123.183 1438.32 148.061C1509.31 100.64 1586.25 62.7999 1667.15 35.5212C1742.24 9.99793 1849.22 -31.3562 1912.79 38.9674C1955.88 86.7832 1966.65 166.907 1974.3 228.077C1982.92 296.354 1984.97 385.309 1962.34 473.617C2048.86 585.295 2101 718.511 2101 863.682C2101 1083.59 1981.84 1274.53 1805.48 1406.78C1720.56 1469.56 1626.44 1518.82 1526.45 1552.81C1549.5 1605.58 1562.32 1663.95 1562.32 1725.23V2048.31C1562.32 2076.87 1550.97 2104.26 1530.77 2124.46C1510.56 2144.65 1483.16 2156 1454.59 2156H808.174C779.6 2156 752.197 2144.65 731.993 2124.46C711.789 2104.26 700.438 2076.87 700.438 2048.31V1941.58C597.551 1954.18 511.254 1942.98 437.886 1911.86C361.179 1879.34 307.742 1828.94 267.557 1780.69C229.418 1735.03 187.832 1632.07 127.716 1612.04C114.289 1607.57 101.875 1600.5 91.1813 1591.24C80.4878 1581.97 71.7245 1570.69 65.3919 1558.04C52.6025 1532.5 50.4901 1502.92 59.5192 1475.81C68.5484 1448.7 87.9795 1426.29 113.538 1413.51C139.096 1400.73 168.689 1398.61 195.805 1407.64C267.557 1431.55 314.314 1483.24 346.311 1524.81C398.024 1591.58 440.041 1678.81 521.92 1713.6C555.641 1727.92 605.092 1737.29 682.446 1726.73L700.438 1723.07C700.686 1664.47 712.894 1606.53 736.314 1552.81C636.322 1518.82 542.196 1469.56 457.279 1406.78C280.916 1274.53 161.76 1083.7 161.76 863.682C161.76 718.727 213.797 585.618 300.093 474.048C277.468 385.739 279.407 296.57 288.026 228.184L288.565 224.092C296.43 161.415 305.587 87.6447 349.543 38.9674C413.107 -31.3562 520.196 10.1056 595.18 35.6289L595.288 35.5212Z" fill="#3A3A3A"/>
</svg>
