<svg width="2156" height="2156" viewBox="0 0 2156 2156" fill="none" xmlns="http://www.w3.org/2000/svg">
<path d="M561.297 457.917C617.186 402.028 707.801 402.028 763.691 457.917C819.58 513.807 819.58 604.422 763.691 660.312L345.504 1078.5L763.691 1496.69C819.58 1552.58 819.58 1643.19 763.691 1699.08C707.801 1754.97 617.186 1754.97 561.297 1699.08L41.9166 1179.7C-13.9721 1123.81 -13.9724 1033.19 41.9166 977.301L561.297 457.917ZM1392.31 457.917C1448.2 402.028 1538.81 402.028 1594.7 457.917L2114.08 977.301C2169.97 1033.19 2169.97 1123.81 2114.08 1179.7L1594.7 1699.08C1538.81 1754.97 1448.2 1754.97 1392.31 1699.08C1336.42 1643.19 1336.42 1552.58 1392.31 1496.69L1810.49 1078.5L1392.31 660.312C1336.42 604.422 1336.42 513.807 1392.31 457.917Z" fill="#FF5943"/>
</svg>
