<svg width="560" height="560" viewBox="0 0 560 560" fill="none" xmlns="http://www.w3.org/2000/svg">
<g clip-path="url(#clip0_479_7)">
<path d="M62.2222 560C45.1111 560 30.4681 553.913 18.2933 541.738C6.11852 529.563 0.0207407 514.91 0 497.778V62.2222C0 45.1111 6.09778 30.4681 18.2933 18.2933C30.4889 6.11852 45.1318 0.0207407 62.2222 0H497.778C514.889 0 529.542 6.09778 541.738 18.2933C553.933 30.4889 560.021 45.1318 560 62.2222V497.778C560 514.889 553.913 529.542 541.738 541.738C529.563 553.933 514.91 560.021 497.778 560H62.2222ZM93.3333 435.556H466.667L350 280L256.667 404.444L186.667 311.111L93.3333 435.556Z" fill="#282828"/>
</g>
<defs>
<clipPath id="clip0_479_7">
<rect width="560" height="560" fill="white"/>
</clipPath>
</defs>
</svg>
