<svg width="2156" height="2156" viewBox="0 0 2156 2156" fill="none" xmlns="http://www.w3.org/2000/svg">
<path d="M457.604 1826C363.635 1826 282.239 1806.15 213.416 1766.44C145.255 1726.07 92.6458 1670.81 55.5875 1600.66C18.5292 1529.85 0 1448.44 0 1356.45H273.967C275.29 1421.97 291.834 1474.25 323.599 1513.3C356.025 1551.69 398.377 1570.88 450.656 1570.88C484.405 1570.88 514.515 1562.94 540.985 1547.05C567.455 1530.51 588.301 1506.68 603.521 1475.58C619.403 1443.81 627.344 1405.43 627.344 1360.43V346.883H918.186V1356.45C918.186 1455.72 898.333 1540.43 858.628 1610.59C819.584 1680.74 765.32 1734.34 695.836 1771.4C627.014 1807.8 547.603 1826 457.604 1826Z" fill="#F0DB4F"/>
<path d="M1692.44 1826C1615.01 1826 1541.23 1810.78 1471.08 1780.34C1401.6 1749.23 1341.05 1707.21 1289.43 1654.26C1237.81 1600.66 1201.09 1540.1 1179.25 1472.6L1450.24 1359.43C1462.81 1396.49 1481.01 1430.91 1504.83 1462.67C1529.32 1493.78 1557.44 1518.93 1589.21 1538.12C1620.97 1557.31 1655.05 1566.91 1691.45 1566.91C1725.2 1566.91 1755.64 1559.3 1782.77 1544.07C1809.9 1528.19 1831.41 1507.01 1847.29 1480.54C1863.17 1453.41 1871.11 1423.3 1871.11 1390.21C1871.11 1349.18 1859.2 1315.42 1835.38 1288.95C1812.22 1261.82 1781.45 1238.32 1743.06 1218.47C1705.34 1198.62 1663.32 1180.09 1617 1162.88C1570.68 1145.67 1524.35 1126.48 1478.03 1105.3C1432.37 1084.13 1390.35 1057.98 1351.97 1026.88C1313.59 995.775 1282.48 957.391 1258.66 911.727C1235.5 866.063 1223.92 809.149 1223.92 740.983C1223.92 657.597 1242.78 585.461 1280.5 524.576C1318.22 463.029 1370.17 415.379 1436.34 381.627C1503.18 347.876 1579.94 331 1666.63 331C1742.07 331 1809.9 343.574 1870.12 368.722C1931 393.871 1982.62 428.284 2024.97 471.963C2067.32 514.98 2099.09 564.284 2120.27 619.875L1859.2 727.086C1848.61 697.967 1833.39 672.818 1813.54 651.641C1794.35 630.463 1771.85 614.249 1746.04 602.999C1720.9 591.086 1694.09 585.13 1665.64 585.13C1623.29 585.13 1586.23 598.366 1554.46 624.838C1523.36 650.648 1507.81 687.378 1507.81 735.027C1507.81 776.72 1519.39 811.134 1542.55 838.268C1566.38 864.74 1597.48 887.572 1635.86 906.764C1674.24 925.294 1716.59 943.162 1762.92 960.369C1809.24 976.914 1855.23 995.444 1900.89 1015.96C1947.22 1035.81 1989.57 1060.96 2027.95 1091.41C2066.33 1121.19 2097.1 1158.91 2120.27 1204.57C2144.09 1250.24 2156 1306.82 2156 1374.32C2156 1461.02 2135.49 1538.45 2094.46 1606.61C2053.43 1674.78 1997.84 1728.38 1927.69 1767.43C1857.55 1806.48 1779.13 1826 1692.44 1826Z" fill="#F0DB4F"/>
</svg>
