<svg width="2156" height="2156" viewBox="0 0 2156 2156" fill="none" xmlns="http://www.w3.org/2000/svg">
<path d="M1274 872.2V705.6C1327.9 682.734 1383.04 665.584 1439.42 654.15C1495.81 642.717 1555 637 1617 637C1659.47 637 1701.12 640.267 1741.95 646.8C1782.78 653.334 1822.8 661.5 1862 671.3V828.1C1822.8 813.4 1783.17 802.392 1743.13 795.074C1703.08 787.757 1661.03 784.066 1617 784C1554.93 784 1495.32 791.775 1438.15 807.324C1380.98 822.874 1326.27 844.499 1274 872.2ZM1274 1411.2V1244.6C1327.9 1221.73 1383.04 1204.58 1439.42 1193.15C1495.81 1181.72 1555 1176 1617 1176C1659.47 1176 1701.12 1179.27 1741.95 1185.8C1782.78 1192.33 1822.8 1200.5 1862 1210.3V1367.1C1822.8 1352.4 1783.17 1341.36 1743.13 1333.98C1703.08 1326.59 1661.03 1322.93 1617 1323C1554.93 1323 1495.32 1330.35 1438.15 1345.05C1380.98 1359.75 1326.27 1381.8 1274 1411.2ZM1274 1141.7V975.1C1327.9 952.233 1383.04 935.084 1439.42 923.65C1495.81 912.217 1555 906.5 1617 906.5C1659.47 906.5 1701.12 909.767 1741.95 916.3C1782.78 922.834 1822.8 931 1862 940.8V1097.6C1822.8 1082.9 1783.17 1071.86 1743.13 1064.48C1703.08 1057.09 1661.03 1053.43 1617 1053.5C1554.93 1053.5 1495.32 1061.27 1438.15 1076.82C1380.98 1092.37 1326.27 1114 1274 1141.7ZM1176 1572.9C1247.87 1538.6 1320.16 1512.86 1392.87 1495.68C1465.59 1478.49 1540.3 1469.93 1617 1470C1675.8 1470 1733.39 1474.9 1789.77 1484.7C1846.16 1494.5 1902.9 1509.2 1960 1528.8V558.6C1906.1 535.734 1850.14 518.584 1792.13 507.15C1734.11 495.717 1675.73 490 1617 490C1540.23 490 1464.28 499.8 1389.15 519.4C1314.02 539 1242.97 568.4 1176 607.6V1572.9ZM1078 1862C999.6 1799.93 914.666 1751.75 823.2 1717.45C731.733 1683.15 637 1666 539 1666C470.4 1666 403.041 1674.98 336.924 1692.95C270.807 1710.92 207.499 1736.23 147 1768.9C112.7 1786.87 79.6413 1786.05 47.824 1766.45C16.0067 1746.85 0.0653333 1718.27 0 1680.7V499.8C0 481.834 4.508 464.684 13.524 448.35C22.54 432.017 35.9987 419.767 53.9 411.6C130.667 374.034 209.491 345.026 290.374 324.576C371.257 304.127 454.132 293.935 539 294C633.733 294 726.441 306.25 817.124 330.75C907.806 355.25 994.765 392 1078 441C1161.3 392 1248.29 355.25 1338.97 330.75C1429.66 306.25 1522.33 294 1617 294C1701.93 294 1784.84 304.225 1865.72 324.674C1946.61 345.124 2025.4 374.099 2102.1 411.6C2120.07 419.767 2133.56 432.017 2142.57 448.35C2151.59 464.684 2156.06 481.834 2156 499.8V1680.7C2156 1718.27 2140.09 1746.85 2108.27 1766.45C2076.46 1786.05 2043.36 1786.87 2009 1768.9C1948.57 1736.23 1885.29 1710.92 1819.17 1692.95C1753.06 1674.98 1685.66 1666 1617 1666C1519 1666 1424.27 1683.15 1332.8 1717.45C1241.33 1751.75 1156.4 1799.93 1078 1862Z" fill="#3178C6"/>
</svg>
