<svg width="2156" height="2156" viewBox="0 0 2156 2156" fill="none" xmlns="http://www.w3.org/2000/svg">
<path d="M717.217 1473.43C707.11 1407.5 679.318 1353.95 611.859 1328.06C585.456 1317.95 562.591 1299.51 536.567 1287.89C507.007 1274.63 476.94 1262 445.737 1253.79C422.114 1247.48 400.133 1258.08 386.111 1278.8C372.846 1298.25 382.447 1316.56 393.564 1332.85C406.07 1351.17 419.966 1368.6 433.989 1385.77C457.233 1414.32 481.867 1441.73 504.48 1470.65C526.082 1498.31 544.526 1529 541.368 1565.63C534.42 1645.96 498.037 1712.52 439.421 1766.7C432.978 1772.51 421.609 1776.68 413.271 1775.92C375.878 1771.88 341.896 1757.73 314.482 1731.59C283.027 1701.66 287.827 1666.42 325.473 1644.57C334.442 1639.39 343.791 1634.59 352.002 1628.27C374.994 1610.97 382.7 1581.42 370.193 1555.78C364.256 1543.4 357.56 1530.01 347.707 1521.05C299.576 1477.22 252.325 1432 200.783 1392.09C75.8401 1295.09 11.6696 1166.77 1.8118 1011.42C-9.30508 838.89 30.741 677.857 121.824 530.461C156.311 474.51 196.484 421.207 258.132 393.551C300.073 374.732 346.056 364.123 390.907 352.377C514.334 319.918 638.889 295.542 767.369 317.266C878.032 335.832 959.013 392.793 996.154 501.538C1020.53 572.645 1026.35 646.152 1018.77 721.431C1003.86 869.333 894.586 1001.57 752.083 1040.72C690.309 1057.65 656.579 1048.17 619.439 996.77C592.783 959.764 570.676 919.474 546.8 880.443C543.263 874.633 540.736 867.939 537.704 861.75C534.799 855.562 531.641 849.626 528.609 843.437C537.578 907.597 552.485 969.362 587.478 1024.43C606.427 1054.36 631.693 1076.46 668.707 1079.74C804.888 1092 919.851 1047.29 1001.46 937.779C1092.79 815.263 1112.89 674.312 1086.48 525.91C1081.3 496.608 1072.58 467.938 1066.39 438.762C1062.22 419.944 1069.68 406.051 1088.25 399.483C1096.84 396.578 1105.68 394.178 1114.27 392.41C1225.7 368.413 1338.38 360.456 1451.95 371.95C1580.81 384.832 1702.72 420.196 1811.74 491.813C1982.41 604.094 2088.15 763.868 2145.63 957.111C2153.96 985.15 2155.23 1015.84 2155.99 1045.4C2156.49 1065.1 2143.86 1070.28 2128.82 1057.9C2112.28 1044.39 2097.12 1028.98 2082.84 1013.07C2069.58 998.037 2058.97 980.86 2046.08 965.072C2036.1 952.695 2027.38 954.589 2022.58 969.998C2019.55 979.344 2016.9 988.564 2014.25 997.91C1984.43 1104.26 1937.44 1201.25 1861.26 1282.97C1850.65 1294.47 1841.18 1311.52 1839.91 1326.67C1836.63 1368.61 1834.23 1411.42 1838.27 1453.23C1846.61 1543.03 1859.62 1632.45 1869.73 1722.12C1875.41 1772.77 1859.11 1802.58 1811.49 1820.14C1778.01 1832.39 1742.13 1841.36 1706.76 1843.88C1650.42 1847.8 1593.57 1845.02 1536.98 1845.02C1535.46 1781.87 1540.89 1719.85 1481.52 1686C1493.01 1639.15 1506.28 1594.69 1514.24 1549.22C1520.81 1511.46 1515.25 1474.32 1488.72 1443.38C1463.83 1414.2 1432.63 1406.25 1404.08 1422.92C1318.05 1473.06 1228.6 1473.31 1137.52 1440.47C1095.7 1425.32 1066.52 1433.91 1043.4 1472.05C1018.51 1513.1 1008.03 1559.2 1010.81 1605.81C1014.34 1664.54 1024.58 1722.63 1032.41 1781.11C1036.7 1813.82 1033.04 1822.28 1000.58 1830.62C928.442 1848.93 855.045 1850.95 781.265 1845.02C777.349 1844.64 773.433 1843 770.906 1842.37C767.243 1781.11 773.685 1717.45 700.668 1684.87C733.008 1616.28 728.586 1545.18 717.469 1474.07L717.217 1473.44V1473.43ZM281.128 1233.08C291.866 1222.98 300.456 1207.19 303.488 1192.67C311.067 1156.29 283.781 1107.54 252.198 1094.02C235.397 1086.7 220.743 1089.35 208.868 1102.74C179.939 1135.45 151.389 1168.54 122.961 1201.76C118.16 1207.45 113.865 1214.14 110.454 1220.83C99.0845 1242.68 105.78 1258.6 130.035 1264.53C144.689 1268.2 159.848 1268.95 174.881 1271.1C214.043 1267.31 251.942 1260.75 281.123 1233.21L281.128 1233.08ZM284.412 869.459C284.286 843.441 262.557 821.717 236.913 821.591C210.51 821.465 187.771 845.083 188.655 871.101C189.792 897.245 211.521 918.211 237.544 917.706C263.821 917.327 284.791 895.856 284.538 869.585L284.412 869.459Z" fill="#6E81B6"/>
</svg>
