<svg width="2156" height="2156" viewBox="0 0 2156 2156" fill="none" xmlns="http://www.w3.org/2000/svg">
<path d="M612.826 1294.95H342.581V1047.7H612.826C652.698 1047.7 684.694 1038.91 708.814 1021.32C733.426 1003.73 751.393 979.621 762.715 949C774.529 917.727 780.436 882.545 780.436 843.455C780.436 803.061 774.529 765.599 762.715 731.068C751.393 695.886 733.426 667.545 708.814 646.045C684.694 624.545 652.698 613.795 612.826 613.795H429.709V1789.45H189V366.545H612.826C698.477 366.545 771.822 387.068 832.86 428.114C894.391 469.159 941.401 525.515 973.89 597.182C1006.87 668.197 1023.36 749.636 1023.36 841.5C1023.36 933.364 1006.87 1013.17 973.89 1080.93C941.401 1148.69 894.391 1201.46 832.86 1239.25C771.822 1276.39 698.477 1294.95 612.826 1294.95Z" fill="#4395FF"/>
<path d="M1727.03 1414.18C1727.03 1390.08 1724.32 1368.58 1718.91 1349.68C1713.49 1330.14 1703.65 1312.22 1689.37 1295.93C1675.1 1279.64 1654.91 1263.36 1628.83 1247.07C1602.74 1230.13 1568.53 1212.86 1526.19 1195.27C1477.95 1174.42 1431.93 1150.97 1388.12 1124.91C1344.8 1098.2 1306.16 1067.25 1272.19 1032.07C1238.23 996.886 1211.4 955.841 1191.71 908.932C1172.51 862.023 1162.91 807.295 1162.91 744.75C1162.91 684.159 1173 629.432 1193.19 580.568C1213.37 531.705 1241.67 490.008 1278.1 455.477C1314.53 420.295 1357.35 393.583 1406.58 375.341C1455.8 356.447 1509.95 347 1569.02 347C1647.78 347 1716.94 365.568 1776.5 402.705C1836.55 439.189 1883.32 490.659 1916.79 557.114C1950.26 622.917 1967 699.47 1967 786.773H1727.77C1727.77 748.333 1721.61 714.455 1709.31 685.136C1697.49 655.167 1679.28 631.712 1654.67 614.773C1630.55 597.833 1600.28 589.364 1563.85 589.364C1528.41 589.364 1498.63 596.53 1474.51 610.864C1450.88 624.545 1432.91 643.439 1420.6 667.546C1408.79 691.652 1402.88 718.038 1402.88 746.705C1402.88 769.508 1407.31 790.356 1416.17 809.25C1425.53 827.492 1438.82 844.758 1456.05 861.045C1473.77 876.682 1495.43 891.667 1521.02 906C1546.62 920.333 1575.91 934.015 1608.89 947.046C1666.48 971.152 1717.43 997.864 1761.73 1027.18C1806.53 1056.5 1844.18 1089.73 1874.7 1126.86C1905.22 1164 1928.11 1206.02 1943.37 1252.93C1959.12 1299.84 1967 1352.94 1967 1412.23C1967 1475.42 1957.65 1531.45 1938.94 1580.32C1920.73 1629.18 1894.15 1670.88 1859.2 1705.41C1824.74 1739.29 1783.39 1765.02 1735.15 1782.61C1686.91 1800.2 1633.01 1809 1573.45 1809C1519.3 1809 1465.89 1799.88 1413.22 1781.64C1360.55 1762.74 1312.8 1734.08 1269.98 1695.64C1227.64 1657.2 1193.68 1608.33 1168.08 1549.05C1142.98 1489.11 1130.42 1418.09 1130.42 1336H1371.13C1371.13 1379 1375.81 1415.48 1385.16 1445.45C1394.52 1474.77 1407.81 1498.55 1425.03 1516.8C1442.76 1535.04 1464.17 1548.07 1489.27 1555.89C1514.38 1563.7 1542.44 1567.61 1573.45 1567.61C1609.38 1567.61 1638.42 1561.1 1660.58 1548.07C1683.22 1534.39 1699.96 1515.82 1710.78 1492.36C1721.61 1468.91 1727.03 1442.85 1727.03 1414.18Z" fill="#4395FF"/>
<path d="M612.826 1294.95H342.581V1047.7H612.826C652.698 1047.7 684.694 1038.91 708.814 1021.32C733.426 1003.73 751.393 979.621 762.715 949C774.529 917.727 780.436 882.545 780.436 843.455C780.436 803.061 774.529 765.599 762.715 731.068C751.393 695.886 733.426 667.545 708.814 646.045C684.694 624.545 652.698 613.795 612.826 613.795H429.709V1789.45H189V366.545H612.826C698.477 366.545 771.822 387.068 832.86 428.114C894.391 469.159 941.401 525.515 973.89 597.182C1006.87 668.197 1023.36 749.636 1023.36 841.5C1023.36 933.364 1006.87 1013.17 973.89 1080.93C941.401 1148.69 894.391 1201.46 832.86 1239.25C771.822 1276.39 698.477 1294.95 612.826 1294.95Z" stroke="#4395FF" stroke-width="25"/>
<path d="M1727.03 1414.18C1727.03 1390.08 1724.32 1368.58 1718.91 1349.68C1713.49 1330.14 1703.65 1312.22 1689.37 1295.93C1675.1 1279.64 1654.91 1263.36 1628.83 1247.07C1602.74 1230.13 1568.53 1212.86 1526.19 1195.27C1477.95 1174.42 1431.93 1150.97 1388.12 1124.91C1344.8 1098.2 1306.16 1067.25 1272.19 1032.07C1238.23 996.886 1211.4 955.841 1191.71 908.932C1172.51 862.023 1162.91 807.295 1162.91 744.75C1162.91 684.159 1173 629.432 1193.19 580.568C1213.37 531.705 1241.67 490.008 1278.1 455.477C1314.53 420.295 1357.35 393.583 1406.58 375.341C1455.8 356.447 1509.95 347 1569.02 347C1647.78 347 1716.94 365.568 1776.5 402.705C1836.55 439.189 1883.32 490.659 1916.79 557.114C1950.26 622.917 1967 699.47 1967 786.773H1727.77C1727.77 748.333 1721.61 714.455 1709.31 685.136C1697.49 655.167 1679.28 631.712 1654.67 614.773C1630.55 597.833 1600.28 589.364 1563.85 589.364C1528.41 589.364 1498.63 596.53 1474.51 610.864C1450.88 624.545 1432.91 643.439 1420.6 667.546C1408.79 691.652 1402.88 718.038 1402.88 746.705C1402.88 769.508 1407.31 790.356 1416.17 809.25C1425.53 827.492 1438.82 844.758 1456.05 861.045C1473.77 876.682 1495.43 891.667 1521.02 906C1546.62 920.333 1575.91 934.015 1608.89 947.046C1666.48 971.152 1717.43 997.864 1761.73 1027.18C1806.53 1056.5 1844.18 1089.73 1874.7 1126.86C1905.22 1164 1928.11 1206.02 1943.37 1252.93C1959.12 1299.84 1967 1352.94 1967 1412.23C1967 1475.42 1957.65 1531.45 1938.94 1580.32C1920.73 1629.18 1894.15 1670.88 1859.2 1705.41C1824.74 1739.29 1783.39 1765.02 1735.15 1782.61C1686.91 1800.2 1633.01 1809 1573.45 1809C1519.3 1809 1465.89 1799.88 1413.22 1781.64C1360.55 1762.74 1312.8 1734.08 1269.98 1695.64C1227.64 1657.2 1193.68 1608.33 1168.08 1549.05C1142.98 1489.11 1130.42 1418.09 1130.42 1336H1371.13C1371.13 1379 1375.81 1415.48 1385.16 1445.45C1394.52 1474.77 1407.81 1498.55 1425.03 1516.8C1442.76 1535.04 1464.17 1548.07 1489.27 1555.89C1514.38 1563.7 1542.44 1567.61 1573.45 1567.61C1609.38 1567.61 1638.42 1561.1 1660.58 1548.07C1683.22 1534.39 1699.96 1515.82 1710.78 1492.36C1721.61 1468.91 1727.03 1442.85 1727.03 1414.18Z" stroke="#4395FF" stroke-width="25"/>
</svg>
