<svg width="2156" height="2156" viewBox="0 0 2156 2156" fill="none" xmlns="http://www.w3.org/2000/svg">
<g clip-path="url(#clip0_114_2)">
<path d="M847.35 0C765.577 0 687.154 32.484 629.332 90.3058C571.51 148.128 539.026 226.551 539.026 308.323V489.436H1001.51C1043.56 489.436 1078.05 550.885 1078.05 592.929H308.323C226.551 592.929 148.128 625.413 90.3058 683.235C32.4839 741.057 0 819.48 0 901.252V1308.86C0 1390.64 32.4839 1469.06 90.3058 1526.88C148.128 1584.7 226.551 1617.19 308.323 1617.19H435.533V1328.27C435.391 1287.83 443.234 1247.76 458.611 1210.36C473.988 1172.96 496.597 1138.96 525.141 1110.32C553.686 1081.67 587.604 1058.94 624.951 1043.44C662.298 1027.93 702.34 1019.95 742.778 1019.95H1308.76C1479.09 1019.95 1617.08 882.925 1617.08 712.593V308.323C1617.08 226.551 1584.6 148.128 1526.77 90.3058C1468.95 32.484 1390.53 0 1308.76 0H847.35ZM769.73 173.567C812.852 173.567 847.35 186.503 847.35 250.108C847.35 313.713 812.852 346.163 769.73 346.163C727.686 346.163 693.188 313.821 693.188 250.216C693.188 186.611 727.686 173.567 769.73 173.567Z" fill="#0288D1"/>
<path d="M1720.46 539.029V827.948C1720.59 868.377 1712.74 908.434 1697.35 945.823C1681.97 983.212 1659.36 1017.2 1630.82 1045.83C1602.27 1074.46 1568.36 1097.18 1531.02 1112.68C1493.68 1128.18 1453.65 1136.16 1413.22 1136.16H847.347C806.908 1136.02 766.839 1143.86 729.438 1159.24C692.037 1174.62 658.039 1197.23 629.394 1225.77C600.75 1254.32 578.022 1288.23 562.514 1325.58C547.006 1362.93 539.023 1402.97 539.023 1443.41V1847.68C539.023 1929.45 571.507 2007.87 629.329 2065.7C687.151 2123.52 765.574 2156 847.347 2156H1308.75C1390.51 2156 1468.91 2123.53 1526.73 2065.73C1584.55 2007.93 1617.05 1929.54 1617.08 1847.79V1666.67H1154.48C1112.44 1666.67 1078.05 1605.22 1078.05 1563.18H1847.78C1929.55 1563.18 2007.98 1530.7 2065.8 1472.87C2123.62 1415.05 2156.1 1336.63 2156.1 1254.86V847.352C2156.1 765.58 2123.62 687.157 2065.8 629.335C2007.98 571.513 1929.55 539.029 1847.78 539.029H1720.46ZM681.326 1025.55L680.895 1025.99L684.992 1025.55H681.326ZM1386.37 1809.95C1428.42 1809.95 1462.91 1842.29 1462.91 1905.89C1462.91 1915.94 1460.93 1925.9 1457.09 1935.18C1453.24 1944.47 1447.6 1952.91 1440.5 1960.02C1433.39 1967.12 1424.95 1972.76 1415.66 1976.61C1406.38 1980.45 1396.42 1982.43 1386.37 1982.43C1343.25 1982.43 1308.75 1969.5 1308.75 1905.89C1308.75 1842.29 1343.25 1809.95 1386.37 1809.95Z" fill="#FDD835"/>
</g>
<defs>
<clipPath id="clip0_114_2">
<rect width="2156" height="2156" fill="white"/>
</clipPath>
</defs>
</svg>
