<svg width="2500" height="2500" viewBox="0 0 2500 2500" fill="none" xmlns="http://www.w3.org/2000/svg">
<g clip-path="url(#clip0_635_6)">
<path d="M2482.92 1219.36L2377.97 1154.38C2377.08 1144.19 2376.09 1134 2374.98 1123.82L2465.18 1039.69C2469.69 1035.5 2473.05 1030.22 2474.94 1024.36C2476.83 1018.5 2477.18 1012.26 2475.97 1006.22C2474.78 1000.18 2472.07 994.546 2468.08 989.855C2464.1 985.163 2458.98 981.572 2453.21 979.424L2337.91 936.309C2335.01 926.352 2332 916.43 2328.88 906.543L2400.8 806.65C2404.4 801.657 2406.67 795.825 2407.38 789.709C2408.1 783.593 2407.24 777.396 2404.88 771.707C2402.53 766.017 2398.75 761.025 2393.93 757.203C2389.1 753.382 2383.37 750.859 2377.29 749.873L2255.71 730.098C2250.99 720.879 2246.06 711.797 2241.1 702.793L2292.19 590.654C2294.76 585.059 2295.85 578.896 2295.36 572.758C2294.87 566.619 2292.81 560.71 2289.38 555.596C2285.97 550.465 2281.31 546.296 2275.83 543.488C2270.35 540.68 2264.24 539.328 2258.09 539.561L2134.69 543.857C2128.31 535.875 2121.82 527.993 2115.2 520.215L2143.55 400.02C2144.97 394.025 2144.83 387.767 2143.15 381.842C2141.46 375.917 2138.29 370.522 2133.93 366.172C2129.58 361.817 2124.18 358.646 2118.26 356.961C2112.34 355.276 2106.09 355.132 2100.1 356.543L1979.93 384.873C1972.13 378.259 1964.23 371.761 1956.24 365.381L1960.56 241.992C1960.79 235.841 1959.44 229.733 1956.63 224.253C1953.83 218.773 1949.67 214.104 1944.54 210.693C1939.43 207.268 1933.52 205.209 1927.38 204.714C1921.24 204.218 1915.08 205.302 1909.48 207.861L1797.37 258.975C1788.33 253.984 1779.23 249.1 1770.07 244.326L1750.24 122.725C1749.25 116.653 1746.73 110.934 1742.9 106.112C1739.08 101.29 1734.09 97.5231 1728.41 95.169C1722.73 92.8148 1716.53 91.9512 1710.42 92.6599C1704.31 93.3686 1698.48 95.6262 1693.49 99.2187L1593.53 171.143C1583.69 168.018 1573.8 165 1563.82 162.139L1520.7 46.8164C1518.56 41.039 1514.97 35.9082 1510.27 31.9143C1505.58 27.9204 1499.94 25.1968 1493.9 24.0039C1487.86 22.8169 1481.63 23.1856 1475.78 25.0752C1469.93 26.9649 1464.66 30.3133 1460.46 34.8046L1376.33 125.068C1366.15 123.928 1355.96 122.932 1345.76 122.08L1280.79 17.0996C1277.55 11.8684 1273.03 7.55103 1267.66 4.55691C1262.28 1.5628 1256.23 -0.00878906 1250.08 -0.00878906C1243.93 -0.00878906 1237.88 1.5628 1232.51 4.55691C1227.13 7.55103 1222.61 11.8684 1219.37 17.0996L1154.4 122.08C1144.19 122.931 1133.99 123.927 1123.81 125.068L1039.66 34.8046C1035.46 30.2966 1030.19 26.9367 1024.33 25.0447C1018.47 23.1527 1012.22 22.7914 1006.18 23.9954C1000.15 25.1994 994.515 27.9284 989.83 31.923C985.144 35.9175 981.558 41.0446 979.414 46.8164L936.309 162.139C926.318 165 916.436 168.037 906.572 171.143L806.631 99.2187C801.638 95.6096 795.803 93.3419 789.684 92.6323C783.565 91.9227 777.366 92.7951 771.68 95.166C765.999 97.5254 761.014 101.294 757.195 106.116C753.376 110.938 750.849 116.654 749.854 122.725L730.029 244.326C720.85 249.082 711.777 253.975 702.725 258.975L590.605 207.852C585.009 205.29 578.85 204.207 572.715 204.704C566.581 205.202 560.677 207.264 555.566 210.693C550.439 214.102 546.271 218.77 543.464 224.25C540.656 229.73 539.302 235.839 539.531 241.992L543.828 365.381C535.845 371.773 527.947 378.271 520.137 384.873L399.971 356.553C393.976 355.148 387.723 355.294 381.801 356.977C375.878 358.66 370.483 361.825 366.123 366.172C361.762 370.522 358.587 375.917 356.901 381.842C355.216 387.767 355.076 394.025 356.494 400.02L384.805 520.215C378.232 527.998 371.738 535.879 365.361 543.857L241.963 539.561C235.818 539.367 229.724 540.735 224.252 543.538C218.779 546.34 214.108 550.486 210.674 555.586C207.25 560.702 205.191 566.609 204.693 572.746C204.196 578.882 205.276 585.044 207.832 590.644L258.945 702.793C253.975 711.797 249.063 720.879 244.297 730.098L122.725 749.873C116.649 750.864 110.928 753.39 106.103 757.212C101.278 761.034 97.5094 766.026 95.1548 771.713C92.8002 777.401 91.9376 783.595 92.6489 789.71C93.3601 795.824 95.6216 801.655 99.2188 806.65L171.143 906.553C168.018 916.416 164.98 926.318 162.109 936.309L46.7969 979.424C41.0381 981.587 35.9267 985.184 31.9462 989.875C27.9658 994.565 25.2481 1000.19 24.0503 1006.23C22.8525 1012.26 23.2142 1018.5 25.1013 1024.36C26.9883 1030.21 30.3382 1035.49 34.834 1039.69L125.039 1123.81C123.916 1133.96 122.92 1144.19 122.061 1154.38L17.0899 1219.36C11.8595 1222.59 7.54383 1227.11 4.55274 1232.49C1.56164 1237.87 -0.00555152 1243.92 1.4776e-05 1250.07C1.4776e-05 1262.61 6.47462 1274.22 17.0996 1280.76L122.061 1345.73C122.92 1355.96 123.916 1366.16 125.039 1376.31L34.8242 1460.46C30.3205 1464.65 26.9635 1469.93 25.0719 1475.78C23.1804 1481.64 22.8172 1487.88 24.0167 1493.92C25.2163 1499.95 27.9388 1505.58 31.9258 1510.27C35.9127 1514.96 41.0318 1518.55 46.7969 1520.7L162.109 1563.82C164.98 1573.8 168.018 1583.71 171.143 1593.57L99.2188 1693.49C95.6148 1698.48 93.3485 1704.31 92.6356 1710.43C91.9226 1716.55 92.7867 1722.74 95.1456 1728.43C97.5046 1734.12 101.28 1739.11 106.112 1742.93C110.945 1746.75 116.674 1749.27 122.754 1750.24L244.307 1770.02C249.063 1779.24 253.936 1788.32 258.955 1797.36L207.832 1909.47C205.272 1915.07 204.189 1921.23 204.686 1927.37C205.184 1933.51 207.245 1939.42 210.674 1944.53C214.083 1949.66 218.75 1953.82 224.228 1956.63C229.706 1959.43 235.812 1960.79 241.963 1960.56L365.303 1956.24C371.738 1964.26 378.213 1972.12 384.805 1979.93L356.494 2100.15C355.077 2106.13 355.218 2112.38 356.903 2118.29C358.589 2124.21 361.763 2129.59 366.123 2133.93C370.47 2138.29 375.866 2141.47 381.793 2143.15C387.72 2144.83 393.979 2144.96 399.971 2143.53L520.137 2115.22C527.949 2121.87 535.859 2128.31 543.838 2134.66L539.541 2258.09C539.319 2264.24 540.675 2270.34 543.478 2275.82C546.281 2281.3 550.44 2285.97 555.558 2289.39C560.675 2292.8 566.583 2294.86 572.717 2295.35C578.852 2295.84 585.01 2294.75 590.605 2292.19L702.725 2241.1C711.752 2246.12 720.855 2251 730.029 2255.74L749.854 2377.28C750.833 2383.35 753.353 2389.08 757.174 2393.91C760.994 2398.74 765.988 2402.51 771.68 2404.86C777.368 2407.22 783.562 2408.09 789.678 2407.38C795.794 2406.67 801.629 2404.42 806.631 2400.83L906.523 2328.86C916.387 2331.98 926.299 2335.04 936.279 2337.91L979.395 2453.18C981.541 2458.95 985.132 2464.08 989.824 2468.06C994.515 2472.05 1000.15 2474.76 1006.19 2475.95C1012.22 2477.16 1018.47 2476.81 1024.33 2474.92C1030.18 2473.03 1035.46 2469.66 1039.64 2465.15L1123.79 2374.93C1133.95 2376.1 1144.16 2377.08 1154.38 2377.99L1219.36 2482.95C1222.6 2488.17 1227.12 2492.48 1232.49 2495.47C1237.86 2498.46 1243.9 2500.03 1250.05 2500.04C1256.2 2500.04 1262.25 2498.47 1267.62 2495.48C1273 2492.49 1277.52 2488.17 1280.76 2482.95L1345.73 2377.99C1355.96 2377.08 1366.16 2376.1 1376.31 2374.93L1460.44 2465.15C1464.62 2469.66 1469.89 2473.02 1475.75 2474.91C1481.6 2476.8 1487.85 2477.16 1493.88 2475.95C1499.92 2474.76 1505.55 2472.04 1510.24 2468.06C1514.93 2464.07 1518.52 2458.95 1520.67 2453.18L1563.79 2337.91C1573.77 2335.04 1583.69 2331.98 1593.55 2328.86L1693.47 2400.83C1698.46 2404.42 1704.3 2406.68 1710.41 2407.39C1716.53 2408.09 1722.72 2407.22 1728.41 2404.86C1734.09 2402.51 1739.08 2398.73 1742.9 2393.9C1746.72 2389.08 1749.24 2383.35 1750.22 2377.28L1770.05 2255.74C1779.22 2250.99 1788.29 2246.04 1797.34 2241.09L1909.46 2292.19C1915.06 2294.76 1921.22 2295.85 1927.36 2295.36C1933.5 2294.88 1939.41 2292.83 1944.53 2289.41C1949.65 2285.99 1953.81 2281.31 1956.61 2275.83C1959.41 2270.35 1960.77 2264.24 1960.54 2258.09L1956.24 2134.67C1964.23 2128.31 1972.12 2121.83 1979.9 2115.22L2100.08 2143.53C2112.29 2146.4 2125.08 2142.84 2133.9 2133.93C2138.26 2129.59 2141.43 2124.21 2143.12 2118.29C2144.8 2112.38 2144.94 2106.13 2143.53 2100.15L2115.22 1979.93C2121.82 1972.12 2128.31 1964.26 2134.66 1956.24L2258.06 1960.56C2264.21 1960.79 2270.31 1959.44 2275.79 1956.63C2281.27 1953.83 2285.94 1949.67 2289.35 1944.54C2292.78 1939.42 2294.84 1933.51 2295.34 1927.37C2295.83 1921.23 2294.74 1915.06 2292.17 1909.46L2241.07 1797.37C2246.06 1788.32 2250.97 1779.24 2255.69 1770.03L2377.28 1750.24C2383.35 1749.27 2389.08 1746.75 2393.91 1742.92C2398.73 1739.1 2402.49 1734.1 2404.83 1728.41C2407.19 1722.72 2408.06 1716.53 2407.35 1710.42C2406.64 1704.31 2404.38 1698.48 2400.78 1693.49L2328.86 1593.58C2331.96 1583.71 2335 1573.8 2337.89 1563.82L2453.18 1520.7C2458.95 1518.56 2464.08 1514.96 2468.06 1510.27C2472.05 1505.58 2474.76 1499.94 2475.95 1493.9C2477.16 1487.86 2476.81 1481.62 2474.92 1475.77C2473.03 1469.91 2469.66 1464.64 2465.15 1460.46L2374.96 1376.31C2376.05 1366.15 2377.06 1355.94 2377.94 1345.74L2482.9 1280.76C2488.13 1277.53 2492.45 1273.01 2495.44 1267.64C2498.44 1262.27 2500.01 1256.22 2500 1250.07C2500 1237.56 2493.55 1225.93 2482.92 1219.36ZM1780.46 2090.02C1740.38 2081.38 1714.89 2041.87 1723.5 2001.67C1732.07 1961.51 1771.54 1935.96 1811.61 1944.6C1851.69 1953.18 1877.22 1992.75 1868.62 2032.88C1860.03 2073.02 1820.52 2098.6 1780.46 2090.02ZM1744.79 1848.82C1736.1 1846.95 1727.12 1846.82 1718.37 1848.43C1709.62 1850.04 1701.28 1853.35 1693.81 1858.19C1686.35 1863.03 1679.91 1869.29 1674.87 1876.61C1669.83 1883.94 1666.28 1892.19 1664.42 1900.89L1627.16 2074.79C1512.17 2126.97 1384.48 2155.97 1250 2155.97C1112.44 2155.97 981.973 2125.54 864.941 2071.12L827.695 1897.24C819.863 1860.64 783.887 1837.33 747.344 1845.19L593.828 1878.15C565.297 1848.79 538.779 1817.53 514.453 1784.6H1261.43C1269.87 1784.6 1275.51 1783.07 1275.51 1775.37V1511.14C1275.51 1503.46 1269.87 1501.92 1261.42 1501.92H1042.97V1334.44H1279.25C1300.81 1334.44 1394.57 1340.6 1424.54 1460.44C1433.94 1497.29 1454.54 1617.18 1468.64 1655.56C1482.69 1698.6 1539.86 1784.59 1600.8 1784.59H1973.02C1977.25 1784.59 1981.76 1784.11 1986.51 1783.25C1960.69 1818.33 1932.4 1851.51 1901.86 1882.57L1744.79 1848.82ZM711.689 2086.39C671.602 2095.04 632.139 2069.48 623.516 2029.33C614.941 1989.1 640.43 1949.62 680.508 1940.98C720.596 1932.4 760.078 1957.96 768.672 1998.11C777.246 2038.24 751.748 2077.79 711.689 2086.39ZM428.32 937.363C444.951 974.883 428.027 1018.86 390.557 1035.46C353.086 1052.11 309.229 1035.17 292.607 997.617C275.977 960.068 292.891 916.172 330.371 899.521C339.286 895.568 348.892 893.41 358.641 893.172C368.391 892.933 378.091 894.619 387.188 898.133C396.285 901.647 404.6 906.919 411.658 913.649C418.716 920.379 424.378 928.444 428.32 937.363ZM341.23 1143.81L501.152 1072.74C517.569 1065.44 530.416 1051.92 536.869 1035.15C543.322 1018.38 542.853 999.735 535.566 983.31L502.637 908.838H632.168V1492.71H370.83C347.664 1411.15 335.944 1326.78 336.006 1242C336.006 1208.82 337.793 1176.04 341.23 1143.81ZM1043.01 1087.1V915H1351.46C1367.4 915 1463.96 933.418 1463.96 1005.62C1463.96 1065.58 1389.9 1087.07 1328.99 1087.07H1043.01V1087.1ZM2164.02 1242C2164.02 1264.83 2163.18 1287.43 2161.51 1309.85H2067.73C2058.35 1309.85 2054.57 1316.03 2054.57 1325.21V1368.28C2054.57 1469.65 1997.41 1491.7 1947.32 1497.31C1899.63 1502.69 1846.74 1477.34 1840.22 1448.15C1812.08 1289.89 1765.2 1256.09 1691.15 1197.69C1783.05 1139.34 1878.65 1053.25 1878.65 938.018C1878.65 813.603 1793.36 735.234 1735.21 696.807C1653.65 643.037 1563.34 632.256 1538.97 632.256H569.131C700.645 485.478 878.887 381.504 1080.48 343.672L1194.79 463.594C1200.93 470.031 1208.27 475.195 1216.4 478.791C1224.53 482.386 1233.3 484.342 1242.18 484.548C1251.07 484.753 1259.91 483.202 1268.2 479.985C1276.49 476.769 1284.06 471.948 1290.49 465.801L1418.4 343.457C1686.42 393.359 1913.34 560.195 2044.11 789.092L1956.54 986.875C1941.43 1021.1 1956.86 1061.13 1990.99 1076.3L2159.58 1151.18C2162.49 1181.11 2164.02 1211.35 2164.02 1242ZM1194.84 241.65C1224.46 213.281 1271.45 214.404 1299.8 244.062C1328.11 273.809 1327.03 320.84 1297.34 349.189C1267.72 377.568 1220.74 376.465 1192.38 346.748C1178.79 332.474 1171.42 313.393 1171.88 293.69C1172.34 273.988 1180.6 255.273 1194.84 241.65ZM2063.82 940.967C2067.76 932.048 2073.42 923.993 2080.48 917.264C2087.53 910.535 2095.85 905.264 2104.94 901.752C2114.04 898.24 2123.74 896.556 2133.48 896.796C2143.23 897.037 2152.84 899.198 2161.75 903.154C2199.23 919.775 2216.14 963.73 2199.51 1001.25C2195.57 1010.17 2189.91 1018.23 2182.86 1024.96C2175.8 1031.7 2167.48 1036.97 2158.39 1040.49C2149.29 1044 2139.59 1045.69 2129.84 1045.45C2120.08 1045.21 2110.48 1043.05 2101.56 1039.09C2064.13 1022.46 2047.22 978.545 2063.82 940.967Z" fill="#F74C00"/>
</g>
<defs>
<clipPath id="clip0_635_6">
<rect width="2500" height="2500" fill="white"/>
</clipPath>
</defs>
</svg>
