<svg width="2156" height="2156" viewBox="0 0 2156 2156" fill="none" xmlns="http://www.w3.org/2000/svg">
<path d="M1090.71 1287.39C1053.64 1304.42 1013.02 1326.62 931.705 1371.25C900.876 1388.59 868.659 1405.93 838.677 1422.27C836.596 1420.19 834.438 1417.57 832.357 1415.41C671.504 1243.53 374 1122.14 386.64 891.301C391.342 807.212 420.244 586.47 957.987 318.404C1400.54 100.282 1752.69 160.709 1813.5 294.742C1900.91 485.81 1624.75 841.356 1167.7 892.919C1117.12 903.174 1064.88 901.932 1014.84 889.285C964.798 876.638 918.239 852.91 878.601 819.852C854.4 793.57 850.778 792.028 841.837 797.27C827.116 804.977 836.596 828.793 841.837 842.435C859.271 874.001 882.857 901.751 911.2 924.044C939.543 946.338 972.068 962.722 1006.85 972.229C1186.71 1011.11 1374.24 992.531 1542.98 919.125C1819.98 811.914 2036.25 513.865 1972.89 263.989C1909.31 10.644 1488.79 -72.9051 1090.94 68.4501C841.781 152.415 611.582 284.592 413.462 457.447C194.264 662.466 159.581 840.663 173.763 915.271C224.786 1180.18 589.961 1352.59 736.4 1480.31C728.796 1484.42 722.142 1488.09 716.438 1491.33C643.373 1527.63 364.828 1673.22 295.385 1827.22C216.539 2001.72 308.025 2126.81 368.451 2143.61C459.512 2165.45 555.121 2158.29 641.915 2123.13C728.709 2087.98 802.351 2026.59 852.55 1947.53C895.193 1882 921.379 1807.13 928.88 1729.3C936.381 1651.47 924.976 1572.98 895.635 1500.5C912.939 1486.68 931.402 1474.38 950.819 1463.74C988.123 1441.69 1023.65 1419.96 1055.18 1403.15C1163.13 1352.66 1280.9 1326.63 1400.08 1326.93C1650.26 1356.37 1699.67 1512.45 1690.19 1578.19C1685.74 1601.51 1676.35 1623.61 1662.66 1643.01C1648.97 1662.4 1631.29 1678.64 1610.8 1690.64C1593.46 1701.67 1587.68 1705.37 1589.22 1713.23C1591.3 1724.79 1599.7 1724.25 1614.42 1722.17C1652.01 1710.29 1685.13 1687.32 1709.42 1656.27C1733.71 1625.22 1748.04 1587.55 1750.54 1548.21C1758.24 1394.06 1611.26 1224.96 1351.06 1226.5C1273.16 1226.73 1196.04 1242.09 1124 1271.74C1112.44 1276.52 1101.22 1281.66 1090.32 1287.16L1090.71 1287.39ZM718.828 1891.58C635.742 1981.99 520.132 2016.13 470.188 1987.23C416.237 1956.4 437.586 1822.67 539.554 1727.02C599.896 1672.55 665.176 1623.81 734.551 1581.43C746.651 1573.72 764.532 1563.55 786.036 1550.6L791.816 1547.44L804.456 1539.73C822.626 1600.71 824.273 1665.41 809.227 1727.24C794.182 1789.06 762.985 1845.77 718.828 1891.58Z" fill="#CD6799"/>
</svg>
