<svg width="2156" height="2156" viewBox="0 0 2156 2156" fill="none" xmlns="http://www.w3.org/2000/svg">
<g clip-path="url(#clip0_66_164)">
<path d="M2098.18 938.415C2021.09 861.335 1896.1 861.335 1819.01 938.415H1414.99L1700.68 652.735C1809.7 652.735 1898.07 564.354 1898.07 455.332C1898.07 346.311 1809.7 257.919 1700.68 257.919C1591.65 257.919 1503.28 346.311 1503.28 455.332L1217.59 741.022V336.992C1294.68 259.902 1294.68 134.914 1217.59 57.8246C1140.49 -19.2749 1015.5 -19.2749 938.415 57.8246C861.325 134.924 861.325 259.911 938.415 336.992V741.022L652.737 455.323C652.737 346.311 564.355 257.929 455.334 257.929C346.313 257.929 257.932 346.311 257.932 455.323C257.932 564.354 346.313 652.735 455.325 652.735L741.022 938.415H336.995C259.896 861.325 134.909 861.335 57.8099 938.415C-19.27 1015.51 -19.27 1140.5 57.8099 1217.6C134.909 1294.68 259.896 1294.68 336.995 1217.6H741.003L455.334 1503.27C346.313 1503.27 257.932 1591.64 257.932 1700.67C257.932 1809.7 346.313 1898.08 455.325 1898.08C564.355 1898.08 652.737 1809.7 652.737 1700.68L938.415 1414.99V1819.01C861.325 1896.1 861.325 2021.09 938.415 2098.18C1015.51 2175.27 1140.5 2175.27 1217.6 2098.18C1294.68 2021.08 1294.68 1896.1 1217.6 1819V1414.99L1503.28 1700.68C1503.28 1809.7 1591.65 1898.07 1700.67 1898.07C1809.7 1898.07 1898.08 1809.7 1898.08 1700.68C1898.08 1591.64 1809.7 1503.27 1700.68 1503.27L1414.98 1217.58H1819.01C1896.11 1294.68 2021.1 1294.68 2098.18 1217.58C2175.27 1140.49 2175.27 1015.51 2098.18 938.415Z" fill="#FFB13B"/>
</g>
<defs>
<clipPath id="clip0_66_164">
<rect width="2156" height="2156" fill="white"/>
</clipPath>
</defs>
</svg>
