<svg width="2156" height="2156" viewBox="0 0 2156 2156" fill="none" xmlns="http://www.w3.org/2000/svg">
<path d="M2036.25 360C2102.39 360 2156 413.614 2156 479.75C2156 545.886 2102.39 599.5 2036.25 599.5H119.75C53.6139 599.5 0 545.886 0 479.75C0 413.614 53.6139 360 119.75 360H2036.25ZM0 1677.25C0 1743.39 53.6139 1797 119.75 1797H958.25C1024.39 1797 1078 1743.39 1078 1677.25C1078 1611.11 1024.39 1557.5 958.25 1557.5H119.75C53.6139 1557.5 0 1611.11 0 1677.25ZM0 1078.5C0 1144.64 53.6139 1198.25 119.75 1198.25H2036.25C2102.39 1198.25 2156 1144.64 2156 1078.5C2156 1012.36 2102.39 958.75 2036.25 958.75H119.75C53.6139 958.75 0 1012.36 0 1078.5Z" fill="white"/>
</svg>
