<svg width="2156" height="2156" viewBox="0 0 2156 2156" fill="none" xmlns="http://www.w3.org/2000/svg">
<g clip-path="url(#clip0_65_100)">
<rect width="2156" height="2156" rx="318" fill="black"/>
<path d="M1707 675.308C1748.75 633.562 1816.44 633.564 1858.19 675.314C1899.94 717.064 1899.94 784.752 1858.18 826.498L1205.72 1478.88C1160.21 1524.38 1086.43 1524.37 1040.93 1478.87L734.816 1172.81C693.064 1131.06 693.061 1063.37 734.81 1021.62C776.56 979.873 844.251 979.87 886.004 1021.62L1123.32 1258.9L1707 675.308Z" fill="#474747"/>
<path d="M1684.72 653.033C1738.78 598.986 1826.41 598.989 1880.46 653.04C1934.52 707.092 1934.51 794.725 1880.46 848.773L1227.99 1501.15C1170.18 1558.95 1076.46 1558.95 1018.65 1501.15L712.544 1195.08C658.488 1141.04 658.485 1053.4 712.536 999.349C766.586 945.298 854.222 945.295 908.276 999.342L1123.32 1214.36L1684.72 653.033ZM1835.92 697.588C1806.47 668.139 1758.72 668.137 1729.27 697.584L1123.32 1303.45L863.732 1043.89C834.511 1014.68 787.278 1014.45 757.778 1043.21L757.084 1043.9C727.637 1073.34 727.639 1121.09 757.089 1150.53L1063.2 1456.6C1096.4 1489.8 1150.24 1489.8 1183.44 1456.6L1835.91 804.223C1865.13 775.007 1865.36 727.78 1836.6 698.281L1835.92 697.588Z" fill="#474747"/>
<path d="M1259.5 675.308C1301.25 633.562 1368.94 633.564 1410.69 675.314C1452.44 717.064 1452.44 784.752 1410.68 826.498L758.216 1478.88C712.709 1524.38 638.933 1524.37 593.427 1478.87L287.316 1172.81C245.564 1131.06 245.561 1063.37 287.31 1021.62C329.06 979.873 396.751 979.87 438.504 1021.62L675.821 1258.9L1259.5 675.308Z" fill="white"/>
<path d="M1237.22 653.033C1291.28 598.986 1378.91 598.989 1432.96 653.04C1487.02 707.092 1487.01 794.725 1432.96 848.773L780.488 1501.15C722.681 1558.95 628.962 1558.95 571.154 1501.15L265.044 1195.08C210.988 1141.04 210.985 1053.4 265.036 999.349C319.086 945.298 406.722 945.295 460.776 999.342L675.82 1214.36L1237.22 653.033ZM1388.42 697.588C1358.97 668.139 1311.22 668.137 1281.77 697.584L675.82 1303.45L416.232 1043.89C387.011 1014.68 339.778 1014.45 310.278 1043.21L309.584 1043.9C280.137 1073.34 280.139 1121.09 309.589 1150.53L615.699 1456.6C648.905 1489.8 702.738 1489.8 735.943 1456.6L1388.41 804.223C1417.63 775.007 1417.86 727.78 1389.1 698.281L1388.42 697.588Z" fill="white"/>
</g>
<defs>
<clipPath id="clip0_65_100">
<rect width="2156" height="2156" rx="318" fill="white"/>
</clipPath>
</defs>
</svg>
