<svg width="2156" height="2156" viewBox="0 0 2156 2156" fill="none" xmlns="http://www.w3.org/2000/svg">
<path d="M643.731 65C528.556 65 418.098 110.74 336.657 192.157C255.216 273.575 209.462 384.001 209.462 499.143V664.985C209.461 718.746 194.481 771.443 166.203 817.171C137.925 862.898 97.4664 899.848 49.3619 923.879L0 948.481V1207.52L49.3619 1232.12C97.4884 1256.16 137.962 1293.14 166.241 1338.89C194.521 1384.65 209.487 1437.37 209.462 1491.16V1656.86C209.462 1772 255.216 1882.42 336.657 1963.84C418.098 2045.26 528.556 2091 643.731 2091H933.244V1801.57H643.731C605.339 1801.57 568.52 1786.32 541.373 1759.19C514.226 1732.05 498.975 1695.24 498.975 1656.86V1491.01C498.982 1414.12 483.663 1337.99 453.913 1267.08C424.162 1196.16 380.577 1131.89 325.702 1078C380.577 1024.11 424.162 959.838 453.913 888.924C483.663 818.011 498.982 741.883 498.975 664.985V499.143C498.975 460.762 514.226 423.954 541.373 396.814C568.52 369.675 605.339 354.429 643.731 354.429H933.244V65H643.731ZM1512.27 2091C1627.44 2091 1737.9 2045.26 1819.34 1963.84C1900.78 1882.42 1946.54 1772 1946.54 1656.86V1491.01C1946.54 1437.25 1961.52 1384.56 1989.8 1338.83C2018.08 1293.1 2058.53 1256.15 2106.64 1232.12L2156 1207.52V948.481L2106.64 923.879C2058.51 899.837 2018.04 862.865 1989.76 817.109C1961.48 771.354 1946.51 718.626 1946.54 664.841V499.143C1946.54 384.001 1900.78 273.575 1819.34 192.157C1737.9 110.74 1627.44 65 1512.27 65H1222.76V354.429H1512.27C1550.66 354.429 1587.48 369.675 1614.63 396.814C1641.77 423.954 1657.03 460.762 1657.03 499.143V664.985C1657.02 741.883 1672.34 818.011 1702.09 888.924C1731.84 959.838 1775.42 1024.11 1830.3 1078C1775.42 1131.89 1731.84 1196.16 1702.09 1267.08C1672.34 1337.99 1657.02 1414.12 1657.03 1491.01V1656.86C1657.03 1695.24 1641.77 1732.05 1614.63 1759.19C1587.48 1786.32 1550.66 1801.57 1512.27 1801.57H1222.76V2091H1512.27Z" fill="#FF43BA"/>
</svg>
